<ttFont>
    <TTGlyph name=".notdef" xMin="34" yMin="0" xMax="306" yMax="682">
      <contour>
        <pt x="34" y="0" on="1"/>
        <pt x="34" y="682" on="1"/>
        <pt x="306" y="682" on="1"/>
        <pt x="306" y="0" on="1"/>
      </contour>
      <contour>
        <pt x="68" y="34" on="1"/>
        <pt x="272" y="34" on="1"/>
        <pt x="272" y="648" on="1"/>
        <pt x="68" y="648" on="1"/>
      </contour>
    </TTGlyph>
    <TTGlyph name="A" xMin="10" yMin="0" xMax="590" yMax="563">
      <contour>
        <pt x="113" y="563" on="1"/>
        <pt x="328" y="563" on="1"/>
        <pt x="539" y="47" on="1"/>
        <pt x="590" y="47" on="1"/>
        <pt x="590" y="0" on="1"/>
        <pt x="385" y="0" on="1"/>
        <pt x="385" y="47" on="1"/>
        <pt x="487" y="47" on="1"/>
        <pt x="430" y="186" on="1"/>
        <pt x="169" y="186" on="1"/>
        <pt x="113" y="47" on="1"/>
        <pt x="215" y="47" on="1"/>
        <pt x="215" y="0" on="1"/>
        <pt x="10" y="0" on="1"/>
        <pt x="10" y="47" on="1"/>
        <pt x="63" y="47" on="1"/>
        <pt x="256" y="516" on="1"/>
        <pt x="113" y="516" on="1"/>
      </contour>
      <contour>
        <pt x="413" y="230" on="1"/>
        <pt x="300" y="504" on="1"/>
        <pt x="187" y="230" on="1"/>
      </contour>
    </TTGlyph>
    <TTGlyph name="AE" xMin="19" yMin="0" xMax="556" yMax="563">
      <contour>
        <pt x="158" y="563" on="1"/>
        <pt x="549" y="563" on="1"/>
        <pt x="549" y="383" on="1"/>
        <pt x="504" y="383" on="1"/>
        <pt x="495" y="516" on="1"/>
        <pt x="352" y="516" on="1"/>
        <pt x="352" y="322" on="1"/>
        <pt x="417" y="322" on="1"/>
        <pt x="417" y="395" on="1"/>
        <pt x="463" y="395" on="1"/>
        <pt x="463" y="202" on="1"/>
        <pt x="417" y="202" on="1"/>
        <pt x="417" y="275" on="1"/>
        <pt x="352" y="275" on="1"/>
        <pt x="352" y="47" on="1"/>
        <pt x="504" y="47" on="1"/>
        <pt x="510" y="186" on="1"/>
        <pt x="556" y="186" on="1"/>
        <pt x="556" y="0" on="1"/>
        <pt x="302" y="0" on="1"/>
        <pt x="302" y="184" on="1"/>
        <pt x="179" y="184" on="1"/>
        <pt x="122" y="47" on="1"/>
        <pt x="211" y="47" on="1"/>
        <pt x="211" y="0" on="1"/>
        <pt x="19" y="0" on="1"/>
        <pt x="19" y="47" on="1"/>
        <pt x="72" y="47" on="1"/>
        <pt x="261" y="516" on="1"/>
        <pt x="158" y="516" on="1"/>
      </contour>
      <contour>
        <pt x="302" y="231" on="1"/>
        <pt x="302" y="504" on="1"/>
        <pt x="300" y="504" on="1"/>
        <pt x="196" y="231" on="1"/>
      </contour>
    </TTGlyph>
    <TTGlyph name="Aacute" xMin="10" yMin="0" xMax="590" yMax="751">
      <component glyphName="A" x="0" y="0" flags="0x1004"/>
      <component glyphName="acute" x="0" y="133" flags="0x1004"/>
    </TTGlyph>
    <TTGlyph name="Abreve" xMin="10" yMin="0" xMax="590" yMax="757">
      <component glyphName="A" x="0" y="0" flags="0x1004"/>
      <component glyphName="breve" x="0" y="133" flags="0x1004"/>
    </TTGlyph>
    <TTGlyph name="Acircumflex" xMin="10" yMin="0" xMax="590" yMax="754">
      <component glyphName="A" x="0" y="0" flags="0x1004"/>
      <component glyphName="circumflex" x="0" y="133" flags="0x1004"/>
    </TTGlyph>
    <TTGlyph name="Adieresis" xMin="10" yMin="0" xMax="590" yMax="754">
      <component glyphName="A" x="0" y="0" flags="0x1004"/>
      <component glyphName="dieresis" x="0" y="133" flags="0x1004"/>
    </TTGlyph>
    <TTGlyph name="Agrave" xMin="10" yMin="0" xMax="590" yMax="751">
      <component glyphName="A" x="0" y="0" flags="0x1004"/>
      <component glyphName="grave" x="0" y="133" flags="0x1004"/>
    </TTGlyph>
    <TTGlyph name="Amacron" xMin="10" yMin="0" xMax="590" yMax="725">
      <component glyphName="A" x="0" y="0" flags="0x1004"/>
      <component glyphName="macron" x="0" y="133" flags="0x1004"/>
    </TTGlyph>
    <TTGlyph name="Aogonek" xMin="10" yMin="-117" xMax="590" yMax="563">
      <contour>
        <pt x="548" y="-40" on="1"/>
        <pt x="538" y="-93" on="1"/>
        <pt x="510" y="-117" on="0"/>
        <pt x="479" y="-117" on="1"/>
        <pt x="454" y="-117" on="0"/>
        <pt x="421" y="-83" on="0"/>
        <pt x="421" y="-59" on="1"/>
        <pt x="421" y="-25" on="0"/>
        <pt x="456" y="-2" on="1"/>
        <pt x="456" y="0" on="1"/>
        <pt x="385" y="0" on="1"/>
        <pt x="385" y="47" on="1"/>
        <pt x="487" y="47" on="1"/>
        <pt x="430" y="186" on="1"/>
        <pt x="169" y="186" on="1"/>
        <pt x="113" y="47" on="1"/>
        <pt x="215" y="47" on="1"/>
        <pt x="215" y="0" on="1"/>
        <pt x="10" y="0" on="1"/>
        <pt x="10" y="47" on="1"/>
        <pt x="63" y="47" on="1"/>
        <pt x="256" y="516" on="1"/>
        <pt x="113" y="516" on="1"/>
        <pt x="113" y="563" on="1"/>
        <pt x="328" y="563" on="1"/>
        <pt x="539" y="47" on="1"/>
        <pt x="590" y="47" on="1"/>
        <pt x="590" y="0" on="1"/>
        <pt x="539" y="0" on="1"/>
        <pt x="518" y="-6" on="0"/>
        <pt x="481" y="-31" on="0"/>
        <pt x="481" y="-46" on="1"/>
        <pt x="481" y="-55" on="0"/>
        <pt x="492" y="-65" on="0"/>
        <pt x="499" y="-65" on="1"/>
        <pt x="509" y="-65" on="0"/>
        <pt x="522" y="-58" on="0"/>
      </contour>
      <contour>
        <pt x="413" y="230" on="1"/>
        <pt x="300" y="504" on="1"/>
        <pt x="187" y="230" on="1"/>
      </contour>
    </TTGlyph>
    <TTGlyph name="Aring" xMin="10" yMin="0" xMax="590" yMax="775">
      <component glyphName="A" x="0" y="0" flags="0x1004"/>
      <component glyphName="ring" x="0" y="133" flags="0x1004"/>
    </TTGlyph>
    <TTGlyph name="Atilde" xMin="10" yMin="0" xMax="590" yMax="753">
      <component glyphName="A" x="0" y="0" flags="0x1004"/>
      <component glyphName="tilde" x="0" y="133" flags="0x1004"/>
    </TTGlyph>
    <TTGlyph name="B" xMin="45" yMin="0" xMax="544" yMax="563">
      <contour>
        <pt x="45" y="563" on="1"/>
        <pt x="318" y="563" on="1"/>
        <pt x="415" y="563" on="0"/>
        <pt x="509" y="479" on="0"/>
        <pt x="509" y="418" on="1"/>
        <pt x="509" y="335" on="0"/>
        <pt x="430" y="294" on="1"/>
        <pt x="544" y="260" on="0"/>
        <pt x="544" y="154" on="1"/>
        <pt x="544" y="113" on="0"/>
        <pt x="505" y="45" on="0"/>
        <pt x="441" y="11" on="0"/>
        <pt x="377" y="0" on="0"/>
        <pt x="309" y="0" on="1"/>
        <pt x="45" y="0" on="1"/>
        <pt x="45" y="47" on="1"/>
        <pt x="128" y="47" on="1"/>
        <pt x="128" y="516" on="1"/>
        <pt x="45" y="516" on="1"/>
      </contour>
      <contour>
        <pt x="316" y="516" on="1"/>
        <pt x="178" y="516" on="1"/>
        <pt x="178" y="316" on="1"/>
        <pt x="311" y="316" on="1"/>
        <pt x="357" y="316" on="0"/>
        <pt x="421" y="339" on="0"/>
        <pt x="447" y="375" on="0"/>
        <pt x="457" y="405" on="0"/>
        <pt x="457" y="420" on="1"/>
        <pt x="457" y="453" on="0"/>
        <pt x="422" y="497" on="0"/>
        <pt x="364" y="512" on="0"/>
        <pt x="333" y="516" on="0"/>
      </contour>
      <contour>
        <pt x="303" y="269" on="1"/>
        <pt x="178" y="269" on="1"/>
        <pt x="178" y="47" on="1"/>
        <pt x="307" y="47" on="1"/>
        <pt x="332" y="47" on="0"/>
        <pt x="360" y="48" on="0"/>
        <pt x="411" y="54" on="0"/>
        <pt x="442" y="67" on="0"/>
        <pt x="476" y="90" on="0"/>
        <pt x="492" y="128" on="0"/>
        <pt x="492" y="154" on="1"/>
        <pt x="492" y="213" on="0"/>
        <pt x="390" y="269" on="0"/>
      </contour>
    </TTGlyph>
    <TTGlyph name="C" xMin="64" yMin="-17" xMax="594" yMax="580">
      <contour>
        <pt x="561" y="135" on="1"/>
        <pt x="594" y="99" on="1"/>
        <pt x="473" y="-17" on="0"/>
        <pt x="334" y="-17" on="1"/>
        <pt x="207" y="-17" on="0"/>
        <pt x="64" y="159" on="0"/>
        <pt x="64" y="417" on="0"/>
        <pt x="217" y="580" on="0"/>
        <pt x="332" y="580" on="1"/>
        <pt x="411" y="580" on="0"/>
        <pt x="460" y="537" on="1"/>
        <pt x="473" y="526" on="0"/>
        <pt x="477" y="526" on="1"/>
        <pt x="487" y="526" on="0"/>
        <pt x="492" y="574" on="1"/>
        <pt x="529" y="574" on="1"/>
        <pt x="526" y="484" on="0"/>
        <pt x="539" y="383" on="1"/>
        <pt x="492" y="375" on="1"/>
        <pt x="481" y="439" on="0"/>
        <pt x="459" y="471" on="1"/>
        <pt x="419" y="530" on="0"/>
        <pt x="330" y="530" on="1"/>
        <pt x="234" y="530" on="0"/>
        <pt x="118" y="391" on="0"/>
        <pt x="118" y="289" on="1"/>
        <pt x="118" y="256" on="0"/>
        <pt x="130" y="191" on="0"/>
        <pt x="160" y="121" on="0"/>
        <pt x="207" y="67" on="0"/>
        <pt x="285" y="33" on="0"/>
        <pt x="334" y="33" on="1"/>
        <pt x="445" y="33" on="0"/>
      </contour>
    </TTGlyph>
    <TTGlyph name="Cacute" xMin="64" yMin="-17" xMax="594" yMax="751">
      <component glyphName="C" x="0" y="0" flags="0x1004"/>
      <component glyphName="acute" x="30" y="133" flags="0x1004"/>
    </TTGlyph>
    <TTGlyph name="Ccaron" xMin="64" yMin="-17" xMax="594" yMax="761">
      <component glyphName="C" x="0" y="0" flags="0x1004"/>
      <component glyphName="caron" x="30" y="133" flags="0x1004"/>
    </TTGlyph>
    <TTGlyph name="Ccedilla" xMin="64" yMin="-145" xMax="594" yMax="580">
      <contour>
        <pt x="354" y="-17" on="1"/>
        <pt x="354" y="-25" on="1"/>
        <pt x="377" y="-25" on="0"/>
        <pt x="424" y="-60" on="0"/>
        <pt x="424" y="-87" on="1"/>
        <pt x="424" y="-94" on="0"/>
        <pt x="420" y="-108" on="0"/>
        <pt x="406" y="-131" on="0"/>
        <pt x="370" y="-145" on="0"/>
        <pt x="344" y="-145" on="1"/>
        <pt x="302" y="-145" on="0"/>
        <pt x="234" y="-130" on="1"/>
        <pt x="241" y="-86" on="1"/>
        <pt x="302" y="-100" on="0"/>
        <pt x="345" y="-100" on="1"/>
        <pt x="377" y="-100" on="0"/>
        <pt x="377" y="-74" on="0"/>
        <pt x="342" y="-65" on="0"/>
        <pt x="305" y="-62" on="1"/>
        <pt x="311" y="-17" on="1"/>
        <pt x="243" y="-10" on="0"/>
        <pt x="142" y="53" on="0"/>
        <pt x="89" y="145" on="0"/>
        <pt x="64" y="240" on="0"/>
        <pt x="64" y="288" on="1"/>
        <pt x="64" y="417" on="0"/>
        <pt x="217" y="580" on="0"/>
        <pt x="332" y="580" on="1"/>
        <pt x="396" y="580" on="0"/>
        <pt x="442" y="551" on="1"/>
        <pt x="444" y="550" on="0"/>
        <pt x="460" y="536" on="0"/>
        <pt x="474" y="526" on="0"/>
        <pt x="477" y="526" on="1"/>
        <pt x="487" y="526" on="0"/>
        <pt x="492" y="574" on="1"/>
        <pt x="529" y="574" on="1"/>
        <pt x="526" y="484" on="0"/>
        <pt x="539" y="383" on="1"/>
        <pt x="492" y="375" on="1"/>
        <pt x="489" y="395" on="0"/>
        <pt x="483" y="423" on="0"/>
        <pt x="460" y="473" on="0"/>
        <pt x="428" y="505" on="0"/>
        <pt x="369" y="530" on="0"/>
        <pt x="330" y="530" on="1"/>
        <pt x="247" y="530" on="0"/>
        <pt x="118" y="405" on="0"/>
        <pt x="118" y="289" on="1"/>
        <pt x="118" y="182" on="0"/>
        <pt x="227" y="33" on="0"/>
        <pt x="334" y="33" on="1"/>
        <pt x="445" y="33" on="0"/>
        <pt x="561" y="135" on="1"/>
        <pt x="594" y="99" on="1"/>
        <pt x="484" y="-6" on="0"/>
      </contour>
    </TTGlyph>
    <TTGlyph name="Ccircumflex" xMin="64" yMin="-17" xMax="594" yMax="754">
      <component glyphName="C" x="0" y="0" flags="0x1004"/>
      <component glyphName="circumflex" x="30" y="133" flags="0x1004"/>
    </TTGlyph>
    <TTGlyph name="Cdotaccent" xMin="64" yMin="-17" xMax="594" yMax="754">
      <component glyphName="C" x="0" y="0" flags="0x1004"/>
      <component glyphName="dotaccent" x="30" y="133" flags="0x1004"/>
    </TTGlyph>
    <TTGlyph name="D" xMin="34" yMin="0" xMax="551" yMax="563">
      <contour>
        <pt x="34" y="563" on="1"/>
        <pt x="284" y="563" on="1"/>
        <pt x="359" y="563" on="0"/>
        <pt x="451" y="535" on="0"/>
        <pt x="489" y="488" on="1"/>
        <pt x="551" y="411" on="0"/>
        <pt x="551" y="292" on="1"/>
        <pt x="551" y="137" on="0"/>
        <pt x="468" y="58" on="1"/>
        <pt x="407" y="0" on="0"/>
        <pt x="280" y="0" on="1"/>
        <pt x="34" y="0" on="1"/>
        <pt x="34" y="47" on="1"/>
        <pt x="113" y="47" on="1"/>
        <pt x="113" y="516" on="1"/>
        <pt x="34" y="516" on="1"/>
      </contour>
      <contour>
        <pt x="285" y="516" on="1"/>
        <pt x="163" y="516" on="1"/>
        <pt x="163" y="47" on="1"/>
        <pt x="280" y="47" on="1"/>
        <pt x="382" y="47" on="0"/>
        <pt x="430" y="94" on="1"/>
        <pt x="497" y="161" on="0"/>
        <pt x="497" y="289" on="1"/>
        <pt x="497" y="386" on="0"/>
        <pt x="450" y="451" on="1"/>
        <pt x="421" y="492" on="0"/>
        <pt x="349" y="516" on="0"/>
      </contour>
    </TTGlyph>
    <TTGlyph name="Dcaron" xMin="34" yMin="0" xMax="551" yMax="761">
      <component glyphName="D" x="0" y="0" flags="0x1004"/>
      <component glyphName="caron" x="0" y="133" flags="0x1004"/>
    </TTGlyph>
    <TTGlyph name="E" xMin="57" yMin="0" xMax="541" yMax="563">
      <contour>
        <pt x="57" y="563" on="1"/>
        <pt x="532" y="563" on="1"/>
        <pt x="536" y="379" on="1"/>
        <pt x="490" y="379" on="1"/>
        <pt x="480" y="516" on="1"/>
        <pt x="192" y="516" on="1"/>
        <pt x="192" y="321" on="1"/>
        <pt x="354" y="321" on="1"/>
        <pt x="354" y="394" on="1"/>
        <pt x="400" y="394" on="1"/>
        <pt x="400" y="202" on="1"/>
        <pt x="354" y="202" on="1"/>
        <pt x="354" y="274" on="1"/>
        <pt x="192" y="274" on="1"/>
        <pt x="192" y="47" on="1"/>
        <pt x="490" y="47" on="1"/>
        <pt x="495" y="184" on="1"/>
        <pt x="541" y="184" on="1"/>
        <pt x="541" y="0" on="1"/>
        <pt x="57" y="0" on="1"/>
        <pt x="57" y="47" on="1"/>
        <pt x="142" y="47" on="1"/>
        <pt x="142" y="516" on="1"/>
        <pt x="57" y="516" on="1"/>
      </contour>
    </TTGlyph>
    <TTGlyph name="Eacute" xMin="57" yMin="0" xMax="541" yMax="751">
      <component glyphName="E" x="0" y="0" flags="0x1004"/>
      <component glyphName="acute" x="0" y="133" flags="0x1004"/>
    </TTGlyph>
    <TTGlyph name="Ecaron" xMin="57" yMin="0" xMax="541" yMax="761">
      <component glyphName="E" x="0" y="0" flags="0x1004"/>
      <component glyphName="caron" x="0" y="133" flags="0x1004"/>
    </TTGlyph>
    <TTGlyph name="Ecircumflex" xMin="57" yMin="0" xMax="541" yMax="754">
      <component glyphName="E" x="0" y="0" flags="0x1004"/>
      <component glyphName="circumflex" x="0" y="133" flags="0x1004"/>
    </TTGlyph>
    <TTGlyph name="Edieresis" xMin="57" yMin="0" xMax="541" yMax="754">
      <component glyphName="E" x="0" y="0" flags="0x1004"/>
      <component glyphName="dieresis" x="0" y="133" flags="0x1004"/>
    </TTGlyph>
    <TTGlyph name="Edotaccent" xMin="57" yMin="0" xMax="541" yMax="754">
      <component glyphName="E" x="0" y="0" flags="0x1004"/>
      <component glyphName="dotaccent" x="0" y="133" flags="0x1004"/>
    </TTGlyph>
    <TTGlyph name="Egrave" xMin="57" yMin="0" xMax="541" yMax="751">
      <component glyphName="E" x="0" y="0" flags="0x1004"/>
      <component glyphName="grave" x="0" y="133" flags="0x1004"/>
    </TTGlyph>
    <TTGlyph name="Emacron" xMin="57" yMin="0" xMax="541" yMax="725">
      <component glyphName="E" x="0" y="0" flags="0x1004"/>
      <component glyphName="macron" x="0" y="133" flags="0x1004"/>
    </TTGlyph>
    <TTGlyph name="Eng" xMin="44" yMin="-137" xMax="526" yMax="576">
      <contour>
        <pt x="44" y="563" on="1"/>
        <pt x="179" y="563" on="1"/>
        <pt x="179" y="496" on="1"/>
        <pt x="295" y="576" on="0"/>
        <pt x="381" y="576" on="1"/>
        <pt x="454" y="576" on="0"/>
        <pt x="526" y="476" on="0"/>
        <pt x="526" y="411" on="1"/>
        <pt x="526" y="21" on="1"/>
        <pt x="526" y="-54" on="0"/>
        <pt x="431" y="-137" on="0"/>
        <pt x="370" y="-137" on="1"/>
        <pt x="294" y="-137" on="1"/>
        <pt x="294" y="-87" on="1"/>
        <pt x="370" y="-87" on="1"/>
        <pt x="410" y="-87" on="0"/>
        <pt x="462" y="-43" on="0"/>
        <pt x="476" y="1" on="0"/>
        <pt x="476" y="21" on="1"/>
        <pt x="476" y="410" on="1"/>
        <pt x="476" y="462" on="0"/>
        <pt x="424" y="526" on="0"/>
        <pt x="374" y="526" on="1"/>
        <pt x="325" y="526" on="0"/>
        <pt x="220" y="471" on="0"/>
        <pt x="179" y="430" on="1"/>
        <pt x="179" y="47" on="1"/>
        <pt x="263" y="47" on="1"/>
        <pt x="263" y="0" on="1"/>
        <pt x="44" y="0" on="1"/>
        <pt x="44" y="47" on="1"/>
        <pt x="129" y="47" on="1"/>
        <pt x="129" y="516" on="1"/>
        <pt x="44" y="516" on="1"/>
      </contour>
    </TTGlyph>
    <TTGlyph name="Eogonek" xMin="57" yMin="-117" xMax="541" yMax="563">
      <contour>
        <pt x="497" y="-40" on="1"/>
        <pt x="487" y="-93" on="1"/>
        <pt x="459" y="-117" on="0"/>
        <pt x="428" y="-117" on="1"/>
        <pt x="403" y="-117" on="0"/>
        <pt x="370" y="-83" on="0"/>
        <pt x="370" y="-59" on="1"/>
        <pt x="370" y="-25" on="0"/>
        <pt x="405" y="-2" on="1"/>
        <pt x="405" y="0" on="1"/>
        <pt x="57" y="0" on="1"/>
        <pt x="57" y="47" on="1"/>
        <pt x="142" y="47" on="1"/>
        <pt x="142" y="516" on="1"/>
        <pt x="57" y="516" on="1"/>
        <pt x="57" y="563" on="1"/>
        <pt x="532" y="563" on="1"/>
        <pt x="536" y="379" on="1"/>
        <pt x="490" y="379" on="1"/>
        <pt x="480" y="516" on="1"/>
        <pt x="192" y="516" on="1"/>
        <pt x="192" y="321" on="1"/>
        <pt x="354" y="321" on="1"/>
        <pt x="354" y="394" on="1"/>
        <pt x="400" y="394" on="1"/>
        <pt x="400" y="202" on="1"/>
        <pt x="354" y="202" on="1"/>
        <pt x="354" y="274" on="1"/>
        <pt x="192" y="274" on="1"/>
        <pt x="192" y="47" on="1"/>
        <pt x="490" y="47" on="1"/>
        <pt x="495" y="184" on="1"/>
        <pt x="541" y="184" on="1"/>
        <pt x="541" y="0" on="1"/>
        <pt x="488" y="0" on="1"/>
        <pt x="467" y="-6" on="0"/>
        <pt x="430" y="-31" on="0"/>
        <pt x="430" y="-46" on="1"/>
        <pt x="430" y="-55" on="0"/>
        <pt x="441" y="-65" on="0"/>
        <pt x="448" y="-65" on="1"/>
        <pt x="458" y="-65" on="0"/>
        <pt x="471" y="-58" on="0"/>
      </contour>
    </TTGlyph>
    <TTGlyph name="Eth" xMin="34" yMin="0" xMax="551" yMax="563">
      <contour>
        <pt x="113" y="274" on="1"/>
        <pt x="34" y="274" on="1"/>
        <pt x="34" y="321" on="1"/>
        <pt x="113" y="321" on="1"/>
        <pt x="113" y="516" on="1"/>
        <pt x="34" y="516" on="1"/>
        <pt x="34" y="563" on="1"/>
        <pt x="284" y="563" on="1"/>
        <pt x="359" y="563" on="0"/>
        <pt x="451" y="535" on="0"/>
        <pt x="489" y="488" on="1"/>
        <pt x="551" y="411" on="0"/>
        <pt x="551" y="292" on="1"/>
        <pt x="551" y="137" on="0"/>
        <pt x="468" y="58" on="1"/>
        <pt x="407" y="0" on="0"/>
        <pt x="280" y="0" on="1"/>
        <pt x="34" y="0" on="1"/>
        <pt x="34" y="47" on="1"/>
        <pt x="113" y="47" on="1"/>
      </contour>
      <contour>
        <pt x="329" y="274" on="1"/>
        <pt x="163" y="274" on="1"/>
        <pt x="163" y="47" on="1"/>
        <pt x="280" y="47" on="1"/>
        <pt x="382" y="47" on="0"/>
        <pt x="430" y="94" on="1"/>
        <pt x="497" y="161" on="0"/>
        <pt x="497" y="289" on="1"/>
        <pt x="497" y="386" on="0"/>
        <pt x="450" y="451" on="1"/>
        <pt x="421" y="492" on="0"/>
        <pt x="349" y="516" on="0"/>
        <pt x="285" y="516" on="1"/>
        <pt x="163" y="516" on="1"/>
        <pt x="163" y="321" on="1"/>
        <pt x="329" y="321" on="1"/>
      </contour>
    </TTGlyph>
    <TTGlyph name="F" xMin="72" yMin="0" xMax="546" yMax="563">
      <contour>
        <pt x="72" y="563" on="1"/>
        <pt x="541" y="563" on="1"/>
        <pt x="546" y="383" on="1"/>
        <pt x="501" y="383" on="1"/>
        <pt x="489" y="516" on="1"/>
        <pt x="203" y="516" on="1"/>
        <pt x="203" y="321" on="1"/>
        <pt x="365" y="321" on="1"/>
        <pt x="365" y="394" on="1"/>
        <pt x="411" y="394" on="1"/>
        <pt x="411" y="202" on="1"/>
        <pt x="365" y="202" on="1"/>
        <pt x="365" y="274" on="1"/>
        <pt x="203" y="274" on="1"/>
        <pt x="203" y="47" on="1"/>
        <pt x="333" y="47" on="1"/>
        <pt x="333" y="0" on="1"/>
        <pt x="72" y="0" on="1"/>
        <pt x="72" y="47" on="1"/>
        <pt x="153" y="47" on="1"/>
        <pt x="153" y="516" on="1"/>
        <pt x="72" y="516" on="1"/>
      </contour>
    </TTGlyph>
    <TTGlyph name="G" xMin="48" yMin="-17" xMax="578" yMax="580">
      <contour>
        <pt x="474" y="574" on="1"/>
        <pt x="522" y="574" on="1"/>
        <pt x="520" y="566" on="0"/>
        <pt x="520" y="555" on="1"/>
        <pt x="516" y="511" on="0"/>
        <pt x="516" y="474" on="1"/>
        <pt x="516" y="431" on="0"/>
        <pt x="522" y="383" on="1"/>
        <pt x="479" y="375" on="1"/>
        <pt x="476" y="395" on="0"/>
        <pt x="469" y="423" on="0"/>
        <pt x="446" y="473" on="0"/>
        <pt x="413" y="505" on="0"/>
        <pt x="352" y="530" on="0"/>
        <pt x="312" y="530" on="1"/>
        <pt x="223" y="530" on="0"/>
        <pt x="102" y="389" on="0"/>
        <pt x="102" y="171" on="0"/>
        <pt x="217" y="33" on="0"/>
        <pt x="326" y="33" on="1"/>
        <pt x="387" y="33" on="0"/>
        <pt x="479" y="65" on="1"/>
        <pt x="479" y="200" on="1"/>
        <pt x="331" y="200" on="1"/>
        <pt x="331" y="247" on="1"/>
        <pt x="578" y="247" on="1"/>
        <pt x="578" y="200" on="1"/>
        <pt x="530" y="200" on="1"/>
        <pt x="530" y="32" on="1"/>
        <pt x="414" y="-17" on="0"/>
        <pt x="325" y="-17" on="1"/>
        <pt x="252" y="-17" on="0"/>
        <pt x="140" y="37" on="0"/>
        <pt x="78" y="127" on="0"/>
        <pt x="48" y="226" on="0"/>
        <pt x="48" y="279" on="1"/>
        <pt x="48" y="402" on="0"/>
        <pt x="192" y="580" on="0"/>
        <pt x="314" y="580" on="1"/>
        <pt x="386" y="580" on="0"/>
        <pt x="439" y="537" on="1"/>
        <pt x="452" y="525" on="0"/>
        <pt x="466" y="525" on="0"/>
        <pt x="470" y="539" on="0"/>
      </contour>
    </TTGlyph>
    <TTGlyph name="Gamma" xMin="58" yMin="0" xMax="536" yMax="563">
      <contour>
        <pt x="58" y="563" on="1"/>
        <pt x="532" y="563" on="1"/>
        <pt x="536" y="380" on="1"/>
        <pt x="490" y="380" on="1"/>
        <pt x="480" y="516" on="1"/>
        <pt x="192" y="516" on="1"/>
        <pt x="192" y="47" on="1"/>
        <pt x="278" y="47" on="1"/>
        <pt x="278" y="0" on="1"/>
        <pt x="58" y="0" on="1"/>
        <pt x="58" y="47" on="1"/>
        <pt x="142" y="47" on="1"/>
        <pt x="142" y="516" on="1"/>
        <pt x="58" y="516" on="1"/>
      </contour>
    </TTGlyph>
    <TTGlyph name="Gbreve" xMin="48" yMin="-17" xMax="578" yMax="757">
      <component glyphName="G" x="0" y="0" flags="0x1004"/>
      <component glyphName="breve" x="30" y="133" flags="0x1004"/>
    </TTGlyph>
    <TTGlyph name="Gcedilla" xMin="48" yMin="-145" xMax="578" yMax="580">
      <contour>
        <pt x="336" y="-17" on="1"/>
        <pt x="335" y="-25" on="1"/>
        <pt x="365" y="-29" on="0"/>
        <pt x="400" y="-59" on="0"/>
        <pt x="405" y="-79" on="0"/>
        <pt x="405" y="-87" on="1"/>
        <pt x="405" y="-94" on="0"/>
        <pt x="401" y="-109" on="0"/>
        <pt x="387" y="-131" on="0"/>
        <pt x="351" y="-145" on="0"/>
        <pt x="325" y="-145" on="1"/>
        <pt x="282" y="-145" on="0"/>
        <pt x="215" y="-130" on="1"/>
        <pt x="222" y="-86" on="1"/>
        <pt x="278" y="-100" on="0"/>
        <pt x="324" y="-100" on="1"/>
        <pt x="358" y="-100" on="0"/>
        <pt x="358" y="-74" on="0"/>
        <pt x="323" y="-65" on="0"/>
        <pt x="286" y="-62" on="1"/>
        <pt x="292" y="-15" on="1"/>
        <pt x="237" y="-10" on="0"/>
        <pt x="150" y="33" on="0"/>
        <pt x="97" y="94" on="0"/>
        <pt x="62" y="170" on="0"/>
        <pt x="48" y="243" on="0"/>
        <pt x="48" y="279" on="1"/>
        <pt x="48" y="402" on="0"/>
        <pt x="192" y="580" on="0"/>
        <pt x="314" y="580" on="1"/>
        <pt x="386" y="580" on="0"/>
        <pt x="439" y="537" on="1"/>
        <pt x="452" y="525" on="0"/>
        <pt x="466" y="525" on="0"/>
        <pt x="470" y="539" on="0"/>
        <pt x="474" y="574" on="1"/>
        <pt x="522" y="574" on="1"/>
        <pt x="516" y="500" on="0"/>
        <pt x="516" y="474" on="1"/>
        <pt x="516" y="431" on="0"/>
        <pt x="522" y="383" on="1"/>
        <pt x="479" y="375" on="1"/>
        <pt x="476" y="395" on="0"/>
        <pt x="469" y="423" on="0"/>
        <pt x="446" y="473" on="0"/>
        <pt x="413" y="505" on="0"/>
        <pt x="352" y="530" on="0"/>
        <pt x="312" y="530" on="1"/>
        <pt x="224" y="530" on="0"/>
        <pt x="102" y="395" on="0"/>
        <pt x="102" y="279" on="1"/>
        <pt x="102" y="171" on="0"/>
        <pt x="217" y="33" on="0"/>
        <pt x="326" y="33" on="1"/>
        <pt x="387" y="33" on="0"/>
        <pt x="479" y="65" on="1"/>
        <pt x="479" y="200" on="1"/>
        <pt x="331" y="200" on="1"/>
        <pt x="331" y="247" on="1"/>
        <pt x="578" y="247" on="1"/>
        <pt x="578" y="200" on="1"/>
        <pt x="530" y="200" on="1"/>
        <pt x="530" y="32" on="1"/>
        <pt x="424" y="-12" on="0"/>
      </contour>
    </TTGlyph>
    <TTGlyph name="Gcircumflex" xMin="48" yMin="-17" xMax="578" yMax="754">
      <component glyphName="G" x="0" y="0" flags="0x1004"/>
      <component glyphName="circumflex" x="30" y="133" flags="0x1004"/>
    </TTGlyph>
    <TTGlyph name="Gdotaccent" xMin="48" yMin="-17" xMax="578" yMax="754">
      <component glyphName="G" x="0" y="0" flags="0x1004"/>
      <component glyphName="dotaccent" x="0" y="133" flags="0x1004"/>
    </TTGlyph>
    <TTGlyph name="H" xMin="39" yMin="0" xMax="562" yMax="563">
      <contour>
        <pt x="39" y="563" on="1"/>
        <pt x="239" y="563" on="1"/>
        <pt x="239" y="516" on="1"/>
        <pt x="164" y="516" on="1"/>
        <pt x="164" y="314" on="1"/>
        <pt x="436" y="314" on="1"/>
        <pt x="436" y="516" on="1"/>
        <pt x="361" y="516" on="1"/>
        <pt x="361" y="563" on="1"/>
        <pt x="562" y="563" on="1"/>
        <pt x="562" y="516" on="1"/>
        <pt x="486" y="516" on="1"/>
        <pt x="486" y="47" on="1"/>
        <pt x="562" y="47" on="1"/>
        <pt x="562" y="0" on="1"/>
        <pt x="361" y="0" on="1"/>
        <pt x="361" y="47" on="1"/>
        <pt x="436" y="47" on="1"/>
        <pt x="436" y="267" on="1"/>
        <pt x="164" y="267" on="1"/>
        <pt x="164" y="47" on="1"/>
        <pt x="239" y="47" on="1"/>
        <pt x="239" y="0" on="1"/>
        <pt x="39" y="0" on="1"/>
        <pt x="39" y="47" on="1"/>
        <pt x="114" y="47" on="1"/>
        <pt x="114" y="516" on="1"/>
        <pt x="39" y="516" on="1"/>
      </contour>
    </TTGlyph>
    <TTGlyph name="Hbar" xMin="39" yMin="0" xMax="562" yMax="563">
      <contour>
        <pt x="164" y="445" on="1"/>
        <pt x="436" y="445" on="1"/>
        <pt x="436" y="516" on="1"/>
        <pt x="361" y="516" on="1"/>
        <pt x="361" y="563" on="1"/>
        <pt x="562" y="563" on="1"/>
        <pt x="562" y="516" on="1"/>
        <pt x="486" y="516" on="1"/>
        <pt x="486" y="445" on="1"/>
        <pt x="562" y="445" on="1"/>
        <pt x="562" y="398" on="1"/>
        <pt x="486" y="398" on="1"/>
        <pt x="486" y="47" on="1"/>
        <pt x="562" y="47" on="1"/>
        <pt x="562" y="0" on="1"/>
        <pt x="361" y="0" on="1"/>
        <pt x="361" y="47" on="1"/>
        <pt x="436" y="47" on="1"/>
        <pt x="436" y="267" on="1"/>
        <pt x="164" y="267" on="1"/>
        <pt x="164" y="47" on="1"/>
        <pt x="239" y="47" on="1"/>
        <pt x="239" y="0" on="1"/>
        <pt x="39" y="0" on="1"/>
        <pt x="39" y="47" on="1"/>
        <pt x="114" y="47" on="1"/>
        <pt x="114" y="398" on="1"/>
        <pt x="39" y="398" on="1"/>
        <pt x="39" y="445" on="1"/>
        <pt x="114" y="445" on="1"/>
        <pt x="114" y="516" on="1"/>
        <pt x="39" y="516" on="1"/>
        <pt x="39" y="563" on="1"/>
        <pt x="239" y="563" on="1"/>
        <pt x="239" y="516" on="1"/>
        <pt x="164" y="516" on="1"/>
      </contour>
      <contour>
        <pt x="436" y="398" on="1"/>
        <pt x="164" y="398" on="1"/>
        <pt x="164" y="314" on="1"/>
        <pt x="436" y="314" on="1"/>
      </contour>
    </TTGlyph>
    <TTGlyph name="Hcircumflex" xMin="39" yMin="0" xMax="562" yMax="754">
      <component glyphName="H" x="0" y="0" flags="0x1004"/>
      <component glyphName="circumflex" x="0" y="133" flags="0x1004"/>
    </TTGlyph>
    <TTGlyph name="I" xMin="100" yMin="0" xMax="500" yMax="563">
      <contour>
        <pt x="100" y="563" on="1"/>
        <pt x="500" y="563" on="1"/>
        <pt x="500" y="516" on="1"/>
        <pt x="325" y="516" on="1"/>
        <pt x="325" y="47" on="1"/>
        <pt x="500" y="47" on="1"/>
        <pt x="500" y="0" on="1"/>
        <pt x="100" y="0" on="1"/>
        <pt x="100" y="47" on="1"/>
        <pt x="275" y="47" on="1"/>
        <pt x="275" y="516" on="1"/>
        <pt x="100" y="516" on="1"/>
      </contour>
    </TTGlyph>
    <TTGlyph name="IJ" xMin="47" yMin="-17" xMax="569" yMax="563">
      <contour>
        <pt x="47" y="563" on="1"/>
        <pt x="272" y="563" on="1"/>
        <pt x="272" y="516" on="1"/>
        <pt x="184" y="516" on="1"/>
        <pt x="184" y="47" on="1"/>
        <pt x="272" y="47" on="1"/>
        <pt x="272" y="0" on="1"/>
        <pt x="47" y="0" on="1"/>
        <pt x="47" y="47" on="1"/>
        <pt x="134" y="47" on="1"/>
        <pt x="134" y="516" on="1"/>
        <pt x="47" y="516" on="1"/>
      </contour>
      <contour>
        <pt x="357" y="563" on="1"/>
        <pt x="569" y="563" on="1"/>
        <pt x="569" y="516" on="1"/>
        <pt x="505" y="516" on="1"/>
        <pt x="505" y="204" on="1"/>
        <pt x="505" y="171" on="0"/>
        <pt x="504" y="135" on="0"/>
        <pt x="499" y="74" on="0"/>
        <pt x="485" y="39" on="0"/>
        <pt x="464" y="1" on="0"/>
        <pt x="427" y="-17" on="0"/>
        <pt x="402" y="-17" on="1"/>
        <pt x="330" y="-17" on="0"/>
        <pt x="288" y="47" on="1"/>
        <pt x="283" y="215" on="1"/>
        <pt x="334" y="215" on="1"/>
        <pt x="334" y="166" on="1"/>
        <pt x="337" y="96" on="0"/>
        <pt x="345" y="60" on="0"/>
        <pt x="360" y="47" on="1"/>
        <pt x="375" y="33" on="0"/>
        <pt x="397" y="33" on="1"/>
        <pt x="433" y="33" on="0"/>
        <pt x="455" y="108" on="0"/>
        <pt x="455" y="204" on="1"/>
        <pt x="455" y="516" on="1"/>
        <pt x="357" y="516" on="1"/>
      </contour>
    </TTGlyph>
    <TTGlyph name="Iacute" xMin="100" yMin="0" xMax="500" yMax="751">
      <component glyphName="I" x="0" y="0" flags="0x1004"/>
      <component glyphName="acute" x="0" y="133" flags="0x1004"/>
    </TTGlyph>
    <TTGlyph name="Icircumflex" xMin="100" yMin="0" xMax="500" yMax="754">
      <component glyphName="I" x="0" y="0" flags="0x1004"/>
      <component glyphName="circumflex" x="0" y="133" flags="0x1004"/>
    </TTGlyph>
    <TTGlyph name="Idieresis" xMin="100" yMin="0" xMax="500" yMax="754">
      <component glyphName="I" x="0" y="0" flags="0x1004"/>
      <component glyphName="dieresis" x="0" y="133" flags="0x1004"/>
    </TTGlyph>
    <TTGlyph name="Idotaccent" xMin="100" yMin="0" xMax="500" yMax="754">
      <component glyphName="I" x="0" y="0" flags="0x1004"/>
      <component glyphName="dotaccent" x="0" y="133" flags="0x1004"/>
    </TTGlyph>
    <TTGlyph name="Igrave" xMin="100" yMin="0" xMax="500" yMax="751">
      <component glyphName="I" x="0" y="0" flags="0x1004"/>
      <component glyphName="grave" x="0" y="133" flags="0x1004"/>
    </TTGlyph>
    <TTGlyph name="Imacron" xMin="100" yMin="0" xMax="500" yMax="725">
      <component glyphName="I" x="0" y="0" flags="0x1004"/>
      <component glyphName="macron" x="0" y="133" flags="0x1004"/>
    </TTGlyph>
    <TTGlyph name="Iogonek" xMin="100" yMin="-117" xMax="500" yMax="563">
      <contour>
        <pt x="378" y="-40" on="1"/>
        <pt x="368" y="-93" on="1"/>
        <pt x="340" y="-117" on="0"/>
        <pt x="309" y="-117" on="1"/>
        <pt x="284" y="-117" on="0"/>
        <pt x="251" y="-83" on="0"/>
        <pt x="251" y="-59" on="1"/>
        <pt x="251" y="-25" on="0"/>
        <pt x="286" y="-2" on="1"/>
        <pt x="286" y="0" on="1"/>
        <pt x="100" y="0" on="1"/>
        <pt x="100" y="47" on="1"/>
        <pt x="275" y="47" on="1"/>
        <pt x="275" y="516" on="1"/>
        <pt x="100" y="516" on="1"/>
        <pt x="100" y="563" on="1"/>
        <pt x="500" y="563" on="1"/>
        <pt x="500" y="516" on="1"/>
        <pt x="325" y="516" on="1"/>
        <pt x="325" y="47" on="1"/>
        <pt x="500" y="47" on="1"/>
        <pt x="500" y="0" on="1"/>
        <pt x="369" y="0" on="1"/>
        <pt x="310" y="-18" on="0"/>
        <pt x="310" y="-46" on="1"/>
        <pt x="310" y="-55" on="0"/>
        <pt x="322" y="-65" on="0"/>
        <pt x="329" y="-65" on="1"/>
        <pt x="339" y="-65" on="0"/>
        <pt x="352" y="-58" on="0"/>
      </contour>
    </TTGlyph>
    <TTGlyph name="Itilde" xMin="100" yMin="0" xMax="500" yMax="753">
      <component glyphName="I" x="0" y="0" flags="0x1004"/>
      <component glyphName="tilde" x="0" y="133" flags="0x1004"/>
    </TTGlyph>
    <TTGlyph name="J" xMin="59" yMin="-17" xMax="579" yMax="563">
      <contour>
        <pt x="205" y="563" on="1"/>
        <pt x="579" y="563" on="1"/>
        <pt x="579" y="516" on="1"/>
        <pt x="452" y="516" on="1"/>
        <pt x="452" y="204" on="1"/>
        <pt x="452" y="91" on="0"/>
        <pt x="423" y="47" on="1"/>
        <pt x="401" y="15" on="0"/>
        <pt x="325" y="-17" on="0"/>
        <pt x="288" y="-17" on="1"/>
        <pt x="208" y="-17" on="0"/>
        <pt x="87" y="39" on="1"/>
        <pt x="68" y="47" on="1"/>
        <pt x="59" y="263" on="1"/>
        <pt x="108" y="263" on="1"/>
        <pt x="112" y="166" on="1"/>
        <pt x="114" y="124" on="0"/>
        <pt x="131" y="81" on="0"/>
        <pt x="159" y="64" on="1"/>
        <pt x="208" y="33" on="0"/>
        <pt x="277" y="33" on="1"/>
        <pt x="313" y="33" on="0"/>
        <pt x="362" y="55" on="0"/>
        <pt x="387" y="83" on="0"/>
        <pt x="400" y="137" on="0"/>
        <pt x="402" y="172" on="0"/>
        <pt x="402" y="204" on="1"/>
        <pt x="402" y="516" on="1"/>
        <pt x="205" y="516" on="1"/>
      </contour>
    </TTGlyph>
    <TTGlyph name="Jcircumflex" xMin="59" yMin="-17" xMax="579" yMax="754">
      <component glyphName="J" x="0" y="0" flags="0x1004"/>
      <component glyphName="circumflex" x="100" y="133" flags="0x1004"/>
    </TTGlyph>
    <TTGlyph name="K" xMin="60" yMin="0" xMax="588" yMax="563">
      <contour>
        <pt x="60" y="563" on="1"/>
        <pt x="279" y="563" on="1"/>
        <pt x="279" y="516" on="1"/>
        <pt x="194" y="516" on="1"/>
        <pt x="194" y="271" on="1"/>
        <pt x="446" y="516" on="1"/>
        <pt x="364" y="516" on="1"/>
        <pt x="364" y="563" on="1"/>
        <pt x="559" y="563" on="1"/>
        <pt x="559" y="516" on="1"/>
        <pt x="514" y="516" on="1"/>
        <pt x="297" y="305" on="1"/>
        <pt x="347" y="280" on="0"/>
        <pt x="443" y="169" on="0"/>
        <pt x="496" y="47" on="1"/>
        <pt x="588" y="47" on="1"/>
        <pt x="588" y="0" on="1"/>
        <pt x="460" y="0" on="1"/>
        <pt x="443" y="46" on="0"/>
        <pt x="395" y="135" on="1"/>
        <pt x="364" y="187" on="0"/>
        <pt x="305" y="250" on="0"/>
        <pt x="263" y="271" on="1"/>
        <pt x="194" y="205" on="1"/>
        <pt x="194" y="47" on="1"/>
        <pt x="279" y="47" on="1"/>
        <pt x="279" y="0" on="1"/>
        <pt x="60" y="0" on="1"/>
        <pt x="60" y="47" on="1"/>
        <pt x="144" y="47" on="1"/>
        <pt x="144" y="516" on="1"/>
        <pt x="60" y="516" on="1"/>
      </contour>
    </TTGlyph>
    <TTGlyph name="Kcedilla" xMin="60" yMin="-145" xMax="588" yMax="563">
      <contour>
        <pt x="60" y="563" on="1"/>
        <pt x="279" y="563" on="1"/>
        <pt x="279" y="516" on="1"/>
        <pt x="194" y="516" on="1"/>
        <pt x="194" y="271" on="1"/>
        <pt x="446" y="516" on="1"/>
        <pt x="364" y="516" on="1"/>
        <pt x="364" y="563" on="1"/>
        <pt x="559" y="563" on="1"/>
        <pt x="559" y="516" on="1"/>
        <pt x="514" y="516" on="1"/>
        <pt x="297" y="305" on="1"/>
        <pt x="347" y="280" on="0"/>
        <pt x="443" y="169" on="0"/>
        <pt x="496" y="47" on="1"/>
        <pt x="588" y="47" on="1"/>
        <pt x="588" y="0" on="1"/>
        <pt x="460" y="0" on="1"/>
        <pt x="443" y="46" on="0"/>
        <pt x="395" y="135" on="1"/>
        <pt x="364" y="187" on="0"/>
        <pt x="305" y="250" on="0"/>
        <pt x="263" y="271" on="1"/>
        <pt x="194" y="205" on="1"/>
        <pt x="194" y="47" on="1"/>
        <pt x="279" y="47" on="1"/>
        <pt x="279" y="0" on="1"/>
        <pt x="60" y="0" on="1"/>
        <pt x="60" y="47" on="1"/>
        <pt x="144" y="47" on="1"/>
        <pt x="144" y="516" on="1"/>
        <pt x="60" y="516" on="1"/>
      </contour>
      <contour>
        <pt x="349" y="0" on="1"/>
        <pt x="346" y="-25" on="1"/>
        <pt x="376" y="-29" on="0"/>
        <pt x="411" y="-59" on="0"/>
        <pt x="416" y="-79" on="0"/>
        <pt x="416" y="-87" on="1"/>
        <pt x="416" y="-94" on="0"/>
        <pt x="412" y="-109" on="0"/>
        <pt x="398" y="-131" on="0"/>
        <pt x="362" y="-145" on="0"/>
        <pt x="336" y="-145" on="1"/>
        <pt x="294" y="-145" on="0"/>
        <pt x="226" y="-130" on="1"/>
        <pt x="233" y="-86" on="1"/>
        <pt x="289" y="-100" on="0"/>
        <pt x="335" y="-100" on="1"/>
        <pt x="369" y="-100" on="0"/>
        <pt x="369" y="-74" on="0"/>
        <pt x="334" y="-65" on="0"/>
        <pt x="297" y="-62" on="1"/>
        <pt x="304" y="0" on="1"/>
      </contour>
    </TTGlyph>
    <TTGlyph name="L" xMin="59" yMin="0" xMax="553" yMax="563">
      <contour>
        <pt x="59" y="563" on="1"/>
        <pt x="332" y="563" on="1"/>
        <pt x="332" y="516" on="1"/>
        <pt x="209" y="516" on="1"/>
        <pt x="209" y="47" on="1"/>
        <pt x="492" y="47" on="1"/>
        <pt x="506" y="249" on="1"/>
        <pt x="553" y="249" on="1"/>
        <pt x="542" y="0" on="1"/>
        <pt x="59" y="0" on="1"/>
        <pt x="59" y="47" on="1"/>
        <pt x="159" y="47" on="1"/>
        <pt x="159" y="516" on="1"/>
        <pt x="59" y="516" on="1"/>
      </contour>
    </TTGlyph>
    <TTGlyph name="Lacute" xMin="59" yMin="0" xMax="553" yMax="751">
      <component glyphName="L" x="0" y="0" flags="0x1004"/>
      <component glyphName="acute" x="-100" y="133" flags="0x1004"/>
    </TTGlyph>
    <TTGlyph name="Lcaron" xMin="59" yMin="0" xMax="553" yMax="761">
      <component glyphName="L" x="0" y="0" flags="0x1004"/>
      <component glyphName="caron" x="-100" y="133" flags="0x1004"/>
    </TTGlyph>
    <TTGlyph name="Lcedilla" xMin="59" yMin="-145" xMax="553" yMax="563">
      <contour>
        <pt x="331" y="0" on="1"/>
        <pt x="328" y="-25" on="1"/>
        <pt x="357" y="-29" on="0"/>
        <pt x="391" y="-56" on="0"/>
        <pt x="398" y="-77" on="0"/>
        <pt x="398" y="-87" on="1"/>
        <pt x="398" y="-98" on="0"/>
        <pt x="392" y="-119" on="0"/>
        <pt x="353" y="-145" on="0"/>
        <pt x="318" y="-145" on="1"/>
        <pt x="276" y="-145" on="0"/>
        <pt x="208" y="-130" on="1"/>
        <pt x="215" y="-86" on="1"/>
        <pt x="271" y="-100" on="0"/>
        <pt x="318" y="-100" on="1"/>
        <pt x="351" y="-100" on="0"/>
        <pt x="351" y="-74" on="0"/>
        <pt x="316" y="-65" on="0"/>
        <pt x="280" y="-62" on="1"/>
        <pt x="287" y="0" on="1"/>
        <pt x="59" y="0" on="1"/>
        <pt x="59" y="47" on="1"/>
        <pt x="159" y="47" on="1"/>
        <pt x="159" y="516" on="1"/>
        <pt x="59" y="516" on="1"/>
        <pt x="59" y="563" on="1"/>
        <pt x="332" y="563" on="1"/>
        <pt x="332" y="516" on="1"/>
        <pt x="209" y="516" on="1"/>
        <pt x="209" y="47" on="1"/>
        <pt x="492" y="47" on="1"/>
        <pt x="506" y="249" on="1"/>
        <pt x="553" y="249" on="1"/>
        <pt x="542" y="0" on="1"/>
      </contour>
    </TTGlyph>
    <TTGlyph name="Ldot" xMin="59" yMin="0" xMax="553" yMax="563">
      <contour>
        <pt x="59" y="563" on="1"/>
        <pt x="332" y="563" on="1"/>
        <pt x="332" y="516" on="1"/>
        <pt x="209" y="516" on="1"/>
        <pt x="209" y="47" on="1"/>
        <pt x="492" y="47" on="1"/>
        <pt x="506" y="249" on="1"/>
        <pt x="553" y="249" on="1"/>
        <pt x="542" y="0" on="1"/>
        <pt x="59" y="0" on="1"/>
        <pt x="59" y="47" on="1"/>
        <pt x="159" y="47" on="1"/>
        <pt x="159" y="516" on="1"/>
        <pt x="59" y="516" on="1"/>
      </contour>
      <contour>
        <pt x="365" y="381" on="1"/>
        <pt x="394" y="381" on="0"/>
        <pt x="441" y="344" on="0"/>
        <pt x="441" y="314" on="1"/>
        <pt x="441" y="283" on="0"/>
        <pt x="394" y="246" on="0"/>
        <pt x="364" y="246" on="1"/>
        <pt x="335" y="246" on="0"/>
        <pt x="288" y="284" on="0"/>
        <pt x="288" y="344" on="0"/>
        <pt x="335" y="381" on="0"/>
      </contour>
    </TTGlyph>
    <TTGlyph name="Lquoteright" xMin="59" yMin="0" xMax="554" yMax="563">
      <contour>
        <pt x="59" y="563" on="1"/>
        <pt x="332" y="563" on="1"/>
        <pt x="332" y="516" on="1"/>
        <pt x="209" y="516" on="1"/>
        <pt x="209" y="47" on="1"/>
        <pt x="492" y="47" on="1"/>
        <pt x="506" y="249" on="1"/>
        <pt x="553" y="249" on="1"/>
        <pt x="542" y="0" on="1"/>
        <pt x="59" y="0" on="1"/>
        <pt x="59" y="47" on="1"/>
        <pt x="159" y="47" on="1"/>
        <pt x="159" y="516" on="1"/>
        <pt x="59" y="516" on="1"/>
      </contour>
      <contour>
        <pt x="450" y="563" on="1"/>
        <pt x="554" y="563" on="1"/>
        <pt x="445" y="320" on="1"/>
        <pt x="374" y="320" on="1"/>
      </contour>
    </TTGlyph>
    <TTGlyph name="Lslash" xMin="59" yMin="0" xMax="553" yMax="563">
      <contour>
        <pt x="209" y="321" on="1"/>
        <pt x="400" y="430" on="1"/>
        <pt x="423" y="390" on="1"/>
        <pt x="209" y="266" on="1"/>
        <pt x="209" y="47" on="1"/>
        <pt x="492" y="47" on="1"/>
        <pt x="506" y="249" on="1"/>
        <pt x="553" y="249" on="1"/>
        <pt x="542" y="0" on="1"/>
        <pt x="59" y="0" on="1"/>
        <pt x="59" y="47" on="1"/>
        <pt x="159" y="47" on="1"/>
        <pt x="159" y="244" on="1"/>
        <pt x="80" y="198" on="1"/>
        <pt x="59" y="239" on="1"/>
        <pt x="159" y="298" on="1"/>
        <pt x="159" y="516" on="1"/>
        <pt x="59" y="516" on="1"/>
        <pt x="59" y="563" on="1"/>
        <pt x="332" y="563" on="1"/>
        <pt x="332" y="516" on="1"/>
        <pt x="209" y="516" on="1"/>
      </contour>
    </TTGlyph>
    <TTGlyph name="M" xMin="1" yMin="0" xMax="599" yMax="563">
      <contour>
        <pt x="8" y="563" on="1"/>
        <pt x="175" y="563" on="1"/>
        <pt x="289" y="224" on="1"/>
        <pt x="307" y="224" on="1"/>
        <pt x="431" y="563" on="1"/>
        <pt x="592" y="563" on="1"/>
        <pt x="592" y="516" on="1"/>
        <pt x="521" y="516" on="1"/>
        <pt x="538" y="47" on="1"/>
        <pt x="599" y="47" on="1"/>
        <pt x="599" y="0" on="1"/>
        <pt x="387" y="0" on="1"/>
        <pt x="387" y="47" on="1"/>
        <pt x="494" y="47" on="1"/>
        <pt x="479" y="516" on="1"/>
        <pt x="461" y="516" on="1"/>
        <pt x="321" y="144" on="1"/>
        <pt x="269" y="144" on="1"/>
        <pt x="139" y="516" on="1"/>
        <pt x="121" y="516" on="1"/>
        <pt x="106" y="47" on="1"/>
        <pt x="213" y="47" on="1"/>
        <pt x="213" y="0" on="1"/>
        <pt x="1" y="0" on="1"/>
        <pt x="1" y="47" on="1"/>
        <pt x="62" y="47" on="1"/>
        <pt x="79" y="516" on="1"/>
        <pt x="8" y="516" on="1"/>
      </contour>
    </TTGlyph>
    <TTGlyph name="N" xMin="28" yMin="-13" xMax="591" yMax="563">
      <contour>
        <pt x="28" y="563" on="1"/>
        <pt x="199" y="563" on="1"/>
        <pt x="462" y="42" on="1"/>
        <pt x="480" y="42" on="1"/>
        <pt x="480" y="516" on="1"/>
        <pt x="368" y="516" on="1"/>
        <pt x="368" y="563" on="1"/>
        <pt x="591" y="563" on="1"/>
        <pt x="591" y="516" on="1"/>
        <pt x="526" y="516" on="1"/>
        <pt x="526" y="-13" on="1"/>
        <pt x="437" y="-13" on="1"/>
        <pt x="169" y="516" on="1"/>
        <pt x="152" y="516" on="1"/>
        <pt x="152" y="47" on="1"/>
        <pt x="265" y="47" on="1"/>
        <pt x="265" y="0" on="1"/>
        <pt x="28" y="0" on="1"/>
        <pt x="28" y="47" on="1"/>
        <pt x="106" y="47" on="1"/>
        <pt x="106" y="516" on="1"/>
        <pt x="28" y="516" on="1"/>
      </contour>
    </TTGlyph>
    <TTGlyph name="Nacute" xMin="28" yMin="-13" xMax="591" yMax="751">
      <component glyphName="N" x="0" y="0" flags="0x1004"/>
      <component glyphName="acute" x="0" y="133" flags="0x1004"/>
    </TTGlyph>
    <TTGlyph name="Ncaron" xMin="28" yMin="-13" xMax="591" yMax="761">
      <component glyphName="N" x="0" y="0" flags="0x1004"/>
      <component glyphName="caron" x="0" y="133" flags="0x1004"/>
    </TTGlyph>
    <TTGlyph name="Ncedilla" xMin="28" yMin="-145" xMax="591" yMax="563">
      <contour>
        <pt x="28" y="563" on="1"/>
        <pt x="199" y="563" on="1"/>
        <pt x="462" y="42" on="1"/>
        <pt x="480" y="42" on="1"/>
        <pt x="480" y="516" on="1"/>
        <pt x="368" y="516" on="1"/>
        <pt x="368" y="563" on="1"/>
        <pt x="591" y="563" on="1"/>
        <pt x="591" y="516" on="1"/>
        <pt x="526" y="516" on="1"/>
        <pt x="526" y="-13" on="1"/>
        <pt x="437" y="-13" on="1"/>
        <pt x="169" y="516" on="1"/>
        <pt x="152" y="516" on="1"/>
        <pt x="152" y="47" on="1"/>
        <pt x="265" y="47" on="1"/>
        <pt x="265" y="0" on="1"/>
        <pt x="28" y="0" on="1"/>
        <pt x="28" y="47" on="1"/>
        <pt x="106" y="47" on="1"/>
        <pt x="106" y="516" on="1"/>
        <pt x="28" y="516" on="1"/>
      </contour>
      <contour>
        <pt x="334" y="0" on="1"/>
        <pt x="331" y="-25" on="1"/>
        <pt x="362" y="-29" on="0"/>
        <pt x="397" y="-59" on="0"/>
        <pt x="402" y="-79" on="0"/>
        <pt x="402" y="-87" on="1"/>
        <pt x="402" y="-94" on="0"/>
        <pt x="398" y="-109" on="0"/>
        <pt x="384" y="-131" on="0"/>
        <pt x="348" y="-145" on="0"/>
        <pt x="321" y="-145" on="1"/>
        <pt x="278" y="-145" on="0"/>
        <pt x="211" y="-130" on="1"/>
        <pt x="219" y="-86" on="1"/>
        <pt x="273" y="-100" on="0"/>
        <pt x="321" y="-100" on="1"/>
        <pt x="355" y="-100" on="0"/>
        <pt x="355" y="-74" on="0"/>
        <pt x="320" y="-65" on="0"/>
        <pt x="283" y="-62" on="1"/>
        <pt x="290" y="0" on="1"/>
      </contour>
    </TTGlyph>
    <TTGlyph name="Ntilde" xMin="28" yMin="-13" xMax="591" yMax="753">
      <component glyphName="N" x="0" y="0" flags="0x1004"/>
      <component glyphName="tilde" x="0" y="133" flags="0x1004"/>
    </TTGlyph>
    <TTGlyph name="O" xMin="43" yMin="-17" xMax="557" yMax="580">
      <contour>
        <pt x="43" y="281" on="1"/>
        <pt x="43" y="408" on="0"/>
        <pt x="185" y="580" on="0"/>
        <pt x="300" y="580" on="1"/>
        <pt x="416" y="580" on="0"/>
        <pt x="557" y="407" on="0"/>
        <pt x="557" y="281" on="1"/>
        <pt x="557" y="156" on="0"/>
        <pt x="416" y="-17" on="0"/>
        <pt x="300" y="-17" on="1"/>
        <pt x="185" y="-17" on="0"/>
        <pt x="43" y="155" on="0"/>
      </contour>
      <contour>
        <pt x="97" y="282" on="1"/>
        <pt x="97" y="184" on="0"/>
        <pt x="206" y="33" on="0"/>
        <pt x="394" y="33" on="0"/>
        <pt x="503" y="182" on="0"/>
        <pt x="503" y="282" on="1"/>
        <pt x="503" y="383" on="0"/>
        <pt x="393" y="530" on="0"/>
        <pt x="300" y="530" on="1"/>
        <pt x="204" y="530" on="0"/>
        <pt x="97" y="379" on="0"/>
      </contour>
    </TTGlyph>
    <TTGlyph name="OE" xMin="16" yMin="0" xMax="550" yMax="563">
      <contour>
        <pt x="279" y="563" on="1"/>
        <pt x="537" y="563" on="1"/>
        <pt x="537" y="383" on="1"/>
        <pt x="493" y="383" on="1"/>
        <pt x="484" y="516" on="1"/>
        <pt x="352" y="516" on="1"/>
        <pt x="352" y="322" on="1"/>
        <pt x="417" y="322" on="1"/>
        <pt x="417" y="395" on="1"/>
        <pt x="463" y="395" on="1"/>
        <pt x="463" y="202" on="1"/>
        <pt x="417" y="202" on="1"/>
        <pt x="417" y="275" on="1"/>
        <pt x="352" y="275" on="1"/>
        <pt x="352" y="47" on="1"/>
        <pt x="498" y="47" on="1"/>
        <pt x="504" y="185" on="1"/>
        <pt x="550" y="185" on="1"/>
        <pt x="550" y="0" on="1"/>
        <pt x="242" y="0" on="1"/>
        <pt x="169" y="0" on="0"/>
        <pt x="62" y="92" on="0"/>
        <pt x="16" y="214" on="0"/>
        <pt x="16" y="277" on="1"/>
        <pt x="16" y="399" on="0"/>
        <pt x="162" y="563" on="0"/>
      </contour>
      <contour>
        <pt x="302" y="47" on="1"/>
        <pt x="302" y="516" on="1"/>
        <pt x="276" y="516" on="1"/>
        <pt x="180" y="516" on="0"/>
        <pt x="70" y="380" on="0"/>
        <pt x="70" y="280" on="1"/>
        <pt x="70" y="241" on="0"/>
        <pt x="92" y="163" on="0"/>
        <pt x="134" y="92" on="0"/>
        <pt x="210" y="47" on="0"/>
        <pt x="258" y="47" on="1"/>
      </contour>
    </TTGlyph>
    <TTGlyph name="Oacute" xMin="43" yMin="-17" xMax="557" yMax="751">
      <component glyphName="O" x="0" y="0" flags="0x1004"/>
      <component glyphName="acute" x="0" y="133" flags="0x1004"/>
    </TTGlyph>
    <TTGlyph name="Ocircumflex" xMin="43" yMin="-17" xMax="557" yMax="754">
      <component glyphName="O" x="0" y="0" flags="0x1004"/>
      <component glyphName="circumflex" x="0" y="133" flags="0x1004"/>
    </TTGlyph>
    <TTGlyph name="Odieresis" xMin="43" yMin="-17" xMax="557" yMax="754">
      <component glyphName="O" x="0" y="0" flags="0x1004"/>
      <component glyphName="dieresis" x="0" y="133" flags="0x1004"/>
    </TTGlyph>
    <TTGlyph name="Ograve" xMin="43" yMin="-17" xMax="557" yMax="751">
      <component glyphName="O" x="0" y="0" flags="0x1004"/>
      <component glyphName="grave" x="0" y="133" flags="0x1004"/>
    </TTGlyph>
    <TTGlyph name="Ohungarumlaut" xMin="43" yMin="-17" xMax="557" yMax="750">
      <component glyphName="O" x="0" y="0" flags="0x1004"/>
      <component glyphName="hungarumlaut" x="0" y="133" flags="0x1004"/>
    </TTGlyph>
    <TTGlyph name="Omacron" xMin="43" yMin="-17" xMax="557" yMax="725">
      <component glyphName="O" x="0" y="0" flags="0x1004"/>
      <component glyphName="macron" x="0" y="133" flags="0x1004"/>
    </TTGlyph>
    <TTGlyph name="Omega" xMin="29" yMin="0" xMax="571" yMax="580">
      <contour>
        <pt x="32" y="0" on="1"/>
        <pt x="32" y="103" on="1"/>
        <pt x="79" y="103" on="1"/>
        <pt x="79" y="47" on="1"/>
        <pt x="206" y="47" on="1"/>
        <pt x="206" y="85" on="1"/>
        <pt x="144" y="102" on="0"/>
        <pt x="108" y="134" on="1"/>
        <pt x="29" y="207" on="0"/>
        <pt x="29" y="321" on="1"/>
        <pt x="29" y="432" on="0"/>
        <pt x="187" y="580" on="0"/>
        <pt x="413" y="580" on="0"/>
        <pt x="571" y="431" on="0"/>
        <pt x="571" y="320" on="1"/>
        <pt x="571" y="205" on="0"/>
        <pt x="492" y="133" on="1"/>
        <pt x="470" y="113" on="0"/>
        <pt x="429" y="94" on="0"/>
        <pt x="394" y="85" on="1"/>
        <pt x="394" y="47" on="1"/>
        <pt x="521" y="47" on="1"/>
        <pt x="521" y="103" on="1"/>
        <pt x="568" y="103" on="1"/>
        <pt x="568" y="0" on="1"/>
        <pt x="347" y="0" on="1"/>
        <pt x="347" y="118" on="1"/>
        <pt x="518" y="157" on="0"/>
        <pt x="518" y="315" on="1"/>
        <pt x="518" y="414" on="0"/>
        <pt x="384" y="533" on="0"/>
        <pt x="216" y="533" on="0"/>
        <pt x="82" y="413" on="0"/>
        <pt x="82" y="315" on="1"/>
        <pt x="82" y="154" on="0"/>
        <pt x="253" y="118" on="1"/>
        <pt x="253" y="0" on="1"/>
      </contour>
    </TTGlyph>
    <TTGlyph name="Oslash" xMin="43" yMin="-23" xMax="557" yMax="580">
      <contour>
        <pt x="148" y="37" on="1"/>
        <pt x="98" y="-23" on="1"/>
        <pt x="64" y="4" on="1"/>
        <pt x="114" y="69" on="1"/>
        <pt x="43" y="162" on="0"/>
        <pt x="43" y="280" on="1"/>
        <pt x="43" y="407" on="0"/>
        <pt x="185" y="580" on="0"/>
        <pt x="301" y="580" on="1"/>
        <pt x="390" y="580" on="0"/>
        <pt x="463" y="518" on="1"/>
        <pt x="502" y="567" on="1"/>
        <pt x="537" y="541" on="1"/>
        <pt x="493" y="485" on="1"/>
        <pt x="557" y="408" on="0"/>
        <pt x="557" y="279" on="1"/>
        <pt x="557" y="156" on="0"/>
        <pt x="417" y="-17" on="0"/>
        <pt x="304" y="-17" on="1"/>
        <pt x="213" y="-17" on="0"/>
      </contour>
      <contour>
        <pt x="459" y="441" on="1"/>
        <pt x="177" y="78" on="1"/>
        <pt x="231" y="33" on="0"/>
        <pt x="300" y="33" on="1"/>
        <pt x="390" y="33" on="0"/>
        <pt x="503" y="176" on="0"/>
        <pt x="503" y="280" on="1"/>
        <pt x="503" y="369" on="0"/>
      </contour>
      <contour>
        <pt x="148" y="112" on="1"/>
        <pt x="431" y="477" on="1"/>
        <pt x="385" y="530" on="0"/>
        <pt x="299" y="530" on="1"/>
        <pt x="208" y="530" on="0"/>
        <pt x="97" y="382" on="0"/>
        <pt x="97" y="283" on="1"/>
        <pt x="97" y="244" on="0"/>
        <pt x="121" y="145" on="0"/>
      </contour>
    </TTGlyph>
    <TTGlyph name="Otilde" xMin="43" yMin="-17" xMax="557" yMax="753">
      <component glyphName="O" x="0" y="0" flags="0x1004"/>
      <component glyphName="tilde" x="0" y="133" flags="0x1004"/>
    </TTGlyph>
    <TTGlyph name="P" xMin="71" yMin="0" xMax="534" yMax="563">
      <contour>
        <pt x="71" y="563" on="1"/>
        <pt x="300" y="563" on="1"/>
        <pt x="401" y="563" on="0"/>
        <pt x="448" y="537" on="1"/>
        <pt x="486" y="516" on="0"/>
        <pt x="534" y="434" on="0"/>
        <pt x="534" y="388" on="1"/>
        <pt x="534" y="346" on="0"/>
        <pt x="493" y="269" on="0"/>
        <pt x="461" y="251" on="1"/>
        <pt x="426" y="231" on="0"/>
        <pt x="353" y="221" on="0"/>
        <pt x="258" y="221" on="1"/>
        <pt x="202" y="221" on="1"/>
        <pt x="202" y="47" on="1"/>
        <pt x="349" y="47" on="1"/>
        <pt x="349" y="0" on="1"/>
        <pt x="71" y="0" on="1"/>
        <pt x="71" y="47" on="1"/>
        <pt x="152" y="47" on="1"/>
        <pt x="152" y="516" on="1"/>
        <pt x="71" y="516" on="1"/>
      </contour>
      <contour>
        <pt x="300" y="516" on="1"/>
        <pt x="202" y="516" on="1"/>
        <pt x="202" y="268" on="1"/>
        <pt x="259" y="268" on="1"/>
        <pt x="314" y="268" on="0"/>
        <pt x="360" y="269" on="0"/>
        <pt x="422" y="282" on="0"/>
        <pt x="438" y="295" on="1"/>
        <pt x="480" y="328" on="0"/>
        <pt x="480" y="390" on="1"/>
        <pt x="480" y="428" on="0"/>
        <pt x="444" y="484" on="0"/>
        <pt x="420" y="496" on="1"/>
        <pt x="383" y="516" on="0"/>
      </contour>
    </TTGlyph>
    <TTGlyph name="Phi" xMin="43" yMin="0" xMax="557" yMax="563">
      <contour>
        <pt x="409" y="563" on="1"/>
        <pt x="409" y="516" on="1"/>
        <pt x="324" y="516" on="1"/>
        <pt x="324" y="474" on="1"/>
        <pt x="389" y="473" on="0"/>
        <pt x="484" y="437" on="0"/>
        <pt x="534" y="379" on="0"/>
        <pt x="557" y="316" on="0"/>
        <pt x="557" y="248" on="0"/>
        <pt x="535" y="186" on="0"/>
        <pt x="485" y="126" on="0"/>
        <pt x="389" y="90" on="0"/>
        <pt x="324" y="89" on="1"/>
        <pt x="324" y="47" on="1"/>
        <pt x="409" y="47" on="1"/>
        <pt x="409" y="0" on="1"/>
        <pt x="190" y="0" on="1"/>
        <pt x="190" y="47" on="1"/>
        <pt x="274" y="47" on="1"/>
        <pt x="274" y="89" on="1"/>
        <pt x="211" y="90" on="0"/>
        <pt x="117" y="126" on="0"/>
        <pt x="66" y="184" on="0"/>
        <pt x="43" y="247" on="0"/>
        <pt x="43" y="281" on="1"/>
        <pt x="43" y="359" on="0"/>
        <pt x="154" y="472" on="0"/>
        <pt x="274" y="474" on="1"/>
        <pt x="274" y="516" on="1"/>
        <pt x="190" y="516" on="1"/>
        <pt x="190" y="563" on="1"/>
      </contour>
      <contour>
        <pt x="324" y="430" on="1"/>
        <pt x="324" y="135" on="1"/>
        <pt x="504" y="139" on="0"/>
        <pt x="504" y="283" on="1"/>
        <pt x="504" y="426" on="0"/>
      </contour>
      <contour>
        <pt x="274" y="135" on="1"/>
        <pt x="274" y="430" on="1"/>
        <pt x="96" y="426" on="0"/>
        <pt x="96" y="283" on="1"/>
        <pt x="96" y="139" on="0"/>
      </contour>
    </TTGlyph>
    <TTGlyph name="Pts" xMin="3" yMin="-7" xMax="597" yMax="563">
      <contour>
        <pt x="3" y="563" on="1"/>
        <pt x="220" y="563" on="1"/>
        <pt x="347" y="563" on="0"/>
        <pt x="399" y="525" on="1"/>
        <pt x="453" y="485" on="0"/>
        <pt x="453" y="428" on="1"/>
        <pt x="453" y="380" on="0"/>
        <pt x="409" y="341" on="1"/>
        <pt x="376" y="313" on="0"/>
        <pt x="278" y="300" on="0"/>
        <pt x="177" y="300" on="1"/>
        <pt x="120" y="300" on="1"/>
        <pt x="120" y="47" on="1"/>
        <pt x="200" y="47" on="1"/>
        <pt x="200" y="0" on="1"/>
        <pt x="3" y="0" on="1"/>
        <pt x="3" y="47" on="1"/>
        <pt x="72" y="47" on="1"/>
        <pt x="72" y="516" on="1"/>
        <pt x="3" y="516" on="1"/>
      </contour>
      <contour>
        <pt x="220" y="516" on="1"/>
        <pt x="120" y="516" on="1"/>
        <pt x="120" y="347" on="1"/>
        <pt x="178" y="347" on="1"/>
        <pt x="259" y="347" on="0"/>
        <pt x="343" y="356" on="0"/>
        <pt x="367" y="373" on="1"/>
        <pt x="401" y="397" on="0"/>
        <pt x="401" y="430" on="1"/>
        <pt x="401" y="465" on="0"/>
        <pt x="361" y="491" on="1"/>
        <pt x="321" y="516" on="0"/>
      </contour>
      <contour>
        <pt x="220" y="274" on="1"/>
        <pt x="265" y="274" on="1"/>
        <pt x="265" y="222" on="1"/>
        <pt x="376" y="222" on="1"/>
        <pt x="376" y="178" on="1"/>
        <pt x="265" y="178" on="1"/>
        <pt x="265" y="98" on="1"/>
        <pt x="265" y="77" on="0"/>
        <pt x="267" y="58" on="0"/>
        <pt x="281" y="40" on="0"/>
        <pt x="295" y="40" on="1"/>
        <pt x="310" y="40" on="0"/>
        <pt x="342" y="53" on="1"/>
        <pt x="347" y="55" on="0"/>
        <pt x="366" y="63" on="0"/>
        <pt x="368" y="63" on="1"/>
        <pt x="381" y="19" on="1"/>
        <pt x="322" y="-7" on="0"/>
        <pt x="289" y="-7" on="1"/>
        <pt x="220" y="-7" on="0"/>
        <pt x="220" y="98" on="1"/>
        <pt x="220" y="178" on="1"/>
        <pt x="187" y="178" on="1"/>
        <pt x="187" y="222" on="1"/>
        <pt x="220" y="222" on="1"/>
      </contour>
      <contour>
        <pt x="541" y="234" on="1"/>
        <pt x="584" y="227" on="1"/>
        <pt x="581" y="203" on="0"/>
        <pt x="581" y="185" on="1"/>
        <pt x="581" y="178" on="0"/>
        <pt x="584" y="148" on="1"/>
        <pt x="541" y="143" on="1"/>
        <pt x="540" y="151" on="0"/>
        <pt x="536" y="162" on="0"/>
        <pt x="526" y="177" on="0"/>
        <pt x="503" y="185" on="0"/>
        <pt x="485" y="185" on="1"/>
        <pt x="471" y="185" on="0"/>
        <pt x="443" y="172" on="0"/>
        <pt x="443" y="160" on="1"/>
        <pt x="443" y="138" on="0"/>
        <pt x="501" y="134" on="1"/>
        <pt x="514" y="134" on="0"/>
        <pt x="518" y="132" on="1"/>
        <pt x="597" y="124" on="0"/>
        <pt x="597" y="68" on="1"/>
        <pt x="597" y="32" on="0"/>
        <pt x="534" y="-7" on="0"/>
        <pt x="497" y="-7" on="1"/>
        <pt x="473" y="-7" on="0"/>
        <pt x="439" y="5" on="1"/>
        <pt x="439" y="-6" on="1"/>
        <pt x="397" y="-6" on="1"/>
        <pt x="401" y="18" on="0"/>
        <pt x="401" y="25" on="1"/>
        <pt x="401" y="42" on="0"/>
        <pt x="397" y="81" on="1"/>
        <pt x="439" y="86" on="1"/>
        <pt x="444" y="70" on="0"/>
        <pt x="451" y="54" on="0"/>
        <pt x="476" y="39" on="0"/>
        <pt x="498" y="39" on="1"/>
        <pt x="517" y="39" on="0"/>
        <pt x="550" y="53" on="0"/>
        <pt x="550" y="67" on="1"/>
        <pt x="550" y="74" on="0"/>
        <pt x="545" y="81" on="0"/>
        <pt x="529" y="86" on="0"/>
        <pt x="516" y="87" on="0"/>
        <pt x="500" y="88" on="1"/>
        <pt x="397" y="96" on="0"/>
        <pt x="397" y="159" on="1"/>
        <pt x="397" y="190" on="0"/>
        <pt x="453" y="229" on="0"/>
        <pt x="489" y="229" on="1"/>
        <pt x="511" y="229" on="0"/>
        <pt x="541" y="222" on="1"/>
        <pt x="538" y="228" on="1"/>
      </contour>
    </TTGlyph>
    <TTGlyph name="Q" xMin="43" yMin="-128" xMax="557" yMax="580">
      <contour>
        <pt x="516" y="-52" on="1"/>
        <pt x="547" y="-88" on="1"/>
        <pt x="490" y="-128" on="0"/>
        <pt x="446" y="-128" on="1"/>
        <pt x="415" y="-128" on="0"/>
        <pt x="361" y="-104" on="1"/>
        <pt x="316" y="-84" on="0"/>
        <pt x="283" y="-84" on="1"/>
        <pt x="253" y="-84" on="0"/>
        <pt x="207" y="-102" on="0"/>
        <pt x="165" y="-125" on="1"/>
        <pt x="142" y="-88" on="1"/>
        <pt x="196" y="-53" on="0"/>
        <pt x="227" y="-7" on="1"/>
        <pt x="143" y="19" on="0"/>
        <pt x="43" y="177" on="0"/>
        <pt x="43" y="281" on="1"/>
        <pt x="43" y="418" on="0"/>
        <pt x="193" y="580" on="0"/>
        <pt x="299" y="580" on="1"/>
        <pt x="409" y="580" on="0"/>
        <pt x="557" y="412" on="0"/>
        <pt x="557" y="277" on="1"/>
        <pt x="557" y="223" on="0"/>
        <pt x="528" y="123" on="0"/>
        <pt x="468" y="34" on="0"/>
        <pt x="357" y="-18" on="0"/>
        <pt x="283" y="-17" on="1"/>
        <pt x="280" y="-21" on="0"/>
        <pt x="276" y="-25" on="1"/>
        <pt x="272" y="-29" on="0"/>
        <pt x="267" y="-34" on="1"/>
        <pt x="266" y="-35" on="0"/>
        <pt x="265" y="-36" on="1"/>
        <pt x="263" y="-36" on="1"/>
        <pt x="263" y="-38" on="1"/>
        <pt x="265" y="-38" on="0"/>
        <pt x="279" y="-37" on="0"/>
        <pt x="285" y="-37" on="1"/>
        <pt x="324" y="-37" on="0"/>
        <pt x="373" y="-57" on="1"/>
        <pt x="425" y="-78" on="0"/>
        <pt x="442" y="-78" on="1"/>
        <pt x="477" y="-78" on="0"/>
      </contour>
      <contour>
        <pt x="97" y="282" on="1"/>
        <pt x="97" y="184" on="0"/>
        <pt x="206" y="33" on="0"/>
        <pt x="394" y="33" on="0"/>
        <pt x="503" y="182" on="0"/>
        <pt x="503" y="282" on="1"/>
        <pt x="503" y="383" on="0"/>
        <pt x="393" y="530" on="0"/>
        <pt x="300" y="530" on="1"/>
        <pt x="204" y="530" on="0"/>
        <pt x="97" y="379" on="0"/>
      </contour>
    </TTGlyph>
    <TTGlyph name="R" xMin="45" yMin="0" xMax="577" yMax="563">
      <contour>
        <pt x="45" y="563" on="1"/>
        <pt x="302" y="563" on="1"/>
        <pt x="355" y="563" on="0"/>
        <pt x="413" y="553" on="0"/>
        <pt x="438" y="536" on="1"/>
        <pt x="464" y="518" on="0"/>
        <pt x="499" y="448" on="0"/>
        <pt x="499" y="412" on="1"/>
        <pt x="499" y="359" on="0"/>
        <pt x="425" y="267" on="0"/>
        <pt x="346" y="259" on="1"/>
        <pt x="382" y="225" on="0"/>
        <pt x="489" y="47" on="1"/>
        <pt x="577" y="47" on="1"/>
        <pt x="577" y="0" on="1"/>
        <pt x="452" y="0" on="1"/>
        <pt x="418" y="74" on="0"/>
        <pt x="356" y="171" on="1"/>
        <pt x="332" y="208" on="0"/>
        <pt x="310" y="237" on="0"/>
        <pt x="274" y="258" on="0"/>
        <pt x="249" y="258" on="1"/>
        <pt x="177" y="258" on="1"/>
        <pt x="177" y="47" on="1"/>
        <pt x="266" y="47" on="1"/>
        <pt x="266" y="0" on="1"/>
        <pt x="45" y="0" on="1"/>
        <pt x="45" y="47" on="1"/>
        <pt x="127" y="47" on="1"/>
        <pt x="127" y="516" on="1"/>
        <pt x="45" y="516" on="1"/>
      </contour>
      <contour>
        <pt x="300" y="516" on="1"/>
        <pt x="177" y="516" on="1"/>
        <pt x="177" y="305" on="1"/>
        <pt x="270" y="305" on="1"/>
        <pt x="295" y="305" on="0"/>
        <pt x="324" y="306" on="0"/>
        <pt x="383" y="317" on="0"/>
        <pt x="417" y="338" on="0"/>
        <pt x="445" y="383" on="0"/>
        <pt x="445" y="415" on="1"/>
        <pt x="445" y="470" on="0"/>
        <pt x="403" y="499" on="1"/>
        <pt x="378" y="516" on="0"/>
      </contour>
    </TTGlyph>
    <TTGlyph name="Racute" xMin="45" yMin="0" xMax="577" yMax="751">
      <component glyphName="R" x="0" y="0" flags="0x1004"/>
      <component glyphName="acute" x="0" y="133" flags="0x1004"/>
    </TTGlyph>
    <TTGlyph name="Rcaron" xMin="45" yMin="0" xMax="577" yMax="761">
      <component glyphName="R" x="0" y="0" flags="0x1004"/>
      <component glyphName="caron" x="0" y="133" flags="0x1004"/>
    </TTGlyph>
    <TTGlyph name="Rcedilla" xMin="45" yMin="-145" xMax="577" yMax="563">
      <contour>
        <pt x="45" y="563" on="1"/>
        <pt x="302" y="563" on="1"/>
        <pt x="355" y="563" on="0"/>
        <pt x="413" y="553" on="0"/>
        <pt x="438" y="536" on="1"/>
        <pt x="464" y="518" on="0"/>
        <pt x="499" y="448" on="0"/>
        <pt x="499" y="412" on="1"/>
        <pt x="499" y="359" on="0"/>
        <pt x="425" y="267" on="0"/>
        <pt x="346" y="259" on="1"/>
        <pt x="382" y="225" on="0"/>
        <pt x="489" y="47" on="1"/>
        <pt x="577" y="47" on="1"/>
        <pt x="577" y="0" on="1"/>
        <pt x="452" y="0" on="1"/>
        <pt x="418" y="74" on="0"/>
        <pt x="356" y="171" on="1"/>
        <pt x="332" y="208" on="0"/>
        <pt x="310" y="237" on="0"/>
        <pt x="274" y="258" on="0"/>
        <pt x="249" y="258" on="1"/>
        <pt x="177" y="258" on="1"/>
        <pt x="177" y="47" on="1"/>
        <pt x="266" y="47" on="1"/>
        <pt x="266" y="0" on="1"/>
        <pt x="45" y="0" on="1"/>
        <pt x="45" y="47" on="1"/>
        <pt x="127" y="47" on="1"/>
        <pt x="127" y="516" on="1"/>
        <pt x="45" y="516" on="1"/>
      </contour>
      <contour>
        <pt x="300" y="516" on="1"/>
        <pt x="177" y="516" on="1"/>
        <pt x="177" y="305" on="1"/>
        <pt x="270" y="305" on="1"/>
        <pt x="295" y="305" on="0"/>
        <pt x="324" y="306" on="0"/>
        <pt x="383" y="317" on="0"/>
        <pt x="417" y="338" on="0"/>
        <pt x="445" y="383" on="0"/>
        <pt x="445" y="415" on="1"/>
        <pt x="445" y="470" on="0"/>
        <pt x="403" y="499" on="1"/>
        <pt x="378" y="516" on="0"/>
      </contour>
      <contour>
        <pt x="336" y="0" on="1"/>
        <pt x="333" y="-25" on="1"/>
        <pt x="364" y="-29" on="0"/>
        <pt x="399" y="-59" on="0"/>
        <pt x="404" y="-79" on="0"/>
        <pt x="404" y="-87" on="1"/>
        <pt x="404" y="-94" on="0"/>
        <pt x="400" y="-109" on="0"/>
        <pt x="386" y="-131" on="0"/>
        <pt x="350" y="-145" on="0"/>
        <pt x="323" y="-145" on="1"/>
        <pt x="280" y="-145" on="0"/>
        <pt x="213" y="-130" on="1"/>
        <pt x="221" y="-86" on="1"/>
        <pt x="275" y="-100" on="0"/>
        <pt x="323" y="-100" on="1"/>
        <pt x="357" y="-100" on="0"/>
        <pt x="357" y="-74" on="0"/>
        <pt x="322" y="-65" on="0"/>
        <pt x="285" y="-62" on="1"/>
        <pt x="292" y="0" on="1"/>
      </contour>
    </TTGlyph>
    <TTGlyph name="S" xMin="99" yMin="-20" xMax="513" yMax="580">
      <contour>
        <pt x="462" y="574" on="1"/>
        <pt x="507" y="574" on="1"/>
        <pt x="498" y="535" on="0"/>
        <pt x="498" y="502" on="1"/>
        <pt x="498" y="456" on="0"/>
        <pt x="507" y="383" on="1"/>
        <pt x="462" y="375" on="1"/>
        <pt x="454" y="434" on="0"/>
        <pt x="431" y="469" on="1"/>
        <pt x="391" y="530" on="0"/>
        <pt x="304" y="530" on="1"/>
        <pt x="232" y="530" on="0"/>
        <pt x="153" y="456" on="0"/>
        <pt x="153" y="412" on="1"/>
        <pt x="153" y="380" on="0"/>
        <pt x="184" y="336" on="0"/>
        <pt x="241" y="315" on="0"/>
        <pt x="277" y="308" on="0"/>
        <pt x="305" y="305" on="1"/>
        <pt x="368" y="298" on="0"/>
        <pt x="427" y="285" on="0"/>
        <pt x="451" y="269" on="1"/>
        <pt x="513" y="227" on="0"/>
        <pt x="513" y="153" on="1"/>
        <pt x="513" y="72" on="0"/>
        <pt x="389" y="-17" on="0"/>
        <pt x="308" y="-17" on="1"/>
        <pt x="226" y="-17" on="0"/>
        <pt x="171" y="29" on="1"/>
        <pt x="167" y="33" on="0"/>
        <pt x="163" y="33" on="1"/>
        <pt x="158" y="33" on="0"/>
        <pt x="153" y="25" on="1"/>
        <pt x="149" y="13" on="0"/>
        <pt x="144" y="-20" on="1"/>
        <pt x="99" y="-20" on="1"/>
        <pt x="108" y="23" on="0"/>
        <pt x="108" y="69" on="1"/>
        <pt x="108" y="91" on="0"/>
        <pt x="99" y="175" on="1"/>
        <pt x="144" y="175" on="1"/>
        <pt x="156" y="115" on="0"/>
        <pt x="178" y="86" on="1"/>
        <pt x="218" y="33" on="0"/>
        <pt x="384" y="33" on="0"/>
        <pt x="459" y="103" on="0"/>
        <pt x="459" y="149" on="1"/>
        <pt x="459" y="174" on="0"/>
        <pt x="439" y="211" on="0"/>
        <pt x="412" y="232" on="0"/>
        <pt x="369" y="246" on="0"/>
        <pt x="341" y="250" on="0"/>
        <pt x="320" y="252" on="1"/>
        <pt x="286" y="255" on="0"/>
        <pt x="245" y="261" on="0"/>
        <pt x="174" y="283" on="0"/>
        <pt x="132" y="313" on="0"/>
        <pt x="99" y="370" on="0"/>
        <pt x="99" y="408" on="1"/>
        <pt x="99" y="478" on="0"/>
        <pt x="214" y="580" on="0"/>
        <pt x="298" y="580" on="1"/>
        <pt x="370" y="580" on="0"/>
        <pt x="422" y="539" on="1"/>
        <pt x="441" y="525" on="0"/>
        <pt x="445" y="525" on="1"/>
        <pt x="451" y="525" on="0"/>
        <pt x="455" y="535" on="0"/>
        <pt x="460" y="561" on="1"/>
        <pt x="462" y="569" on="0"/>
      </contour>
    </TTGlyph>
    <TTGlyph name="SF010000" xMin="264" yMin="-288" xMax="600" yMax="288">
      <contour>
        <pt x="336" y="216" on="1"/>
        <pt x="336" y="-288" on="1"/>
        <pt x="264" y="-288" on="1"/>
        <pt x="264" y="288" on="1"/>
        <pt x="600" y="288" on="1"/>
        <pt x="600" y="216" on="1"/>
      </contour>
    </TTGlyph>
    <TTGlyph name="SF020000" xMin="264" yMin="216" xMax="600" yMax="792">
      <contour>
        <pt x="336" y="288" on="1"/>
        <pt x="600" y="288" on="1"/>
        <pt x="600" y="216" on="1"/>
        <pt x="264" y="216" on="1"/>
        <pt x="264" y="792" on="1"/>
        <pt x="336" y="792" on="1"/>
      </contour>
    </TTGlyph>
    <TTGlyph name="SF030000" xMin="0" yMin="-288" xMax="336" yMax="288">
      <contour>
        <pt x="0" y="216" on="1"/>
        <pt x="0" y="288" on="1"/>
        <pt x="336" y="288" on="1"/>
        <pt x="336" y="-288" on="1"/>
        <pt x="264" y="-288" on="1"/>
        <pt x="264" y="216" on="1"/>
      </contour>
    </TTGlyph>
    <TTGlyph name="SF040000" xMin="0" yMin="216" xMax="336" yMax="792">
      <contour>
        <pt x="264" y="288" on="1"/>
        <pt x="264" y="792" on="1"/>
        <pt x="336" y="792" on="1"/>
        <pt x="336" y="216" on="1"/>
        <pt x="0" y="216" on="1"/>
        <pt x="0" y="288" on="1"/>
      </contour>
    </TTGlyph>
    <TTGlyph name="SF050000" xMin="0" yMin="-288" xMax="600" yMax="792">
      <contour>
        <pt x="336" y="288" on="1"/>
        <pt x="600" y="288" on="1"/>
        <pt x="600" y="216" on="1"/>
        <pt x="336" y="216" on="1"/>
        <pt x="336" y="-288" on="1"/>
        <pt x="264" y="-288" on="1"/>
        <pt x="264" y="216" on="1"/>
        <pt x="0" y="216" on="1"/>
        <pt x="0" y="288" on="1"/>
        <pt x="264" y="288" on="1"/>
        <pt x="264" y="792" on="1"/>
        <pt x="336" y="792" on="1"/>
      </contour>
    </TTGlyph>
    <TTGlyph name="SF060000" xMin="0" yMin="-288" xMax="600" yMax="288">
      <contour>
        <pt x="336" y="216" on="1"/>
        <pt x="336" y="-288" on="1"/>
        <pt x="264" y="-288" on="1"/>
        <pt x="264" y="216" on="1"/>
        <pt x="0" y="216" on="1"/>
        <pt x="0" y="288" on="1"/>
        <pt x="600" y="288" on="1"/>
        <pt x="600" y="216" on="1"/>
      </contour>
    </TTGlyph>
    <TTGlyph name="SF070000" xMin="0" yMin="216" xMax="600" yMax="792">
      <contour>
        <pt x="336" y="288" on="1"/>
        <pt x="600" y="288" on="1"/>
        <pt x="600" y="216" on="1"/>
        <pt x="0" y="216" on="1"/>
        <pt x="0" y="288" on="1"/>
        <pt x="264" y="288" on="1"/>
        <pt x="264" y="792" on="1"/>
        <pt x="336" y="792" on="1"/>
      </contour>
    </TTGlyph>
    <TTGlyph name="SF080000" xMin="264" yMin="-288" xMax="600" yMax="792">
      <contour>
        <pt x="264" y="-288" on="1"/>
        <pt x="264" y="792" on="1"/>
        <pt x="336" y="792" on="1"/>
        <pt x="336" y="288" on="1"/>
        <pt x="600" y="288" on="1"/>
        <pt x="600" y="216" on="1"/>
        <pt x="336" y="216" on="1"/>
        <pt x="336" y="-288" on="1"/>
      </contour>
    </TTGlyph>
    <TTGlyph name="SF090000" xMin="0" yMin="-288" xMax="336" yMax="792">
      <contour>
        <pt x="336" y="-288" on="1"/>
        <pt x="264" y="-288" on="1"/>
        <pt x="264" y="216" on="1"/>
        <pt x="0" y="216" on="1"/>
        <pt x="0" y="288" on="1"/>
        <pt x="264" y="288" on="1"/>
        <pt x="264" y="792" on="1"/>
        <pt x="336" y="792" on="1"/>
      </contour>
    </TTGlyph>
    <TTGlyph name="SF100000" xMin="0" yMin="216" xMax="600" yMax="288">
      <contour>
        <pt x="0" y="216" on="1"/>
        <pt x="0" y="288" on="1"/>
        <pt x="600" y="288" on="1"/>
        <pt x="600" y="216" on="1"/>
      </contour>
    </TTGlyph>
    <TTGlyph name="SF110000" xMin="264" yMin="-288" xMax="336" yMax="792">
      <contour>
        <pt x="264" y="-288" on="1"/>
        <pt x="264" y="792" on="1"/>
        <pt x="336" y="792" on="1"/>
        <pt x="336" y="-288" on="1"/>
      </contour>
    </TTGlyph>
    <TTGlyph name="SF140000" xMin="0" yMin="-167" xMax="500" yMax="733">
      <contour>
        <pt x="500" y="533" on="1"/>
        <pt x="500" y="433" on="1"/>
        <pt x="400" y="433" on="1"/>
        <pt x="400" y="533" on="1"/>
      </contour>
      <contour>
        <pt x="300" y="533" on="1"/>
        <pt x="300" y="433" on="1"/>
        <pt x="200" y="433" on="1"/>
        <pt x="200" y="533" on="1"/>
      </contour>
      <contour>
        <pt x="500" y="333" on="1"/>
        <pt x="500" y="233" on="1"/>
        <pt x="400" y="233" on="1"/>
        <pt x="400" y="333" on="1"/>
      </contour>
      <contour>
        <pt x="300" y="333" on="1"/>
        <pt x="300" y="233" on="1"/>
        <pt x="200" y="233" on="1"/>
        <pt x="200" y="333" on="1"/>
      </contour>
      <contour>
        <pt x="500" y="133" on="1"/>
        <pt x="500" y="33" on="1"/>
        <pt x="400" y="33" on="1"/>
        <pt x="400" y="133" on="1"/>
      </contour>
      <contour>
        <pt x="300" y="133" on="1"/>
        <pt x="300" y="33" on="1"/>
        <pt x="200" y="33" on="1"/>
        <pt x="200" y="133" on="1"/>
      </contour>
      <contour>
        <pt x="500" y="-67" on="1"/>
        <pt x="500" y="-167" on="1"/>
        <pt x="400" y="-167" on="1"/>
        <pt x="400" y="-67" on="1"/>
      </contour>
      <contour>
        <pt x="300" y="-67" on="1"/>
        <pt x="300" y="-167" on="1"/>
        <pt x="200" y="-167" on="1"/>
        <pt x="200" y="-67" on="1"/>
      </contour>
      <contour>
        <pt x="100" y="533" on="1"/>
        <pt x="100" y="433" on="1"/>
        <pt x="0" y="433" on="1"/>
        <pt x="0" y="533" on="1"/>
      </contour>
      <contour>
        <pt x="100" y="333" on="1"/>
        <pt x="100" y="233" on="1"/>
        <pt x="0" y="233" on="1"/>
        <pt x="0" y="333" on="1"/>
      </contour>
      <contour>
        <pt x="100" y="133" on="1"/>
        <pt x="100" y="33" on="1"/>
        <pt x="0" y="33" on="1"/>
        <pt x="0" y="133" on="1"/>
      </contour>
      <contour>
        <pt x="100" y="-67" on="1"/>
        <pt x="100" y="-167" on="1"/>
        <pt x="0" y="-167" on="1"/>
        <pt x="0" y="-67" on="1"/>
      </contour>
      <contour>
        <pt x="100" y="733" on="1"/>
        <pt x="100" y="633" on="1"/>
        <pt x="0" y="633" on="1"/>
        <pt x="0" y="733" on="1"/>
      </contour>
      <contour>
        <pt x="300" y="733" on="1"/>
        <pt x="300" y="633" on="1"/>
        <pt x="200" y="633" on="1"/>
        <pt x="200" y="733" on="1"/>
      </contour>
      <contour>
        <pt x="500" y="733" on="1"/>
        <pt x="500" y="633" on="1"/>
        <pt x="400" y="633" on="1"/>
        <pt x="400" y="733" on="1"/>
      </contour>
    </TTGlyph>
    <TTGlyph name="SF150000" xMin="0" yMin="-267" xMax="600" yMax="733">
      <contour>
        <pt x="0" y="733" on="1"/>
        <pt x="100" y="733" on="1"/>
        <pt x="100" y="634" on="1"/>
        <pt x="99" y="633" on="1"/>
        <pt x="0" y="633" on="1"/>
      </contour>
      <contour>
        <pt x="200" y="733" on="1"/>
        <pt x="300" y="733" on="1"/>
        <pt x="300" y="634" on="1"/>
        <pt x="299" y="633" on="1"/>
        <pt x="201" y="633" on="1"/>
        <pt x="200" y="634" on="1"/>
      </contour>
      <contour>
        <pt x="400" y="733" on="1"/>
        <pt x="500" y="733" on="1"/>
        <pt x="500" y="634" on="1"/>
        <pt x="499" y="633" on="1"/>
        <pt x="401" y="633" on="1"/>
        <pt x="400" y="634" on="1"/>
      </contour>
      <contour>
        <pt x="100" y="632" on="1"/>
        <pt x="101" y="633" on="1"/>
        <pt x="199" y="633" on="1"/>
        <pt x="200" y="632" on="1"/>
        <pt x="200" y="534" on="1"/>
        <pt x="199" y="533" on="1"/>
        <pt x="101" y="533" on="1"/>
        <pt x="100" y="534" on="1"/>
      </contour>
      <contour>
        <pt x="300" y="632" on="1"/>
        <pt x="301" y="633" on="1"/>
        <pt x="399" y="633" on="1"/>
        <pt x="400" y="632" on="1"/>
        <pt x="400" y="534" on="1"/>
        <pt x="399" y="533" on="1"/>
        <pt x="301" y="533" on="1"/>
        <pt x="300" y="534" on="1"/>
      </contour>
      <contour>
        <pt x="501" y="633" on="1"/>
        <pt x="600" y="633" on="1"/>
        <pt x="600" y="533" on="1"/>
        <pt x="501" y="533" on="1"/>
        <pt x="500" y="534" on="1"/>
        <pt x="500" y="632" on="1"/>
      </contour>
      <contour>
        <pt x="0" y="533" on="1"/>
        <pt x="99" y="533" on="1"/>
        <pt x="100" y="532" on="1"/>
        <pt x="100" y="434" on="1"/>
        <pt x="99" y="433" on="1"/>
        <pt x="0" y="433" on="1"/>
      </contour>
      <contour>
        <pt x="200" y="532" on="1"/>
        <pt x="201" y="533" on="1"/>
        <pt x="299" y="533" on="1"/>
        <pt x="300" y="532" on="1"/>
        <pt x="300" y="434" on="1"/>
        <pt x="299" y="433" on="1"/>
        <pt x="201" y="433" on="1"/>
        <pt x="200" y="434" on="1"/>
      </contour>
      <contour>
        <pt x="400" y="532" on="1"/>
        <pt x="401" y="533" on="1"/>
        <pt x="499" y="533" on="1"/>
        <pt x="500" y="532" on="1"/>
        <pt x="500" y="434" on="1"/>
        <pt x="499" y="433" on="1"/>
        <pt x="401" y="433" on="1"/>
        <pt x="400" y="434" on="1"/>
      </contour>
      <contour>
        <pt x="100" y="432" on="1"/>
        <pt x="101" y="433" on="1"/>
        <pt x="199" y="433" on="1"/>
        <pt x="200" y="432" on="1"/>
        <pt x="200" y="334" on="1"/>
        <pt x="199" y="333" on="1"/>
        <pt x="101" y="333" on="1"/>
        <pt x="100" y="334" on="1"/>
      </contour>
      <contour>
        <pt x="300" y="432" on="1"/>
        <pt x="301" y="433" on="1"/>
        <pt x="399" y="433" on="1"/>
        <pt x="400" y="432" on="1"/>
        <pt x="400" y="334" on="1"/>
        <pt x="399" y="333" on="1"/>
        <pt x="301" y="333" on="1"/>
        <pt x="300" y="334" on="1"/>
      </contour>
      <contour>
        <pt x="501" y="433" on="1"/>
        <pt x="600" y="433" on="1"/>
        <pt x="600" y="333" on="1"/>
        <pt x="501" y="333" on="1"/>
        <pt x="500" y="334" on="1"/>
        <pt x="500" y="432" on="1"/>
      </contour>
      <contour>
        <pt x="0" y="333" on="1"/>
        <pt x="99" y="333" on="1"/>
        <pt x="100" y="332" on="1"/>
        <pt x="100" y="234" on="1"/>
        <pt x="99" y="233" on="1"/>
        <pt x="0" y="233" on="1"/>
      </contour>
      <contour>
        <pt x="200" y="332" on="1"/>
        <pt x="201" y="333" on="1"/>
        <pt x="299" y="333" on="1"/>
        <pt x="300" y="332" on="1"/>
        <pt x="300" y="234" on="1"/>
        <pt x="299" y="233" on="1"/>
        <pt x="201" y="233" on="1"/>
        <pt x="200" y="234" on="1"/>
      </contour>
      <contour>
        <pt x="400" y="332" on="1"/>
        <pt x="401" y="333" on="1"/>
        <pt x="499" y="333" on="1"/>
        <pt x="500" y="332" on="1"/>
        <pt x="500" y="234" on="1"/>
        <pt x="499" y="233" on="1"/>
        <pt x="401" y="233" on="1"/>
        <pt x="400" y="234" on="1"/>
      </contour>
      <contour>
        <pt x="100" y="232" on="1"/>
        <pt x="101" y="233" on="1"/>
        <pt x="199" y="233" on="1"/>
        <pt x="200" y="232" on="1"/>
        <pt x="200" y="134" on="1"/>
        <pt x="199" y="133" on="1"/>
        <pt x="101" y="133" on="1"/>
        <pt x="100" y="134" on="1"/>
      </contour>
      <contour>
        <pt x="300" y="232" on="1"/>
        <pt x="301" y="233" on="1"/>
        <pt x="399" y="233" on="1"/>
        <pt x="400" y="232" on="1"/>
        <pt x="400" y="134" on="1"/>
        <pt x="399" y="133" on="1"/>
        <pt x="301" y="133" on="1"/>
        <pt x="300" y="134" on="1"/>
      </contour>
      <contour>
        <pt x="501" y="233" on="1"/>
        <pt x="600" y="233" on="1"/>
        <pt x="600" y="133" on="1"/>
        <pt x="501" y="133" on="1"/>
        <pt x="500" y="134" on="1"/>
        <pt x="500" y="232" on="1"/>
      </contour>
      <contour>
        <pt x="0" y="133" on="1"/>
        <pt x="99" y="133" on="1"/>
        <pt x="100" y="132" on="1"/>
        <pt x="100" y="34" on="1"/>
        <pt x="99" y="33" on="1"/>
        <pt x="0" y="33" on="1"/>
      </contour>
      <contour>
        <pt x="200" y="132" on="1"/>
        <pt x="201" y="133" on="1"/>
        <pt x="299" y="133" on="1"/>
        <pt x="300" y="132" on="1"/>
        <pt x="300" y="34" on="1"/>
        <pt x="299" y="33" on="1"/>
        <pt x="201" y="33" on="1"/>
        <pt x="200" y="34" on="1"/>
      </contour>
      <contour>
        <pt x="400" y="132" on="1"/>
        <pt x="401" y="133" on="1"/>
        <pt x="499" y="133" on="1"/>
        <pt x="500" y="132" on="1"/>
        <pt x="500" y="34" on="1"/>
        <pt x="499" y="33" on="1"/>
        <pt x="401" y="33" on="1"/>
        <pt x="400" y="34" on="1"/>
      </contour>
      <contour>
        <pt x="100" y="32" on="1"/>
        <pt x="101" y="33" on="1"/>
        <pt x="199" y="33" on="1"/>
        <pt x="200" y="32" on="1"/>
        <pt x="200" y="-66" on="1"/>
        <pt x="199" y="-67" on="1"/>
        <pt x="101" y="-67" on="1"/>
        <pt x="100" y="-66" on="1"/>
      </contour>
      <contour>
        <pt x="300" y="32" on="1"/>
        <pt x="301" y="33" on="1"/>
        <pt x="399" y="33" on="1"/>
        <pt x="400" y="32" on="1"/>
        <pt x="400" y="-66" on="1"/>
        <pt x="399" y="-67" on="1"/>
        <pt x="301" y="-67" on="1"/>
        <pt x="300" y="-66" on="1"/>
      </contour>
      <contour>
        <pt x="501" y="33" on="1"/>
        <pt x="600" y="33" on="1"/>
        <pt x="600" y="-67" on="1"/>
        <pt x="501" y="-67" on="1"/>
        <pt x="500" y="-66" on="1"/>
        <pt x="500" y="32" on="1"/>
      </contour>
      <contour>
        <pt x="0" y="-67" on="1"/>
        <pt x="99" y="-67" on="1"/>
        <pt x="100" y="-68" on="1"/>
        <pt x="100" y="-166" on="1"/>
        <pt x="99" y="-167" on="1"/>
        <pt x="0" y="-167" on="1"/>
      </contour>
      <contour>
        <pt x="200" y="-68" on="1"/>
        <pt x="201" y="-67" on="1"/>
        <pt x="299" y="-67" on="1"/>
        <pt x="300" y="-68" on="1"/>
        <pt x="300" y="-166" on="1"/>
        <pt x="299" y="-167" on="1"/>
        <pt x="201" y="-167" on="1"/>
        <pt x="200" y="-166" on="1"/>
      </contour>
      <contour>
        <pt x="400" y="-68" on="1"/>
        <pt x="401" y="-67" on="1"/>
        <pt x="499" y="-67" on="1"/>
        <pt x="500" y="-68" on="1"/>
        <pt x="500" y="-166" on="1"/>
        <pt x="499" y="-167" on="1"/>
        <pt x="401" y="-167" on="1"/>
        <pt x="400" y="-166" on="1"/>
      </contour>
      <contour>
        <pt x="101" y="-167" on="1"/>
        <pt x="199" y="-167" on="1"/>
        <pt x="200" y="-168" on="1"/>
        <pt x="200" y="-267" on="1"/>
        <pt x="100" y="-267" on="1"/>
        <pt x="100" y="-168" on="1"/>
      </contour>
      <contour>
        <pt x="301" y="-167" on="1"/>
        <pt x="399" y="-167" on="1"/>
        <pt x="400" y="-168" on="1"/>
        <pt x="400" y="-267" on="1"/>
        <pt x="300" y="-267" on="1"/>
        <pt x="300" y="-168" on="1"/>
      </contour>
      <contour>
        <pt x="501" y="-167" on="1"/>
        <pt x="600" y="-167" on="1"/>
        <pt x="600" y="-267" on="1"/>
        <pt x="500" y="-267" on="1"/>
        <pt x="500" y="-168" on="1"/>
      </contour>
    </TTGlyph>
    <TTGlyph name="SF160000" xMin="0" yMin="-267" xMax="600" yMax="733">
      <contour>
        <pt x="600" y="-267" on="1"/>
        <pt x="0" y="-267" on="1"/>
        <pt x="0" y="-167" on="1"/>
        <pt x="100" y="-167" on="1"/>
        <pt x="100" y="-67" on="1"/>
        <pt x="0" y="-67" on="1"/>
        <pt x="0" y="33" on="1"/>
        <pt x="100" y="33" on="1"/>
        <pt x="100" y="133" on="1"/>
        <pt x="0" y="133" on="1"/>
        <pt x="0" y="233" on="1"/>
        <pt x="100" y="233" on="1"/>
        <pt x="100" y="333" on="1"/>
        <pt x="0" y="333" on="1"/>
        <pt x="0" y="433" on="1"/>
        <pt x="100" y="433" on="1"/>
        <pt x="100" y="533" on="1"/>
        <pt x="0" y="533" on="1"/>
        <pt x="0" y="633" on="1"/>
        <pt x="100" y="633" on="1"/>
        <pt x="100" y="733" on="1"/>
        <pt x="200" y="733" on="1"/>
        <pt x="200" y="633" on="1"/>
        <pt x="300" y="633" on="1"/>
        <pt x="300" y="733" on="1"/>
        <pt x="400" y="733" on="1"/>
        <pt x="400" y="633" on="1"/>
        <pt x="500" y="633" on="1"/>
        <pt x="500" y="733" on="1"/>
        <pt x="600" y="733" on="1"/>
      </contour>
      <contour>
        <pt x="500" y="233" on="1"/>
        <pt x="500" y="333" on="1"/>
        <pt x="400" y="333" on="1"/>
        <pt x="400" y="233" on="1"/>
      </contour>
      <contour>
        <pt x="300" y="233" on="1"/>
        <pt x="300" y="333" on="1"/>
        <pt x="200" y="333" on="1"/>
        <pt x="200" y="233" on="1"/>
      </contour>
      <contour>
        <pt x="500" y="33" on="1"/>
        <pt x="500" y="133" on="1"/>
        <pt x="400" y="133" on="1"/>
        <pt x="400" y="33" on="1"/>
      </contour>
      <contour>
        <pt x="300" y="33" on="1"/>
        <pt x="300" y="133" on="1"/>
        <pt x="200" y="133" on="1"/>
        <pt x="200" y="33" on="1"/>
      </contour>
      <contour>
        <pt x="500" y="433" on="1"/>
        <pt x="500" y="533" on="1"/>
        <pt x="400" y="533" on="1"/>
        <pt x="400" y="433" on="1"/>
      </contour>
      <contour>
        <pt x="300" y="433" on="1"/>
        <pt x="300" y="533" on="1"/>
        <pt x="200" y="533" on="1"/>
        <pt x="200" y="433" on="1"/>
      </contour>
      <contour>
        <pt x="500" y="-167" on="1"/>
        <pt x="500" y="-67" on="1"/>
        <pt x="400" y="-67" on="1"/>
        <pt x="400" y="-167" on="1"/>
      </contour>
      <contour>
        <pt x="300" y="-167" on="1"/>
        <pt x="300" y="-67" on="1"/>
        <pt x="200" y="-67" on="1"/>
        <pt x="200" y="-167" on="1"/>
      </contour>
    </TTGlyph>
    <TTGlyph name="SF190000" xMin="0" yMin="-288" xMax="336" yMax="792">
      <contour>
        <pt x="336" y="-288" on="1"/>
        <pt x="264" y="-288" on="1"/>
        <pt x="264" y="144" on="1"/>
        <pt x="0" y="144" on="1"/>
        <pt x="0" y="216" on="1"/>
        <pt x="264" y="216" on="1"/>
        <pt x="264" y="288" on="1"/>
        <pt x="0" y="288" on="1"/>
        <pt x="0" y="360" on="1"/>
        <pt x="264" y="360" on="1"/>
        <pt x="264" y="792" on="1"/>
        <pt x="336" y="792" on="1"/>
      </contour>
    </TTGlyph>
    <TTGlyph name="SF200000" xMin="0" yMin="-288" xMax="408" yMax="792">
      <contour>
        <pt x="264" y="792" on="1"/>
        <pt x="264" y="-288" on="1"/>
        <pt x="192" y="-288" on="1"/>
        <pt x="192" y="216" on="1"/>
        <pt x="0" y="216" on="1"/>
        <pt x="0" y="288" on="1"/>
        <pt x="192" y="288" on="1"/>
        <pt x="192" y="792" on="1"/>
      </contour>
      <contour>
        <pt x="408" y="-288" on="1"/>
        <pt x="336" y="-288" on="1"/>
        <pt x="336" y="792" on="1"/>
        <pt x="408" y="792" on="1"/>
      </contour>
    </TTGlyph>
    <TTGlyph name="SF210000" xMin="0" yMin="-288" xMax="408" yMax="288">
      <contour>
        <pt x="264" y="216" on="1"/>
        <pt x="264" y="-288" on="1"/>
        <pt x="192" y="-288" on="1"/>
        <pt x="192" y="216" on="1"/>
        <pt x="0" y="216" on="1"/>
        <pt x="0" y="288" on="1"/>
        <pt x="408" y="288" on="1"/>
        <pt x="408" y="-288" on="1"/>
        <pt x="336" y="-288" on="1"/>
        <pt x="336" y="216" on="1"/>
      </contour>
    </TTGlyph>
    <TTGlyph name="SF220000" xMin="0" yMin="-288" xMax="336" yMax="360">
      <contour>
        <pt x="0" y="216" on="1"/>
        <pt x="264" y="216" on="1"/>
        <pt x="264" y="288" on="1"/>
        <pt x="0" y="288" on="1"/>
        <pt x="0" y="360" on="1"/>
        <pt x="336" y="360" on="1"/>
        <pt x="336" y="-288" on="1"/>
        <pt x="264" y="-288" on="1"/>
        <pt x="264" y="144" on="1"/>
        <pt x="0" y="144" on="1"/>
      </contour>
    </TTGlyph>
    <TTGlyph name="SF230000" xMin="0" yMin="-288" xMax="408" yMax="792">
      <contour>
        <pt x="336" y="-288" on="1"/>
        <pt x="336" y="792" on="1"/>
        <pt x="408" y="792" on="1"/>
        <pt x="408" y="-288" on="1"/>
      </contour>
      <contour>
        <pt x="192" y="144" on="1"/>
        <pt x="0" y="144" on="1"/>
        <pt x="0" y="216" on="1"/>
        <pt x="264" y="216" on="1"/>
        <pt x="264" y="-288" on="1"/>
        <pt x="192" y="-288" on="1"/>
      </contour>
      <contour>
        <pt x="264" y="288" on="1"/>
        <pt x="0" y="288" on="1"/>
        <pt x="0" y="360" on="1"/>
        <pt x="192" y="360" on="1"/>
        <pt x="192" y="792" on="1"/>
        <pt x="264" y="792" on="1"/>
      </contour>
    </TTGlyph>
    <TTGlyph name="SF240000" xMin="192" yMin="-288" xMax="408" yMax="792">
      <contour>
        <pt x="408" y="-288" on="1"/>
        <pt x="336" y="-288" on="1"/>
        <pt x="336" y="792" on="1"/>
        <pt x="408" y="792" on="1"/>
      </contour>
      <contour>
        <pt x="192" y="-288" on="1"/>
        <pt x="192" y="792" on="1"/>
        <pt x="264" y="792" on="1"/>
        <pt x="264" y="-288" on="1"/>
      </contour>
    </TTGlyph>
    <TTGlyph name="SF250000" xMin="0" yMin="-288" xMax="408" yMax="360">
      <contour>
        <pt x="192" y="144" on="1"/>
        <pt x="0" y="144" on="1"/>
        <pt x="0" y="216" on="1"/>
        <pt x="264" y="216" on="1"/>
        <pt x="264" y="-288" on="1"/>
        <pt x="192" y="-288" on="1"/>
      </contour>
      <contour>
        <pt x="336" y="-288" on="1"/>
        <pt x="336" y="288" on="1"/>
        <pt x="0" y="288" on="1"/>
        <pt x="0" y="360" on="1"/>
        <pt x="408" y="360" on="1"/>
        <pt x="408" y="-288" on="1"/>
      </contour>
    </TTGlyph>
    <TTGlyph name="SF260000" xMin="0" yMin="144" xMax="408" yMax="792">
      <contour>
        <pt x="264" y="288" on="1"/>
        <pt x="0" y="288" on="1"/>
        <pt x="0" y="360" on="1"/>
        <pt x="192" y="360" on="1"/>
        <pt x="192" y="792" on="1"/>
        <pt x="264" y="792" on="1"/>
      </contour>
      <contour>
        <pt x="336" y="216" on="1"/>
        <pt x="336" y="792" on="1"/>
        <pt x="408" y="792" on="1"/>
        <pt x="408" y="144" on="1"/>
        <pt x="0" y="144" on="1"/>
        <pt x="0" y="216" on="1"/>
      </contour>
    </TTGlyph>
    <TTGlyph name="SF270000" xMin="0" yMin="216" xMax="408" yMax="792">
      <contour>
        <pt x="264" y="288" on="1"/>
        <pt x="336" y="288" on="1"/>
        <pt x="336" y="792" on="1"/>
        <pt x="408" y="792" on="1"/>
        <pt x="408" y="216" on="1"/>
        <pt x="0" y="216" on="1"/>
        <pt x="0" y="288" on="1"/>
        <pt x="192" y="288" on="1"/>
        <pt x="192" y="792" on="1"/>
        <pt x="264" y="792" on="1"/>
      </contour>
    </TTGlyph>
    <TTGlyph name="SF280000" xMin="0" yMin="144" xMax="336" yMax="792">
      <contour>
        <pt x="336" y="792" on="1"/>
        <pt x="336" y="144" on="1"/>
        <pt x="0" y="144" on="1"/>
        <pt x="0" y="216" on="1"/>
        <pt x="264" y="216" on="1"/>
        <pt x="264" y="288" on="1"/>
        <pt x="0" y="288" on="1"/>
        <pt x="0" y="360" on="1"/>
        <pt x="264" y="360" on="1"/>
        <pt x="264" y="792" on="1"/>
      </contour>
    </TTGlyph>
    <TTGlyph name="SF360000" xMin="264" yMin="-288" xMax="600" yMax="792">
      <contour>
        <pt x="264" y="-288" on="1"/>
        <pt x="264" y="792" on="1"/>
        <pt x="336" y="792" on="1"/>
        <pt x="336" y="360" on="1"/>
        <pt x="600" y="360" on="1"/>
        <pt x="600" y="288" on="1"/>
        <pt x="336" y="288" on="1"/>
        <pt x="336" y="216" on="1"/>
        <pt x="600" y="216" on="1"/>
        <pt x="600" y="144" on="1"/>
        <pt x="336" y="144" on="1"/>
        <pt x="336" y="-288" on="1"/>
      </contour>
    </TTGlyph>
    <TTGlyph name="SF370000" xMin="192" yMin="-288" xMax="600" yMax="792">
      <contour>
        <pt x="336" y="792" on="1"/>
        <pt x="408" y="792" on="1"/>
        <pt x="408" y="288" on="1"/>
        <pt x="600" y="288" on="1"/>
        <pt x="600" y="216" on="1"/>
        <pt x="408" y="216" on="1"/>
        <pt x="408" y="-288" on="1"/>
        <pt x="336" y="-288" on="1"/>
      </contour>
      <contour>
        <pt x="192" y="-288" on="1"/>
        <pt x="192" y="792" on="1"/>
        <pt x="264" y="792" on="1"/>
        <pt x="264" y="-288" on="1"/>
      </contour>
    </TTGlyph>
    <TTGlyph name="SF380000" xMin="192" yMin="144" xMax="600" yMax="792">
      <contour>
        <pt x="336" y="288" on="1"/>
        <pt x="336" y="792" on="1"/>
        <pt x="408" y="792" on="1"/>
        <pt x="408" y="360" on="1"/>
        <pt x="600" y="360" on="1"/>
        <pt x="600" y="288" on="1"/>
      </contour>
      <contour>
        <pt x="264" y="216" on="1"/>
        <pt x="600" y="216" on="1"/>
        <pt x="600" y="144" on="1"/>
        <pt x="192" y="144" on="1"/>
        <pt x="192" y="792" on="1"/>
        <pt x="264" y="792" on="1"/>
      </contour>
    </TTGlyph>
    <TTGlyph name="SF390000" xMin="192" yMin="-288" xMax="600" yMax="360">
      <contour>
        <pt x="336" y="216" on="1"/>
        <pt x="600" y="216" on="1"/>
        <pt x="600" y="144" on="1"/>
        <pt x="408" y="144" on="1"/>
        <pt x="408" y="-288" on="1"/>
        <pt x="336" y="-288" on="1"/>
      </contour>
      <contour>
        <pt x="264" y="288" on="1"/>
        <pt x="264" y="-288" on="1"/>
        <pt x="192" y="-288" on="1"/>
        <pt x="192" y="360" on="1"/>
        <pt x="600" y="360" on="1"/>
        <pt x="600" y="288" on="1"/>
      </contour>
    </TTGlyph>
    <TTGlyph name="SF400000" xMin="0" yMin="144" xMax="600" yMax="792">
      <contour>
        <pt x="600" y="288" on="1"/>
        <pt x="336" y="288" on="1"/>
        <pt x="336" y="792" on="1"/>
        <pt x="408" y="792" on="1"/>
        <pt x="408" y="360" on="1"/>
        <pt x="600" y="360" on="1"/>
      </contour>
      <contour>
        <pt x="0" y="288" on="1"/>
        <pt x="0" y="360" on="1"/>
        <pt x="192" y="360" on="1"/>
        <pt x="192" y="792" on="1"/>
        <pt x="264" y="792" on="1"/>
        <pt x="264" y="288" on="1"/>
      </contour>
      <contour>
        <pt x="600" y="216" on="1"/>
        <pt x="600" y="144" on="1"/>
        <pt x="0" y="144" on="1"/>
        <pt x="0" y="216" on="1"/>
      </contour>
    </TTGlyph>
    <TTGlyph name="SF410000" xMin="0" yMin="-288" xMax="600" yMax="360">
      <contour>
        <pt x="408" y="-288" on="1"/>
        <pt x="336" y="-288" on="1"/>
        <pt x="336" y="216" on="1"/>
        <pt x="600" y="216" on="1"/>
        <pt x="600" y="144" on="1"/>
        <pt x="408" y="144" on="1"/>
      </contour>
      <contour>
        <pt x="0" y="216" on="1"/>
        <pt x="264" y="216" on="1"/>
        <pt x="264" y="-288" on="1"/>
        <pt x="192" y="-288" on="1"/>
        <pt x="192" y="144" on="1"/>
        <pt x="0" y="144" on="1"/>
      </contour>
      <contour>
        <pt x="600" y="288" on="1"/>
        <pt x="0" y="288" on="1"/>
        <pt x="0" y="360" on="1"/>
        <pt x="600" y="360" on="1"/>
      </contour>
    </TTGlyph>
    <TTGlyph name="SF420000" xMin="192" yMin="-288" xMax="600" yMax="792">
      <contour>
        <pt x="192" y="-288" on="1"/>
        <pt x="192" y="792" on="1"/>
        <pt x="264" y="792" on="1"/>
        <pt x="264" y="-288" on="1"/>
      </contour>
      <contour>
        <pt x="336" y="216" on="1"/>
        <pt x="600" y="216" on="1"/>
        <pt x="600" y="144" on="1"/>
        <pt x="408" y="144" on="1"/>
        <pt x="408" y="-288" on="1"/>
        <pt x="336" y="-288" on="1"/>
      </contour>
      <contour>
        <pt x="336" y="288" on="1"/>
        <pt x="336" y="792" on="1"/>
        <pt x="408" y="792" on="1"/>
        <pt x="408" y="360" on="1"/>
        <pt x="600" y="360" on="1"/>
        <pt x="600" y="288" on="1"/>
      </contour>
    </TTGlyph>
    <TTGlyph name="SF430000" xMin="0" yMin="144" xMax="600" yMax="360">
      <contour>
        <pt x="600" y="360" on="1"/>
        <pt x="600" y="288" on="1"/>
        <pt x="0" y="288" on="1"/>
        <pt x="0" y="360" on="1"/>
      </contour>
      <contour>
        <pt x="600" y="216" on="1"/>
        <pt x="600" y="144" on="1"/>
        <pt x="0" y="144" on="1"/>
        <pt x="0" y="216" on="1"/>
      </contour>
    </TTGlyph>
    <TTGlyph name="SF440000" xMin="0" yMin="-288" xMax="600" yMax="792">
      <contour>
        <pt x="264" y="216" on="1"/>
        <pt x="264" y="-288" on="1"/>
        <pt x="192" y="-288" on="1"/>
        <pt x="192" y="144" on="1"/>
        <pt x="0" y="144" on="1"/>
        <pt x="0" y="216" on="1"/>
      </contour>
      <contour>
        <pt x="264" y="288" on="1"/>
        <pt x="0" y="288" on="1"/>
        <pt x="0" y="360" on="1"/>
        <pt x="192" y="360" on="1"/>
        <pt x="192" y="792" on="1"/>
        <pt x="264" y="792" on="1"/>
      </contour>
      <contour>
        <pt x="336" y="216" on="1"/>
        <pt x="600" y="216" on="1"/>
        <pt x="600" y="144" on="1"/>
        <pt x="408" y="144" on="1"/>
        <pt x="408" y="-288" on="1"/>
        <pt x="336" y="-288" on="1"/>
      </contour>
      <contour>
        <pt x="336" y="288" on="1"/>
        <pt x="336" y="792" on="1"/>
        <pt x="408" y="792" on="1"/>
        <pt x="408" y="360" on="1"/>
        <pt x="600" y="360" on="1"/>
        <pt x="600" y="288" on="1"/>
      </contour>
    </TTGlyph>
    <TTGlyph name="SF450000" xMin="0" yMin="144" xMax="600" yMax="792">
      <contour>
        <pt x="336" y="360" on="1"/>
        <pt x="600" y="360" on="1"/>
        <pt x="600" y="288" on="1"/>
        <pt x="0" y="288" on="1"/>
        <pt x="0" y="360" on="1"/>
        <pt x="264" y="360" on="1"/>
        <pt x="264" y="792" on="1"/>
        <pt x="336" y="792" on="1"/>
      </contour>
      <contour>
        <pt x="600" y="144" on="1"/>
        <pt x="0" y="144" on="1"/>
        <pt x="0" y="216" on="1"/>
        <pt x="600" y="216" on="1"/>
      </contour>
    </TTGlyph>
    <TTGlyph name="SF460000" xMin="0" yMin="216" xMax="600" yMax="792">
      <contour>
        <pt x="336" y="288" on="1"/>
        <pt x="336" y="792" on="1"/>
        <pt x="408" y="792" on="1"/>
        <pt x="408" y="288" on="1"/>
        <pt x="600" y="288" on="1"/>
        <pt x="600" y="216" on="1"/>
        <pt x="0" y="216" on="1"/>
        <pt x="0" y="288" on="1"/>
        <pt x="192" y="288" on="1"/>
        <pt x="192" y="792" on="1"/>
        <pt x="264" y="792" on="1"/>
        <pt x="264" y="288" on="1"/>
      </contour>
    </TTGlyph>
    <TTGlyph name="SF470000" xMin="0" yMin="-288" xMax="600" yMax="360">
      <contour>
        <pt x="336" y="144" on="1"/>
        <pt x="336" y="-288" on="1"/>
        <pt x="264" y="-288" on="1"/>
        <pt x="264" y="144" on="1"/>
        <pt x="0" y="144" on="1"/>
        <pt x="0" y="216" on="1"/>
        <pt x="600" y="216" on="1"/>
        <pt x="600" y="144" on="1"/>
      </contour>
      <contour>
        <pt x="600" y="288" on="1"/>
        <pt x="0" y="288" on="1"/>
        <pt x="0" y="360" on="1"/>
        <pt x="600" y="360" on="1"/>
      </contour>
    </TTGlyph>
    <TTGlyph name="SF480000" xMin="0" yMin="-288" xMax="600" yMax="288">
      <contour>
        <pt x="336" y="216" on="1"/>
        <pt x="264" y="216" on="1"/>
        <pt x="264" y="-288" on="1"/>
        <pt x="192" y="-288" on="1"/>
        <pt x="192" y="216" on="1"/>
        <pt x="0" y="216" on="1"/>
        <pt x="0" y="288" on="1"/>
        <pt x="600" y="288" on="1"/>
        <pt x="600" y="216" on="1"/>
        <pt x="408" y="216" on="1"/>
        <pt x="408" y="-288" on="1"/>
        <pt x="336" y="-288" on="1"/>
      </contour>
    </TTGlyph>
    <TTGlyph name="SF490000" xMin="192" yMin="216" xMax="600" yMax="792">
      <contour>
        <pt x="336" y="288" on="1"/>
        <pt x="336" y="792" on="1"/>
        <pt x="408" y="792" on="1"/>
        <pt x="408" y="288" on="1"/>
        <pt x="600" y="288" on="1"/>
        <pt x="600" y="216" on="1"/>
        <pt x="192" y="216" on="1"/>
        <pt x="192" y="792" on="1"/>
        <pt x="264" y="792" on="1"/>
        <pt x="264" y="288" on="1"/>
      </contour>
    </TTGlyph>
    <TTGlyph name="SF500000" xMin="264" yMin="144" xMax="600" yMax="792">
      <contour>
        <pt x="264" y="792" on="1"/>
        <pt x="336" y="792" on="1"/>
        <pt x="336" y="360" on="1"/>
        <pt x="600" y="360" on="1"/>
        <pt x="600" y="288" on="1"/>
        <pt x="336" y="288" on="1"/>
        <pt x="336" y="216" on="1"/>
        <pt x="600" y="216" on="1"/>
        <pt x="600" y="144" on="1"/>
        <pt x="264" y="144" on="1"/>
      </contour>
    </TTGlyph>
    <TTGlyph name="SF510000" xMin="264" yMin="-288" xMax="600" yMax="360">
      <contour>
        <pt x="336" y="216" on="1"/>
        <pt x="600" y="216" on="1"/>
        <pt x="600" y="144" on="1"/>
        <pt x="336" y="144" on="1"/>
        <pt x="336" y="-288" on="1"/>
        <pt x="264" y="-288" on="1"/>
        <pt x="264" y="360" on="1"/>
        <pt x="600" y="360" on="1"/>
        <pt x="600" y="288" on="1"/>
        <pt x="336" y="288" on="1"/>
      </contour>
    </TTGlyph>
    <TTGlyph name="SF520000" xMin="192" yMin="-288" xMax="600" yMax="288">
      <contour>
        <pt x="336" y="216" on="1"/>
        <pt x="264" y="216" on="1"/>
        <pt x="264" y="-288" on="1"/>
        <pt x="192" y="-288" on="1"/>
        <pt x="192" y="288" on="1"/>
        <pt x="600" y="288" on="1"/>
        <pt x="600" y="216" on="1"/>
        <pt x="408" y="216" on="1"/>
        <pt x="408" y="-288" on="1"/>
        <pt x="336" y="-288" on="1"/>
      </contour>
    </TTGlyph>
    <TTGlyph name="SF530000" xMin="0" yMin="-288" xMax="600" yMax="792">
      <contour>
        <pt x="264" y="288" on="1"/>
        <pt x="336" y="288" on="1"/>
        <pt x="336" y="792" on="1"/>
        <pt x="408" y="792" on="1"/>
        <pt x="408" y="288" on="1"/>
        <pt x="600" y="288" on="1"/>
        <pt x="600" y="216" on="1"/>
        <pt x="408" y="216" on="1"/>
        <pt x="408" y="-288" on="1"/>
        <pt x="336" y="-288" on="1"/>
        <pt x="336" y="216" on="1"/>
        <pt x="264" y="216" on="1"/>
        <pt x="264" y="-288" on="1"/>
        <pt x="192" y="-288" on="1"/>
        <pt x="192" y="216" on="1"/>
        <pt x="0" y="216" on="1"/>
        <pt x="0" y="288" on="1"/>
        <pt x="192" y="288" on="1"/>
        <pt x="192" y="792" on="1"/>
        <pt x="264" y="792" on="1"/>
      </contour>
    </TTGlyph>
    <TTGlyph name="SF540000" xMin="0" yMin="-288" xMax="600" yMax="792">
      <contour>
        <pt x="336" y="360" on="1"/>
        <pt x="600" y="360" on="1"/>
        <pt x="600" y="288" on="1"/>
        <pt x="336" y="288" on="1"/>
        <pt x="336" y="216" on="1"/>
        <pt x="600" y="216" on="1"/>
        <pt x="600" y="144" on="1"/>
        <pt x="336" y="144" on="1"/>
        <pt x="336" y="-288" on="1"/>
        <pt x="264" y="-288" on="1"/>
        <pt x="264" y="144" on="1"/>
        <pt x="0" y="144" on="1"/>
        <pt x="0" y="216" on="1"/>
        <pt x="264" y="216" on="1"/>
        <pt x="264" y="288" on="1"/>
        <pt x="0" y="288" on="1"/>
        <pt x="0" y="360" on="1"/>
        <pt x="264" y="360" on="1"/>
        <pt x="264" y="792" on="1"/>
        <pt x="336" y="792" on="1"/>
      </contour>
    </TTGlyph>
    <TTGlyph name="SF570000" xMin="0" yMin="-288" xMax="600" yMax="252">
      <contour>
        <pt x="0" y="-288" on="1"/>
        <pt x="0" y="252" on="1"/>
        <pt x="600" y="252" on="1"/>
        <pt x="600" y="-288" on="1"/>
      </contour>
    </TTGlyph>
    <TTGlyph name="SF580000" xMin="0" yMin="-288" xMax="300" yMax="792">
      <contour>
        <pt x="0" y="-288" on="1"/>
        <pt x="0" y="792" on="1"/>
        <pt x="300" y="792" on="1"/>
        <pt x="300" y="-288" on="1"/>
      </contour>
    </TTGlyph>
    <TTGlyph name="SF590000" xMin="300" yMin="-288" xMax="600" yMax="792">
      <contour>
        <pt x="300" y="-288" on="1"/>
        <pt x="300" y="792" on="1"/>
        <pt x="600" y="792" on="1"/>
        <pt x="600" y="-288" on="1"/>
      </contour>
    </TTGlyph>
    <TTGlyph name="SF600000" xMin="0" yMin="252" xMax="600" yMax="792">
      <contour>
        <pt x="0" y="252" on="1"/>
        <pt x="0" y="792" on="1"/>
        <pt x="600" y="792" on="1"/>
        <pt x="600" y="252" on="1"/>
      </contour>
    </TTGlyph>
    <TTGlyph name="SF610000" xMin="0" yMin="-288" xMax="600" yMax="792">
      <contour>
        <pt x="0" y="-288" on="1"/>
        <pt x="0" y="792" on="1"/>
        <pt x="600" y="792" on="1"/>
        <pt x="600" y="-288" on="1"/>
      </contour>
    </TTGlyph>
    <TTGlyph name="SM490000" xMin="21" yMin="0" xMax="579" yMax="670">
      <contour>
        <pt x="21" y="612" on="1"/>
        <pt x="71" y="670" on="1"/>
        <pt x="134" y="630" on="0"/>
        <pt x="237" y="597" on="0"/>
        <pt x="300" y="597" on="1"/>
        <pt x="364" y="597" on="0"/>
        <pt x="465" y="629" on="0"/>
        <pt x="531" y="670" on="1"/>
        <pt x="579" y="612" on="1"/>
        <pt x="516" y="472" on="0"/>
        <pt x="517" y="334" on="1"/>
        <pt x="519" y="183" on="0"/>
        <pt x="579" y="59" on="1"/>
        <pt x="531" y="0" on="1"/>
        <pt x="427" y="72" on="0"/>
        <pt x="305" y="72" on="1"/>
        <pt x="180" y="72" on="0"/>
        <pt x="71" y="0" on="1"/>
        <pt x="21" y="59" on="1"/>
        <pt x="83" y="185" on="0"/>
        <pt x="83" y="334" on="1"/>
        <pt x="83" y="473" on="0"/>
      </contour>
      <contour>
        <pt x="100" y="588" on="1"/>
        <pt x="114" y="535" on="1"/>
        <pt x="147" y="443" on="0"/>
        <pt x="147" y="334" on="1"/>
        <pt x="147" y="230" on="0"/>
        <pt x="115" y="135" on="1"/>
        <pt x="100" y="81" on="1"/>
        <pt x="203" y="136" on="0"/>
        <pt x="298" y="136" on="1"/>
        <pt x="399" y="136" on="0"/>
        <pt x="499" y="81" on="1"/>
        <pt x="484" y="135" on="1"/>
        <pt x="453" y="245" on="0"/>
        <pt x="453" y="334" on="1"/>
        <pt x="453" y="450" on="0"/>
        <pt x="483" y="535" on="1"/>
        <pt x="501" y="586" on="1"/>
        <pt x="499" y="588" on="1"/>
        <pt x="417" y="533" on="0"/>
        <pt x="298" y="533" on="1"/>
        <pt x="198" y="533" on="0"/>
      </contour>
    </TTGlyph>
    <TTGlyph name="SM570001" xMin="61" yMin="0" xMax="539" yMax="478">
      <contour>
        <pt x="61" y="0" on="1"/>
        <pt x="61" y="478" on="1"/>
        <pt x="539" y="478" on="1"/>
        <pt x="539" y="0" on="1"/>
      </contour>
      <contour>
        <pt x="341" y="338" on="0"/>
        <pt x="259" y="338" on="0"/>
        <pt x="201" y="279" on="0"/>
        <pt x="201" y="238" on="1"/>
        <pt x="201" y="198" on="0"/>
        <pt x="259" y="140" on="0"/>
        <pt x="341" y="140" on="0"/>
        <pt x="399" y="198" on="0"/>
        <pt x="399" y="238" on="1"/>
        <pt x="399" y="279" on="0"/>
      </contour>
    </TTGlyph>
    <TTGlyph name="SM580000" xMin="85" yMin="67" xMax="515" yMax="497">
      <contour>
        <pt x="211" y="497" on="0"/>
        <pt x="389" y="497" on="0"/>
        <pt x="515" y="371" on="0"/>
        <pt x="515" y="193" on="0"/>
        <pt x="389" y="67" on="0"/>
        <pt x="211" y="67" on="0"/>
        <pt x="85" y="193" on="0"/>
        <pt x="85" y="371" on="0"/>
      </contour>
    </TTGlyph>
    <TTGlyph name="SM590000" xMin="40" yMin="83" xMax="600" yMax="480">
      <contour>
        <pt x="40" y="83" on="1"/>
        <pt x="40" y="480" on="1"/>
        <pt x="600" y="282" on="1"/>
      </contour>
    </TTGlyph>
    <TTGlyph name="SM600000" xMin="102" yMin="95" xMax="498" yMax="466">
      <contour>
        <pt x="102" y="95" on="1"/>
        <pt x="300" y="466" on="1"/>
        <pt x="498" y="95" on="1"/>
      </contour>
    </TTGlyph>
    <TTGlyph name="SM630000" xMin="0" yMin="83" xMax="560" yMax="480">
      <contour>
        <pt x="560" y="83" on="1"/>
        <pt x="0" y="282" on="1"/>
        <pt x="560" y="480" on="1"/>
      </contour>
    </TTGlyph>
    <TTGlyph name="SM680000" xMin="81" yMin="169" xMax="510" yMax="438">
      <contour>
        <pt x="510" y="438" on="1"/>
        <pt x="510" y="386" on="1"/>
        <pt x="133" y="386" on="1"/>
        <pt x="133" y="169" on="1"/>
        <pt x="81" y="169" on="1"/>
        <pt x="81" y="438" on="1"/>
      </contour>
    </TTGlyph>
    <TTGlyph name="SM690000" xMin="6" yMin="-13" xMax="594" yMax="576">
      <contour>
        <pt x="137" y="404" on="1"/>
        <pt x="71" y="469" on="1"/>
        <pt x="113" y="510" on="1"/>
        <pt x="179" y="444" on="1"/>
        <pt x="193" y="458" on="0"/>
        <pt x="251" y="482" on="0"/>
        <pt x="271" y="482" on="1"/>
        <pt x="271" y="576" on="1"/>
        <pt x="329" y="576" on="1"/>
        <pt x="329" y="482" on="1"/>
        <pt x="349" y="482" on="0"/>
        <pt x="403" y="459" on="0"/>
        <pt x="421" y="444" on="1"/>
        <pt x="488" y="510" on="1"/>
        <pt x="529" y="469" on="1"/>
        <pt x="463" y="403" on="1"/>
        <pt x="477" y="389" on="0"/>
        <pt x="500" y="332" on="0"/>
        <pt x="500" y="311" on="1"/>
        <pt x="594" y="311" on="1"/>
        <pt x="594" y="253" on="1"/>
        <pt x="500" y="253" on="1"/>
        <pt x="500" y="206" on="0"/>
        <pt x="463" y="160" on="1"/>
        <pt x="529" y="94" on="1"/>
        <pt x="488" y="53" on="1"/>
        <pt x="421" y="119" on="1"/>
        <pt x="409" y="107" on="0"/>
        <pt x="351" y="82" on="0"/>
        <pt x="329" y="81" on="1"/>
        <pt x="329" y="-13" on="1"/>
        <pt x="271" y="-13" on="1"/>
        <pt x="271" y="82" on="1"/>
        <pt x="214" y="82" on="0"/>
        <pt x="179" y="119" on="1"/>
        <pt x="113" y="53" on="1"/>
        <pt x="71" y="94" on="1"/>
        <pt x="138" y="160" on="1"/>
        <pt x="123" y="175" on="0"/>
        <pt x="101" y="231" on="0"/>
        <pt x="101" y="253" on="1"/>
        <pt x="6" y="253" on="1"/>
        <pt x="6" y="311" on="1"/>
        <pt x="101" y="311" on="1"/>
        <pt x="101" y="329" on="0"/>
        <pt x="124" y="388" on="0"/>
      </contour>
      <contour>
        <pt x="356" y="416" on="0"/>
        <pt x="244" y="416" on="0"/>
        <pt x="167" y="338" on="0"/>
        <pt x="167" y="283" on="1"/>
        <pt x="167" y="227" on="0"/>
        <pt x="245" y="148" on="0"/>
        <pt x="355" y="148" on="0"/>
        <pt x="434" y="227" on="0"/>
        <pt x="434" y="283" on="1"/>
        <pt x="434" y="338" on="0"/>
      </contour>
    </TTGlyph>
    <TTGlyph name="SM700000" xMin="7" yMin="149" xMax="593" yMax="328">
      <contour>
        <pt x="7" y="149" on="1"/>
        <pt x="7" y="328" on="1"/>
        <pt x="593" y="328" on="1"/>
        <pt x="593" y="149" on="1"/>
      </contour>
    </TTGlyph>
    <TTGlyph name="SM750000" xMin="83" yMin="65" xMax="517" yMax="499">
      <contour>
        <pt x="210" y="499" on="0"/>
        <pt x="390" y="499" on="0"/>
        <pt x="517" y="372" on="0"/>
        <pt x="517" y="192" on="0"/>
        <pt x="389" y="65" on="0"/>
        <pt x="211" y="65" on="0"/>
        <pt x="83" y="192" on="0"/>
        <pt x="83" y="372" on="0"/>
      </contour>
      <contour>
        <pt x="300" y="449" on="1"/>
        <pt x="231" y="449" on="0"/>
        <pt x="133" y="351" on="0"/>
        <pt x="133" y="282" on="1"/>
        <pt x="133" y="214" on="0"/>
        <pt x="231" y="115" on="0"/>
        <pt x="369" y="115" on="0"/>
        <pt x="467" y="214" on="0"/>
        <pt x="467" y="282" on="1"/>
        <pt x="467" y="351" on="0"/>
        <pt x="368" y="449" on="0"/>
      </contour>
    </TTGlyph>
    <TTGlyph name="SM750002" xMin="18" yMin="0" xMax="582" yMax="564">
      <contour>
        <pt x="390" y="499" on="0"/>
        <pt x="210" y="499" on="0"/>
        <pt x="83" y="372" on="0"/>
        <pt x="83" y="192" on="0"/>
        <pt x="211" y="65" on="0"/>
        <pt x="389" y="65" on="0"/>
        <pt x="517" y="192" on="0"/>
        <pt x="517" y="372" on="0"/>
      </contour>
      <contour>
        <pt x="18" y="0" on="1"/>
        <pt x="18" y="564" on="1"/>
        <pt x="582" y="564" on="1"/>
        <pt x="582" y="0" on="1"/>
      </contour>
      <contour>
        <pt x="300" y="449" on="1"/>
        <pt x="368" y="449" on="0"/>
        <pt x="467" y="351" on="0"/>
        <pt x="467" y="282" on="1"/>
        <pt x="467" y="214" on="0"/>
        <pt x="369" y="115" on="0"/>
        <pt x="231" y="115" on="0"/>
        <pt x="133" y="214" on="0"/>
        <pt x="133" y="282" on="1"/>
        <pt x="133" y="351" on="0"/>
        <pt x="231" y="449" on="0"/>
      </contour>
    </TTGlyph>
    <TTGlyph name="SM760000" xMin="168" yMin="15" xMax="432" yMax="607">
      <contour>
        <pt x="321" y="461" on="1"/>
        <pt x="321" y="164" on="1"/>
        <pt x="388" y="204" on="0"/>
        <pt x="413" y="204" on="1"/>
        <pt x="419" y="204" on="0"/>
        <pt x="432" y="194" on="0"/>
        <pt x="432" y="183" on="1"/>
        <pt x="432" y="177" on="0"/>
        <pt x="420" y="163" on="0"/>
        <pt x="385" y="130" on="1"/>
        <pt x="340" y="87" on="0"/>
        <pt x="313" y="29" on="1"/>
        <pt x="308" y="15" on="0"/>
        <pt x="298" y="15" on="1"/>
        <pt x="291" y="15" on="0"/>
        <pt x="283" y="25" on="0"/>
        <pt x="272" y="46" on="1"/>
        <pt x="238" y="111" on="0"/>
        <pt x="187" y="156" on="1"/>
        <pt x="174" y="168" on="0"/>
        <pt x="168" y="176" on="0"/>
        <pt x="168" y="183" on="1"/>
        <pt x="168" y="193" on="0"/>
        <pt x="180" y="204" on="0"/>
        <pt x="187" y="204" on="1"/>
        <pt x="213" y="204" on="0"/>
        <pt x="271" y="164" on="1"/>
        <pt x="271" y="461" on="1"/>
        <pt x="250" y="446" on="0"/>
        <pt x="209" y="426" on="0"/>
        <pt x="190" y="421" on="0"/>
        <pt x="187" y="421" on="1"/>
        <pt x="181" y="421" on="0"/>
        <pt x="168" y="431" on="0"/>
        <pt x="168" y="441" on="1"/>
        <pt x="168" y="448" on="0"/>
        <pt x="176" y="458" on="0"/>
        <pt x="195" y="475" on="1"/>
        <pt x="241" y="516" on="0"/>
        <pt x="277" y="588" on="1"/>
        <pt x="286" y="607" on="0"/>
        <pt x="297" y="607" on="1"/>
        <pt x="304" y="607" on="0"/>
        <pt x="312" y="598" on="0"/>
        <pt x="318" y="583" on="1"/>
        <pt x="347" y="526" on="0"/>
        <pt x="415" y="467" on="1"/>
        <pt x="432" y="453" on="0"/>
        <pt x="432" y="431" on="0"/>
        <pt x="420" y="421" on="0"/>
        <pt x="414" y="421" on="1"/>
        <pt x="391" y="421" on="0"/>
      </contour>
    </TTGlyph>
    <TTGlyph name="SM770000" xMin="168" yMin="-87" xMax="432" yMax="607">
      <contour>
        <pt x="321" y="461" on="1"/>
        <pt x="321" y="164" on="1"/>
        <pt x="388" y="204" on="0"/>
        <pt x="413" y="204" on="1"/>
        <pt x="419" y="204" on="0"/>
        <pt x="432" y="194" on="0"/>
        <pt x="432" y="183" on="1"/>
        <pt x="432" y="177" on="0"/>
        <pt x="420" y="163" on="0"/>
        <pt x="385" y="130" on="1"/>
        <pt x="340" y="87" on="0"/>
        <pt x="313" y="29" on="1"/>
        <pt x="308" y="15" on="0"/>
        <pt x="298" y="15" on="1"/>
        <pt x="291" y="15" on="0"/>
        <pt x="283" y="25" on="0"/>
        <pt x="272" y="46" on="1"/>
        <pt x="238" y="111" on="0"/>
        <pt x="187" y="156" on="1"/>
        <pt x="174" y="168" on="0"/>
        <pt x="168" y="176" on="0"/>
        <pt x="168" y="183" on="1"/>
        <pt x="168" y="193" on="0"/>
        <pt x="180" y="204" on="0"/>
        <pt x="187" y="204" on="1"/>
        <pt x="213" y="204" on="0"/>
        <pt x="271" y="164" on="1"/>
        <pt x="271" y="461" on="1"/>
        <pt x="250" y="446" on="0"/>
        <pt x="209" y="426" on="0"/>
        <pt x="190" y="421" on="0"/>
        <pt x="187" y="421" on="1"/>
        <pt x="181" y="421" on="0"/>
        <pt x="168" y="431" on="0"/>
        <pt x="168" y="441" on="1"/>
        <pt x="168" y="448" on="0"/>
        <pt x="176" y="458" on="0"/>
        <pt x="195" y="475" on="1"/>
        <pt x="241" y="516" on="0"/>
        <pt x="277" y="588" on="1"/>
        <pt x="286" y="607" on="0"/>
        <pt x="297" y="607" on="1"/>
        <pt x="304" y="607" on="0"/>
        <pt x="312" y="598" on="0"/>
        <pt x="318" y="583" on="1"/>
        <pt x="347" y="526" on="0"/>
        <pt x="415" y="467" on="1"/>
        <pt x="432" y="453" on="0"/>
        <pt x="432" y="431" on="0"/>
        <pt x="420" y="421" on="0"/>
        <pt x="414" y="421" on="1"/>
        <pt x="391" y="421" on="0"/>
      </contour>
      <contour>
        <pt x="195" y="-37" on="1"/>
        <pt x="408" y="-37" on="1"/>
        <pt x="408" y="-87" on="1"/>
        <pt x="195" y="-87" on="1"/>
      </contour>
    </TTGlyph>
    <TTGlyph name="SM790000" xMin="73" yMin="0" xMax="527" yMax="567">
      <contour>
        <pt x="73" y="0" on="1"/>
        <pt x="73" y="312" on="1"/>
        <pt x="300" y="567" on="1"/>
        <pt x="527" y="312" on="1"/>
        <pt x="527" y="0" on="1"/>
      </contour>
      <contour>
        <pt x="126" y="290" on="1"/>
        <pt x="126" y="53" on="1"/>
        <pt x="474" y="53" on="1"/>
        <pt x="474" y="290" on="1"/>
        <pt x="300" y="485" on="1"/>
      </contour>
    </TTGlyph>
    <TTGlyph name="SP500000" xMin="18" yMin="0" xMax="582" yMax="564">
      <contour>
        <pt x="265" y="282" on="1"/>
        <pt x="118" y="430" on="1"/>
        <pt x="154" y="464" on="1"/>
        <pt x="300" y="317" on="1"/>
        <pt x="446" y="464" on="1"/>
        <pt x="482" y="430" on="1"/>
        <pt x="335" y="282" on="1"/>
        <pt x="482" y="136" on="1"/>
        <pt x="446" y="100" on="1"/>
        <pt x="300" y="247" on="1"/>
        <pt x="154" y="100" on="1"/>
        <pt x="118" y="136" on="1"/>
      </contour>
      <contour>
        <pt x="18" y="0" on="1"/>
        <pt x="18" y="564" on="1"/>
        <pt x="582" y="564" on="1"/>
        <pt x="582" y="0" on="1"/>
      </contour>
      <contour>
        <pt x="75" y="507" on="1"/>
        <pt x="75" y="57" on="1"/>
        <pt x="525" y="57" on="1"/>
        <pt x="525" y="507" on="1"/>
      </contour>
    </TTGlyph>
    <TTGlyph name="SS000000" xMin="18" yMin="0" xMax="582" yMax="563">
      <contour>
        <pt x="300" y="563" on="1"/>
        <pt x="416" y="563" on="0"/>
        <pt x="582" y="398" on="0"/>
        <pt x="582" y="282" on="1"/>
        <pt x="582" y="165" on="0"/>
        <pt x="416" y="0" on="0"/>
        <pt x="184" y="0" on="0"/>
        <pt x="18" y="165" on="0"/>
        <pt x="18" y="282" on="1"/>
        <pt x="18" y="398" on="0"/>
        <pt x="183" y="563" on="0"/>
      </contour>
      <contour>
        <pt x="401" y="525" on="0"/>
        <pt x="199" y="525" on="0"/>
        <pt x="56" y="383" on="0"/>
        <pt x="56" y="181" on="0"/>
        <pt x="199" y="38" on="0"/>
        <pt x="401" y="38" on="0"/>
        <pt x="544" y="181" on="0"/>
        <pt x="544" y="383" on="0"/>
      </contour>
      <contour>
        <pt x="200" y="399" on="0"/>
        <pt x="232" y="399" on="0"/>
        <pt x="255" y="376" on="0"/>
        <pt x="255" y="344" on="0"/>
        <pt x="232" y="321" on="0"/>
        <pt x="200" y="321" on="0"/>
        <pt x="177" y="344" on="0"/>
        <pt x="177" y="376" on="0"/>
      </contour>
      <contour>
        <pt x="368" y="399" on="0"/>
        <pt x="400" y="399" on="0"/>
        <pt x="423" y="376" on="0"/>
        <pt x="423" y="359" on="1"/>
        <pt x="423" y="343" on="0"/>
        <pt x="401" y="321" on="0"/>
        <pt x="384" y="321" on="1"/>
        <pt x="368" y="321" on="0"/>
        <pt x="345" y="343" on="0"/>
        <pt x="345" y="375" on="0"/>
      </contour>
      <contour>
        <pt x="483" y="316" on="1"/>
        <pt x="479" y="262" on="0"/>
        <pt x="460" y="200" on="0"/>
        <pt x="438" y="172" on="1"/>
        <pt x="390" y="110" on="0"/>
        <pt x="300" y="110" on="1"/>
        <pt x="202" y="110" on="0"/>
        <pt x="154" y="184" on="1"/>
        <pt x="123" y="231" on="0"/>
        <pt x="117" y="316" on="1"/>
        <pt x="128" y="268" on="0"/>
        <pt x="154" y="238" on="1"/>
        <pt x="208" y="175" on="0"/>
        <pt x="300" y="175" on="1"/>
        <pt x="393" y="175" on="0"/>
        <pt x="447" y="238" on="1"/>
        <pt x="472" y="266" on="0"/>
      </contour>
    </TTGlyph>
    <TTGlyph name="SS010000" xMin="18" yMin="0" xMax="582" yMax="563">
      <contour>
        <pt x="300" y="563" on="1"/>
        <pt x="416" y="563" on="0"/>
        <pt x="582" y="398" on="0"/>
        <pt x="582" y="282" on="1"/>
        <pt x="582" y="165" on="0"/>
        <pt x="416" y="0" on="0"/>
        <pt x="184" y="0" on="0"/>
        <pt x="18" y="165" on="0"/>
        <pt x="18" y="282" on="1"/>
        <pt x="18" y="398" on="0"/>
        <pt x="183" y="563" on="0"/>
      </contour>
      <contour>
        <pt x="213" y="403" on="1"/>
        <pt x="195" y="403" on="0"/>
        <pt x="170" y="378" on="0"/>
        <pt x="170" y="361" on="1"/>
        <pt x="170" y="343" on="0"/>
        <pt x="195" y="318" on="0"/>
        <pt x="213" y="318" on="1"/>
        <pt x="230" y="318" on="0"/>
        <pt x="255" y="343" on="0"/>
        <pt x="255" y="361" on="1"/>
        <pt x="255" y="378" on="0"/>
        <pt x="230" y="403" on="0"/>
      </contour>
      <contour>
        <pt x="391" y="403" on="1"/>
        <pt x="374" y="403" on="0"/>
        <pt x="349" y="378" on="0"/>
        <pt x="349" y="360" on="1"/>
        <pt x="349" y="343" on="0"/>
        <pt x="374" y="318" on="0"/>
        <pt x="391" y="318" on="1"/>
        <pt x="409" y="318" on="0"/>
        <pt x="434" y="343" on="0"/>
        <pt x="434" y="360" on="1"/>
        <pt x="434" y="378" on="0"/>
        <pt x="409" y="403" on="0"/>
      </contour>
      <contour>
        <pt x="483" y="316" on="1"/>
        <pt x="483" y="314" on="1"/>
        <pt x="481" y="316" on="1"/>
        <pt x="474" y="269" on="0"/>
        <pt x="447" y="238" on="1"/>
        <pt x="393" y="175" on="0"/>
        <pt x="300" y="175" on="1"/>
        <pt x="208" y="175" on="0"/>
        <pt x="154" y="238" on="1"/>
        <pt x="128" y="268" on="0"/>
        <pt x="119" y="316" on="1"/>
        <pt x="117" y="314" on="1"/>
        <pt x="123" y="231" on="0"/>
        <pt x="154" y="184" on="1"/>
        <pt x="202" y="110" on="0"/>
        <pt x="300" y="110" on="1"/>
        <pt x="389" y="110" on="0"/>
        <pt x="439" y="172" on="1"/>
        <pt x="461" y="199" on="0"/>
        <pt x="479" y="261" on="0"/>
      </contour>
    </TTGlyph>
    <TTGlyph name="SS260000" xMin="258" yMin="-245" xMax="477" yMax="841">
      <contour>
        <pt x="342" y="-245" on="1"/>
        <pt x="258" y="-245" on="1"/>
        <pt x="258" y="624" on="1"/>
        <pt x="258" y="729" on="0"/>
        <pt x="347" y="841" on="0"/>
        <pt x="404" y="841" on="1"/>
        <pt x="446" y="841" on="0"/>
        <pt x="477" y="802" on="0"/>
        <pt x="477" y="782" on="1"/>
        <pt x="477" y="758" on="0"/>
        <pt x="447" y="731" on="0"/>
        <pt x="428" y="731" on="1"/>
        <pt x="413" y="731" on="0"/>
        <pt x="391" y="742" on="0"/>
        <pt x="383" y="752" on="0"/>
        <pt x="375" y="763" on="1"/>
        <pt x="368" y="777" on="0"/>
        <pt x="360" y="777" on="1"/>
        <pt x="347" y="777" on="0"/>
        <pt x="342" y="749" on="0"/>
        <pt x="342" y="700" on="1"/>
      </contour>
    </TTGlyph>
    <TTGlyph name="SS270000" xMin="123" yMin="-245" xMax="342" yMax="841">
      <contour>
        <pt x="258" y="841" on="1"/>
        <pt x="342" y="841" on="1"/>
        <pt x="342" y="-28" on="1"/>
        <pt x="342" y="-135" on="0"/>
        <pt x="253" y="-245" on="0"/>
        <pt x="196" y="-245" on="1"/>
        <pt x="166" y="-245" on="0"/>
        <pt x="131" y="-220" on="0"/>
        <pt x="123" y="-197" on="0"/>
        <pt x="123" y="-186" on="1"/>
        <pt x="123" y="-163" on="0"/>
        <pt x="152" y="-135" on="0"/>
        <pt x="171" y="-135" on="1"/>
        <pt x="186" y="-135" on="0"/>
        <pt x="209" y="-146" on="0"/>
        <pt x="217" y="-156" on="0"/>
        <pt x="225" y="-167" on="1"/>
        <pt x="232" y="-182" on="0"/>
        <pt x="241" y="-182" on="1"/>
        <pt x="253" y="-182" on="0"/>
        <pt x="258" y="-153" on="0"/>
        <pt x="258" y="-104" on="1"/>
      </contour>
    </TTGlyph>
    <TTGlyph name="SV040000" xMin="102" yMin="96" xMax="498" yMax="467">
      <contour>
        <pt x="102" y="467" on="1"/>
        <pt x="498" y="467" on="1"/>
        <pt x="300" y="96" on="1"/>
      </contour>
    </TTGlyph>
    <TTGlyph name="Sacute" xMin="99" yMin="-20" xMax="513" yMax="751">
      <component glyphName="S" x="0" y="0" flags="0x1004"/>
      <component glyphName="acute" x="0" y="133" flags="0x1004"/>
    </TTGlyph>
    <TTGlyph name="Scaron" xMin="99" yMin="-20" xMax="513" yMax="761">
      <component glyphName="S" x="0" y="0" flags="0x1004"/>
      <component glyphName="caron" x="0" y="133" flags="0x1004"/>
    </TTGlyph>
    <TTGlyph name="Scedilla" xMin="99" yMin="-145" xMax="513" yMax="580">
      <contour>
        <pt x="328" y="-16" on="1"/>
        <pt x="327" y="-25" on="1"/>
        <pt x="358" y="-29" on="0"/>
        <pt x="393" y="-59" on="0"/>
        <pt x="398" y="-79" on="0"/>
        <pt x="398" y="-87" on="1"/>
        <pt x="398" y="-94" on="0"/>
        <pt x="394" y="-109" on="0"/>
        <pt x="380" y="-131" on="0"/>
        <pt x="344" y="-145" on="0"/>
        <pt x="317" y="-145" on="1"/>
        <pt x="274" y="-145" on="0"/>
        <pt x="207" y="-130" on="1"/>
        <pt x="214" y="-86" on="1"/>
        <pt x="270" y="-100" on="0"/>
        <pt x="317" y="-100" on="1"/>
        <pt x="351" y="-100" on="0"/>
        <pt x="351" y="-74" on="0"/>
        <pt x="316" y="-65" on="0"/>
        <pt x="279" y="-62" on="1"/>
        <pt x="284" y="-16" on="1"/>
        <pt x="234" y="-12" on="0"/>
        <pt x="195" y="12" on="1"/>
        <pt x="193" y="13" on="0"/>
        <pt x="179" y="24" on="0"/>
        <pt x="165" y="33" on="0"/>
        <pt x="163" y="33" on="1"/>
        <pt x="158" y="33" on="0"/>
        <pt x="153" y="25" on="1"/>
        <pt x="149" y="13" on="0"/>
        <pt x="144" y="-20" on="1"/>
        <pt x="99" y="-20" on="1"/>
        <pt x="108" y="23" on="0"/>
        <pt x="108" y="69" on="1"/>
        <pt x="108" y="91" on="0"/>
        <pt x="99" y="175" on="1"/>
        <pt x="144" y="175" on="1"/>
        <pt x="149" y="148" on="0"/>
        <pt x="162" y="113" on="0"/>
        <pt x="194" y="61" on="0"/>
        <pt x="257" y="33" on="0"/>
        <pt x="302" y="33" on="1"/>
        <pt x="377" y="33" on="0"/>
        <pt x="459" y="98" on="0"/>
        <pt x="459" y="148" on="1"/>
        <pt x="459" y="179" on="0"/>
        <pt x="432" y="221" on="0"/>
        <pt x="383" y="241" on="0"/>
        <pt x="346" y="249" on="0"/>
        <pt x="320" y="252" on="1"/>
        <pt x="286" y="255" on="0"/>
        <pt x="245" y="261" on="0"/>
        <pt x="174" y="283" on="0"/>
        <pt x="132" y="313" on="0"/>
        <pt x="99" y="370" on="0"/>
        <pt x="99" y="408" on="1"/>
        <pt x="99" y="478" on="0"/>
        <pt x="214" y="580" on="0"/>
        <pt x="298" y="580" on="1"/>
        <pt x="370" y="580" on="0"/>
        <pt x="422" y="539" on="1"/>
        <pt x="441" y="525" on="0"/>
        <pt x="445" y="525" on="1"/>
        <pt x="450" y="525" on="0"/>
        <pt x="456" y="538" on="1"/>
        <pt x="462" y="562" on="0"/>
        <pt x="462" y="574" on="1"/>
        <pt x="507" y="574" on="1"/>
        <pt x="498" y="535" on="0"/>
        <pt x="498" y="502" on="1"/>
        <pt x="498" y="456" on="0"/>
        <pt x="507" y="383" on="1"/>
        <pt x="462" y="375" on="1"/>
        <pt x="458" y="400" on="0"/>
        <pt x="448" y="436" on="0"/>
        <pt x="417" y="496" on="0"/>
        <pt x="351" y="530" on="0"/>
        <pt x="304" y="530" on="1"/>
        <pt x="236" y="530" on="0"/>
        <pt x="153" y="459" on="0"/>
        <pt x="153" y="412" on="1"/>
        <pt x="153" y="380" on="0"/>
        <pt x="184" y="336" on="0"/>
        <pt x="241" y="315" on="0"/>
        <pt x="277" y="308" on="0"/>
        <pt x="305" y="305" on="1"/>
        <pt x="368" y="298" on="0"/>
        <pt x="427" y="285" on="0"/>
        <pt x="451" y="269" on="1"/>
        <pt x="513" y="228" on="0"/>
        <pt x="513" y="153" on="1"/>
        <pt x="513" y="93" on="0"/>
        <pt x="426" y="-6" on="0"/>
      </contour>
    </TTGlyph>
    <TTGlyph name="Scircumflex" xMin="99" yMin="-20" xMax="513" yMax="754">
      <component glyphName="S" x="0" y="0" flags="0x1004"/>
      <component glyphName="circumflex" x="0" y="133" flags="0x1004"/>
    </TTGlyph>
    <TTGlyph name="Sigma" xMin="86" yMin="0" xMax="484" yMax="563">
      <contour>
        <pt x="86" y="563" on="1"/>
        <pt x="479" y="563" on="1"/>
        <pt x="479" y="380" on="1"/>
        <pt x="432" y="380" on="1"/>
        <pt x="423" y="516" on="1"/>
        <pt x="145" y="516" on="1"/>
        <pt x="325" y="298" on="1"/>
        <pt x="139" y="47" on="1"/>
        <pt x="432" y="47" on="1"/>
        <pt x="438" y="184" on="1"/>
        <pt x="484" y="184" on="1"/>
        <pt x="484" y="0" on="1"/>
        <pt x="86" y="0" on="1"/>
        <pt x="86" y="52" on="1"/>
        <pt x="264" y="298" on="1"/>
        <pt x="86" y="511" on="1"/>
      </contour>
    </TTGlyph>
    <TTGlyph name="T" xMin="43" yMin="0" xMax="557" yMax="563">
      <contour>
        <pt x="60" y="563" on="1"/>
        <pt x="540" y="563" on="1"/>
        <pt x="557" y="327" on="1"/>
        <pt x="509" y="321" on="1"/>
        <pt x="495" y="516" on="1"/>
        <pt x="325" y="516" on="1"/>
        <pt x="325" y="47" on="1"/>
        <pt x="446" y="47" on="1"/>
        <pt x="446" y="0" on="1"/>
        <pt x="154" y="0" on="1"/>
        <pt x="154" y="47" on="1"/>
        <pt x="275" y="47" on="1"/>
        <pt x="275" y="516" on="1"/>
        <pt x="105" y="516" on="1"/>
        <pt x="91" y="321" on="1"/>
        <pt x="43" y="327" on="1"/>
      </contour>
    </TTGlyph>
    <TTGlyph name="Tbar" xMin="43" yMin="0" xMax="557" yMax="563">
      <contour>
        <pt x="325" y="354" on="1"/>
        <pt x="465" y="354" on="1"/>
        <pt x="465" y="307" on="1"/>
        <pt x="325" y="307" on="1"/>
        <pt x="325" y="47" on="1"/>
        <pt x="448" y="47" on="1"/>
        <pt x="448" y="0" on="1"/>
        <pt x="154" y="0" on="1"/>
        <pt x="154" y="47" on="1"/>
        <pt x="275" y="47" on="1"/>
        <pt x="275" y="307" on="1"/>
        <pt x="135" y="307" on="1"/>
        <pt x="135" y="354" on="1"/>
        <pt x="275" y="354" on="1"/>
        <pt x="275" y="516" on="1"/>
        <pt x="105" y="516" on="1"/>
        <pt x="92" y="321" on="1"/>
        <pt x="43" y="327" on="1"/>
        <pt x="60" y="563" on="1"/>
        <pt x="540" y="563" on="1"/>
        <pt x="557" y="327" on="1"/>
        <pt x="509" y="321" on="1"/>
        <pt x="495" y="516" on="1"/>
        <pt x="325" y="516" on="1"/>
      </contour>
    </TTGlyph>
    <TTGlyph name="Tcaron" xMin="43" yMin="0" xMax="557" yMax="761">
      <component glyphName="T" x="0" y="0" flags="0x1004"/>
      <component glyphName="caron" x="0" y="133" flags="0x1004"/>
    </TTGlyph>
    <TTGlyph name="Tcedilla" xMin="43" yMin="-145" xMax="557" yMax="563">
      <contour>
        <pt x="315" y="0" on="1"/>
        <pt x="312" y="-25" on="1"/>
        <pt x="341" y="-29" on="0"/>
        <pt x="375" y="-56" on="0"/>
        <pt x="382" y="-77" on="0"/>
        <pt x="382" y="-87" on="1"/>
        <pt x="382" y="-94" on="0"/>
        <pt x="378" y="-109" on="0"/>
        <pt x="364" y="-131" on="0"/>
        <pt x="328" y="-145" on="0"/>
        <pt x="302" y="-145" on="1"/>
        <pt x="260" y="-145" on="0"/>
        <pt x="192" y="-130" on="1"/>
        <pt x="199" y="-86" on="1"/>
        <pt x="255" y="-100" on="0"/>
        <pt x="301" y="-100" on="1"/>
        <pt x="335" y="-100" on="0"/>
        <pt x="335" y="-74" on="0"/>
        <pt x="300" y="-65" on="0"/>
        <pt x="263" y="-62" on="1"/>
        <pt x="270" y="0" on="1"/>
        <pt x="154" y="0" on="1"/>
        <pt x="154" y="47" on="1"/>
        <pt x="275" y="47" on="1"/>
        <pt x="275" y="516" on="1"/>
        <pt x="105" y="516" on="1"/>
        <pt x="91" y="321" on="1"/>
        <pt x="43" y="327" on="1"/>
        <pt x="60" y="563" on="1"/>
        <pt x="540" y="563" on="1"/>
        <pt x="557" y="327" on="1"/>
        <pt x="509" y="321" on="1"/>
        <pt x="495" y="516" on="1"/>
        <pt x="325" y="516" on="1"/>
        <pt x="325" y="47" on="1"/>
        <pt x="446" y="47" on="1"/>
        <pt x="446" y="0" on="1"/>
      </contour>
    </TTGlyph>
    <TTGlyph name="Theta" xMin="43" yMin="-17" xMax="557" yMax="580">
      <contour>
        <pt x="164" y="377" on="1"/>
        <pt x="211" y="377" on="1"/>
        <pt x="211" y="310" on="1"/>
        <pt x="389" y="310" on="1"/>
        <pt x="389" y="377" on="1"/>
        <pt x="436" y="377" on="1"/>
        <pt x="436" y="196" on="1"/>
        <pt x="389" y="196" on="1"/>
        <pt x="389" y="263" on="1"/>
        <pt x="211" y="263" on="1"/>
        <pt x="211" y="196" on="1"/>
        <pt x="164" y="196" on="1"/>
      </contour>
      <contour>
        <pt x="43" y="155" on="0"/>
        <pt x="43" y="407" on="0"/>
        <pt x="185" y="580" on="0"/>
        <pt x="300" y="580" on="1"/>
        <pt x="417" y="580" on="0"/>
        <pt x="557" y="406" on="0"/>
        <pt x="557" y="281" on="1"/>
        <pt x="557" y="157" on="0"/>
        <pt x="417" y="-17" on="0"/>
        <pt x="300" y="-17" on="1"/>
        <pt x="184" y="-17" on="0"/>
      </contour>
      <contour>
        <pt x="95" y="387" on="0"/>
        <pt x="95" y="177" on="0"/>
        <pt x="210" y="30" on="0"/>
        <pt x="300" y="30" on="1"/>
        <pt x="391" y="30" on="0"/>
        <pt x="505" y="178" on="0"/>
        <pt x="505" y="282" on="1"/>
        <pt x="505" y="385" on="0"/>
        <pt x="391" y="533" on="0"/>
        <pt x="300" y="533" on="1"/>
        <pt x="210" y="533" on="0"/>
      </contour>
    </TTGlyph>
    <TTGlyph name="Thorn" xMin="71" yMin="0" xMax="534" yMax="563">
      <contour>
        <pt x="202" y="47" on="1"/>
        <pt x="315" y="47" on="1"/>
        <pt x="315" y="0" on="1"/>
        <pt x="71" y="0" on="1"/>
        <pt x="71" y="47" on="1"/>
        <pt x="152" y="47" on="1"/>
        <pt x="152" y="516" on="1"/>
        <pt x="71" y="516" on="1"/>
        <pt x="71" y="563" on="1"/>
        <pt x="315" y="563" on="1"/>
        <pt x="315" y="516" on="1"/>
        <pt x="202" y="516" on="1"/>
        <pt x="202" y="465" on="1"/>
        <pt x="257" y="465" on="1"/>
        <pt x="352" y="465" on="0"/>
        <pt x="429" y="454" on="0"/>
        <pt x="460" y="434" on="1"/>
        <pt x="493" y="413" on="0"/>
        <pt x="534" y="339" on="0"/>
        <pt x="534" y="295" on="1"/>
        <pt x="534" y="250" on="0"/>
        <pt x="492" y="171" on="0"/>
        <pt x="460" y="153" on="1"/>
        <pt x="425" y="133" on="0"/>
        <pt x="352" y="123" on="0"/>
        <pt x="257" y="123" on="1"/>
        <pt x="202" y="123" on="1"/>
      </contour>
      <contour>
        <pt x="300" y="418" on="1"/>
        <pt x="202" y="418" on="1"/>
        <pt x="202" y="170" on="1"/>
        <pt x="259" y="170" on="1"/>
        <pt x="314" y="170" on="0"/>
        <pt x="360" y="171" on="0"/>
        <pt x="422" y="184" on="0"/>
        <pt x="438" y="197" on="1"/>
        <pt x="480" y="230" on="0"/>
        <pt x="480" y="292" on="1"/>
        <pt x="480" y="330" on="0"/>
        <pt x="444" y="386" on="0"/>
        <pt x="420" y="398" on="1"/>
        <pt x="383" y="418" on="0"/>
      </contour>
    </TTGlyph>
    <TTGlyph name="U" xMin="24" yMin="-17" xMax="577" yMax="563">
      <contour>
        <pt x="24" y="563" on="1"/>
        <pt x="248" y="563" on="1"/>
        <pt x="248" y="516" on="1"/>
        <pt x="146" y="516" on="1"/>
        <pt x="146" y="234" on="1"/>
        <pt x="146" y="143" on="0"/>
        <pt x="165" y="104" on="1"/>
        <pt x="199" y="33" on="0"/>
        <pt x="299" y="33" on="1"/>
        <pt x="403" y="33" on="0"/>
        <pt x="435" y="96" on="1"/>
        <pt x="455" y="132" on="0"/>
        <pt x="455" y="224" on="1"/>
        <pt x="455" y="516" on="1"/>
        <pt x="353" y="516" on="1"/>
        <pt x="353" y="563" on="1"/>
        <pt x="577" y="563" on="1"/>
        <pt x="577" y="516" on="1"/>
        <pt x="505" y="516" on="1"/>
        <pt x="505" y="224" on="1"/>
        <pt x="505" y="106" on="0"/>
        <pt x="469" y="56" on="1"/>
        <pt x="449" y="28" on="0"/>
        <pt x="361" y="-17" on="0"/>
        <pt x="300" y="-17" on="1"/>
        <pt x="185" y="-17" on="0"/>
        <pt x="130" y="61" on="1"/>
        <pt x="96" y="110" on="0"/>
        <pt x="96" y="234" on="1"/>
        <pt x="96" y="516" on="1"/>
        <pt x="24" y="516" on="1"/>
      </contour>
    </TTGlyph>
    <TTGlyph name="Uacute" xMin="24" yMin="-17" xMax="577" yMax="751">
      <component glyphName="U" x="0" y="0" flags="0x1004"/>
      <component glyphName="acute" x="0" y="133" flags="0x1004"/>
    </TTGlyph>
    <TTGlyph name="Ubreve" xMin="24" yMin="-17" xMax="577" yMax="757">
      <component glyphName="U" x="0" y="0" flags="0x1004"/>
      <component glyphName="breve" x="0" y="133" flags="0x1004"/>
    </TTGlyph>
    <TTGlyph name="Ucircumflex" xMin="24" yMin="-17" xMax="577" yMax="754">
      <component glyphName="U" x="0" y="0" flags="0x1004"/>
      <component glyphName="circumflex" x="0" y="133" flags="0x1004"/>
    </TTGlyph>
    <TTGlyph name="Udieresis" xMin="24" yMin="-17" xMax="577" yMax="754">
      <component glyphName="U" x="0" y="0" flags="0x1004"/>
      <component glyphName="dieresis" x="0" y="133" flags="0x1004"/>
    </TTGlyph>
    <TTGlyph name="Ugrave" xMin="24" yMin="-17" xMax="577" yMax="751">
      <component glyphName="U" x="0" y="0" flags="0x1004"/>
      <component glyphName="grave" x="0" y="133" flags="0x1004"/>
    </TTGlyph>
    <TTGlyph name="Uhungarumlaut" xMin="24" yMin="-17" xMax="577" yMax="750">
      <component glyphName="U" x="0" y="0" flags="0x1004"/>
      <component glyphName="hungarumlaut" x="0" y="133" flags="0x1004"/>
    </TTGlyph>
    <TTGlyph name="Umacron" xMin="24" yMin="-17" xMax="577" yMax="725">
      <component glyphName="U" x="0" y="0" flags="0x1004"/>
      <component glyphName="macron" x="0" y="133" flags="0x1004"/>
    </TTGlyph>
    <TTGlyph name="Uogonek" xMin="24" yMin="-117" xMax="577" yMax="563">
      <contour>
        <pt x="404" y="-40" on="1"/>
        <pt x="395" y="-93" on="1"/>
        <pt x="367" y="-117" on="0"/>
        <pt x="336" y="-117" on="1"/>
        <pt x="311" y="-117" on="0"/>
        <pt x="278" y="-83" on="0"/>
        <pt x="278" y="-59" on="1"/>
        <pt x="278" y="-36" on="0"/>
        <pt x="294" y="-17" on="1"/>
        <pt x="253" y="-14" on="0"/>
        <pt x="188" y="7" on="0"/>
        <pt x="147" y="35" on="0"/>
        <pt x="118" y="80" on="0"/>
        <pt x="104" y="115" on="0"/>
        <pt x="97" y="171" on="0"/>
        <pt x="96" y="200" on="0"/>
        <pt x="96" y="226" on="1"/>
        <pt x="96" y="231" on="0"/>
        <pt x="96" y="234" on="1"/>
        <pt x="96" y="516" on="1"/>
        <pt x="24" y="516" on="1"/>
        <pt x="24" y="563" on="1"/>
        <pt x="248" y="563" on="1"/>
        <pt x="248" y="516" on="1"/>
        <pt x="146" y="516" on="1"/>
        <pt x="146" y="234" on="1"/>
        <pt x="146" y="200" on="0"/>
        <pt x="148" y="161" on="0"/>
        <pt x="164" y="97" on="0"/>
        <pt x="194" y="61" on="0"/>
        <pt x="255" y="33" on="0"/>
        <pt x="299" y="33" on="1"/>
        <pt x="328" y="33" on="0"/>
        <pt x="373" y="41" on="0"/>
        <pt x="405" y="60" on="0"/>
        <pt x="429" y="79" on="0"/>
        <pt x="443" y="112" on="0"/>
        <pt x="451" y="135" on="0"/>
        <pt x="454" y="178" on="0"/>
        <pt x="455" y="201" on="0"/>
        <pt x="455" y="224" on="1"/>
        <pt x="455" y="516" on="1"/>
        <pt x="353" y="516" on="1"/>
        <pt x="353" y="563" on="1"/>
        <pt x="577" y="563" on="1"/>
        <pt x="577" y="516" on="1"/>
        <pt x="505" y="516" on="1"/>
        <pt x="505" y="224" on="1"/>
        <pt x="505" y="118" on="0"/>
        <pt x="460" y="29" on="0"/>
        <pt x="390" y="-2" on="1"/>
        <pt x="337" y="-24" on="0"/>
        <pt x="337" y="-46" on="1"/>
        <pt x="337" y="-65" on="0"/>
        <pt x="356" y="-65" on="1"/>
        <pt x="369" y="-65" on="0"/>
      </contour>
    </TTGlyph>
    <TTGlyph name="Uring" xMin="24" yMin="-17" xMax="577" yMax="775">
      <component glyphName="U" x="0" y="0" flags="0x1004"/>
      <component glyphName="ring" x="0" y="133" flags="0x1004"/>
    </TTGlyph>
    <TTGlyph name="Utilde" xMin="24" yMin="-17" xMax="577" yMax="753">
      <component glyphName="U" x="0" y="0" flags="0x1004"/>
      <component glyphName="tilde" x="0" y="133" flags="0x1004"/>
    </TTGlyph>
    <TTGlyph name="V" xMin="6" yMin="0" xMax="594" yMax="563">
      <contour>
        <pt x="6" y="563" on="1"/>
        <pt x="220" y="563" on="1"/>
        <pt x="220" y="516" on="1"/>
        <pt x="126" y="516" on="1"/>
        <pt x="303" y="56" on="1"/>
        <pt x="483" y="516" on="1"/>
        <pt x="381" y="516" on="1"/>
        <pt x="381" y="563" on="1"/>
        <pt x="594" y="563" on="1"/>
        <pt x="594" y="516" on="1"/>
        <pt x="531" y="516" on="1"/>
        <pt x="333" y="0" on="1"/>
        <pt x="271" y="0" on="1"/>
        <pt x="75" y="516" on="1"/>
        <pt x="6" y="516" on="1"/>
      </contour>
    </TTGlyph>
    <TTGlyph name="W" xMin="2" yMin="0" xMax="598" yMax="563">
      <contour>
        <pt x="2" y="563" on="1"/>
        <pt x="199" y="563" on="1"/>
        <pt x="199" y="516" on="1"/>
        <pt x="98" y="516" on="1"/>
        <pt x="154" y="96" on="1"/>
        <pt x="156" y="96" on="1"/>
        <pt x="285" y="460" on="1"/>
        <pt x="319" y="460" on="1"/>
        <pt x="445" y="96" on="1"/>
        <pt x="447" y="96" on="1"/>
        <pt x="505" y="516" on="1"/>
        <pt x="403" y="516" on="1"/>
        <pt x="403" y="563" on="1"/>
        <pt x="598" y="563" on="1"/>
        <pt x="598" y="516" on="1"/>
        <pt x="552" y="516" on="1"/>
        <pt x="477" y="0" on="1"/>
        <pt x="427" y="0" on="1"/>
        <pt x="300" y="364" on="1"/>
        <pt x="298" y="364" on="1"/>
        <pt x="169" y="0" on="1"/>
        <pt x="119" y="0" on="1"/>
        <pt x="49" y="516" on="1"/>
        <pt x="2" y="516" on="1"/>
      </contour>
    </TTGlyph>
    <TTGlyph name="X" xMin="33" yMin="0" xMax="567" yMax="563">
      <contour>
        <pt x="52" y="563" on="1"/>
        <pt x="246" y="563" on="1"/>
        <pt x="246" y="516" on="1"/>
        <pt x="164" y="516" on="1"/>
        <pt x="301" y="333" on="1"/>
        <pt x="441" y="516" on="1"/>
        <pt x="365" y="516" on="1"/>
        <pt x="365" y="563" on="1"/>
        <pt x="548" y="563" on="1"/>
        <pt x="548" y="516" on="1"/>
        <pt x="497" y="516" on="1"/>
        <pt x="329" y="296" on="1"/>
        <pt x="515" y="47" on="1"/>
        <pt x="567" y="47" on="1"/>
        <pt x="567" y="0" on="1"/>
        <pt x="365" y="0" on="1"/>
        <pt x="365" y="47" on="1"/>
        <pt x="455" y="47" on="1"/>
        <pt x="301" y="259" on="1"/>
        <pt x="140" y="47" on="1"/>
        <pt x="246" y="47" on="1"/>
        <pt x="246" y="0" on="1"/>
        <pt x="33" y="0" on="1"/>
        <pt x="33" y="47" on="1"/>
        <pt x="84" y="47" on="1"/>
        <pt x="273" y="296" on="1"/>
        <pt x="105" y="516" on="1"/>
        <pt x="52" y="516" on="1"/>
      </contour>
    </TTGlyph>
    <TTGlyph name="Y" xMin="32" yMin="0" xMax="568" yMax="563">
      <contour>
        <pt x="32" y="563" on="1"/>
        <pt x="228" y="563" on="1"/>
        <pt x="228" y="516" on="1"/>
        <pt x="152" y="516" on="1"/>
        <pt x="303" y="268" on="1"/>
        <pt x="452" y="516" on="1"/>
        <pt x="374" y="516" on="1"/>
        <pt x="374" y="563" on="1"/>
        <pt x="568" y="563" on="1"/>
        <pt x="568" y="516" on="1"/>
        <pt x="505" y="516" on="1"/>
        <pt x="326" y="218" on="1"/>
        <pt x="326" y="47" on="1"/>
        <pt x="444" y="47" on="1"/>
        <pt x="444" y="0" on="1"/>
        <pt x="157" y="0" on="1"/>
        <pt x="157" y="47" on="1"/>
        <pt x="276" y="47" on="1"/>
        <pt x="276" y="218" on="1"/>
        <pt x="95" y="516" on="1"/>
        <pt x="32" y="516" on="1"/>
      </contour>
    </TTGlyph>
    <TTGlyph name="Yacute" xMin="32" yMin="0" xMax="568" yMax="751">
      <component glyphName="Y" x="0" y="0" flags="0x1004"/>
      <component glyphName="acute" x="0" y="133" flags="0x1004"/>
    </TTGlyph>
    <TTGlyph name="Ydieresis" xMin="32" yMin="0" xMax="568" yMax="754">
      <component glyphName="Y" x="0" y="0" flags="0x1004"/>
      <component glyphName="dieresis" x="0" y="133" flags="0x1004"/>
    </TTGlyph>
    <TTGlyph name="Z" xMin="84" yMin="0" xMax="516" yMax="563">
      <contour>
        <pt x="91" y="563" on="1"/>
        <pt x="493" y="563" on="1"/>
        <pt x="493" y="522" on="1"/>
        <pt x="144" y="47" on="1"/>
        <pt x="469" y="47" on="1"/>
        <pt x="469" y="209" on="1"/>
        <pt x="516" y="209" on="1"/>
        <pt x="516" y="0" on="1"/>
        <pt x="84" y="0" on="1"/>
        <pt x="84" y="47" on="1"/>
        <pt x="429" y="516" on="1"/>
        <pt x="138" y="516" on="1"/>
        <pt x="138" y="370" on="1"/>
        <pt x="91" y="370" on="1"/>
      </contour>
    </TTGlyph>
    <TTGlyph name="Zacute" xMin="84" yMin="0" xMax="516" yMax="751">
      <component glyphName="Z" x="0" y="0" flags="0x1004"/>
      <component glyphName="acute" x="0" y="133" flags="0x1004"/>
    </TTGlyph>
    <TTGlyph name="Zcaron" xMin="84" yMin="0" xMax="516" yMax="761">
      <component glyphName="Z" x="0" y="0" flags="0x1004"/>
      <component glyphName="caron" x="0" y="133" flags="0x1004"/>
    </TTGlyph>
    <TTGlyph name="Zdotaccent" xMin="84" yMin="0" xMax="516" yMax="754">
      <component glyphName="Z" x="0" y="0" flags="0x1004"/>
      <component glyphName="dotaccent" x="0" y="133" flags="0x1004"/>
    </TTGlyph>
    <TTGlyph name="a" xMin="59" yMin="-14" xMax="550" yMax="450">
      <contour>
        <pt x="461" y="296" on="1"/>
        <pt x="461" y="47" on="1"/>
        <pt x="550" y="47" on="1"/>
        <pt x="550" y="0" on="1"/>
        <pt x="411" y="0" on="1"/>
        <pt x="411" y="72" on="1"/>
        <pt x="318" y="-14" on="0"/>
        <pt x="220" y="-14" on="1"/>
        <pt x="149" y="-14" on="0"/>
        <pt x="59" y="72" on="0"/>
        <pt x="59" y="127" on="1"/>
        <pt x="59" y="150" on="0"/>
        <pt x="80" y="198" on="0"/>
        <pt x="125" y="247" on="0"/>
        <pt x="212" y="278" on="0"/>
        <pt x="271" y="278" on="1"/>
        <pt x="345" y="278" on="0"/>
        <pt x="411" y="265" on="1"/>
        <pt x="411" y="296" on="1"/>
        <pt x="411" y="310" on="0"/>
        <pt x="409" y="329" on="0"/>
        <pt x="397" y="364" on="0"/>
        <pt x="373" y="385" on="0"/>
        <pt x="324" y="402" on="0"/>
        <pt x="290" y="402" on="1"/>
        <pt x="215" y="402" on="0"/>
        <pt x="119" y="360" on="1"/>
        <pt x="100" y="405" on="1"/>
        <pt x="208" y="450" on="0"/>
        <pt x="291" y="450" on="1"/>
        <pt x="339" y="450" on="0"/>
        <pt x="408" y="424" on="0"/>
        <pt x="441" y="392" on="0"/>
        <pt x="459" y="341" on="0"/>
        <pt x="461" y="315" on="0"/>
      </contour>
      <contour>
        <pt x="411" y="139" on="1"/>
        <pt x="411" y="219" on="1"/>
        <pt x="348" y="230" on="0"/>
        <pt x="281" y="230" on="1"/>
        <pt x="235" y="230" on="0"/>
        <pt x="166" y="210" on="0"/>
        <pt x="134" y="185" on="0"/>
        <pt x="116" y="150" on="0"/>
        <pt x="113" y="133" on="0"/>
        <pt x="113" y="126" on="1"/>
        <pt x="113" y="89" on="0"/>
        <pt x="177" y="34" on="0"/>
        <pt x="219" y="34" on="1"/>
        <pt x="317" y="34" on="0"/>
      </contour>
    </TTGlyph>
    <TTGlyph name="aacute" xMin="59" yMin="-14" xMax="550" yMax="618">
      <component glyphName="a" x="0" y="0" flags="0x1004"/>
      <component glyphName="acute" x="0" y="0" flags="0x1004"/>
    </TTGlyph>
    <TTGlyph name="abreve" xMin="59" yMin="-14" xMax="550" yMax="624">
      <component glyphName="a" x="0" y="0" flags="0x1004"/>
      <component glyphName="breve" x="0" y="0" flags="0x1004"/>
    </TTGlyph>
    <TTGlyph name="acircumflex" xMin="59" yMin="-14" xMax="550" yMax="621">
      <component glyphName="a" x="0" y="0" flags="0x1004"/>
      <component glyphName="circumflex" x="-20" y="0" flags="0x1004"/>
    </TTGlyph>
    <TTGlyph name="acute" xMin="215" yMin="503" xMax="411" yMax="618">
      <contour>
        <pt x="411" y="618" on="1"/>
        <pt x="268" y="503" on="1"/>
        <pt x="215" y="503" on="1"/>
        <pt x="304" y="618" on="1"/>
      </contour>
    </TTGlyph>
    <TTGlyph name="adieresis" xMin="59" yMin="-14" xMax="550" yMax="621">
      <component glyphName="a" x="0" y="0" flags="0x1004"/>
      <component glyphName="dieresis" x="-20" y="0" flags="0x1004"/>
    </TTGlyph>
    <TTGlyph name="ae" xMin="33" yMin="-15" xMax="568" yMax="450">
      <contour>
        <pt x="563" y="203" on="1"/>
        <pt x="320" y="203" on="1"/>
        <pt x="322" y="155" on="0"/>
        <pt x="334" y="100" on="0"/>
        <pt x="352" y="76" on="1"/>
        <pt x="383" y="34" on="0"/>
        <pt x="437" y="34" on="1"/>
        <pt x="484" y="34" on="0"/>
        <pt x="550" y="56" on="1"/>
        <pt x="568" y="13" on="1"/>
        <pt x="490" y="-14" on="0"/>
        <pt x="435" y="-14" on="1"/>
        <pt x="357" y="-14" on="0"/>
        <pt x="306" y="60" on="1"/>
        <pt x="231" y="-15" on="0"/>
        <pt x="157" y="-15" on="1"/>
        <pt x="100" y="-15" on="0"/>
        <pt x="33" y="63" on="0"/>
        <pt x="33" y="116" on="1"/>
        <pt x="33" y="173" on="0"/>
        <pt x="118" y="266" on="0"/>
        <pt x="193" y="266" on="1"/>
        <pt x="203" y="266" on="0"/>
        <pt x="270" y="257" on="1"/>
        <pt x="270" y="292" on="1"/>
        <pt x="270" y="349" on="0"/>
        <pt x="241" y="402" on="0"/>
        <pt x="153" y="402" on="0"/>
        <pt x="77" y="375" on="1"/>
        <pt x="63" y="419" on="1"/>
        <pt x="144" y="450" on="0"/>
        <pt x="198" y="450" on="1"/>
        <pt x="247" y="450" on="0"/>
        <pt x="294" y="410" on="0"/>
        <pt x="306" y="375" on="1"/>
        <pt x="322" y="396" on="0"/>
        <pt x="344" y="421" on="0"/>
        <pt x="396" y="450" on="0"/>
        <pt x="425" y="450" on="1"/>
        <pt x="436" y="450" on="0"/>
        <pt x="459" y="446" on="0"/>
        <pt x="508" y="419" on="0"/>
        <pt x="542" y="372" on="0"/>
        <pt x="566" y="272" on="0"/>
      </contour>
      <contour>
        <pt x="270" y="89" on="1"/>
        <pt x="270" y="209" on="1"/>
        <pt x="226" y="218" on="0"/>
        <pt x="194" y="218" on="1"/>
        <pt x="134" y="218" on="0"/>
        <pt x="83" y="153" on="0"/>
        <pt x="83" y="116" on="1"/>
        <pt x="83" y="83" on="0"/>
        <pt x="121" y="33" on="0"/>
        <pt x="156" y="33" on="1"/>
        <pt x="205" y="33" on="0"/>
      </contour>
      <contour>
        <pt x="320" y="250" on="1"/>
        <pt x="513" y="250" on="1"/>
        <pt x="512" y="323" on="0"/>
        <pt x="465" y="402" on="0"/>
        <pt x="424" y="402" on="1"/>
        <pt x="384" y="402" on="0"/>
        <pt x="351" y="362" on="1"/>
        <pt x="337" y="345" on="0"/>
        <pt x="323" y="306" on="0"/>
        <pt x="321" y="277" on="0"/>
      </contour>
    </TTGlyph>
    <TTGlyph name="afii299" xMin="-48" yMin="649" xMax="68" yMax="786">
      <contour>
        <pt x="-48" y="649" on="1"/>
        <pt x="-48" y="786" on="1"/>
        <pt x="68" y="718" on="1"/>
      </contour>
    </TTGlyph>
    <TTGlyph name="afii300" xMin="-68" yMin="649" xMax="48" yMax="786">
      <contour>
        <pt x="-68" y="718" on="1"/>
        <pt x="48" y="786" on="1"/>
        <pt x="48" y="649" on="1"/>
      </contour>
    </TTGlyph>
    <TTGlyph name="afii301" xMin="-184" yMin="0" xMax="184" yMax="782">
      <contour>
        <pt x="0" y="782" on="1"/>
        <pt x="18" y="782" on="0"/>
        <pt x="77" y="767" on="0"/>
        <pt x="126" y="742" on="0"/>
        <pt x="166" y="712" on="0"/>
        <pt x="184" y="696" on="1"/>
        <pt x="184" y="695" on="0"/>
        <pt x="182" y="692" on="1"/>
        <pt x="178" y="686" on="1"/>
        <pt x="172" y="680" on="1"/>
        <pt x="152" y="693" on="0"/>
        <pt x="112" y="713" on="0"/>
        <pt x="66" y="725" on="0"/>
        <pt x="15" y="730" on="0"/>
        <pt x="-15" y="730" on="0"/>
        <pt x="-66" y="725" on="0"/>
        <pt x="-112" y="714" on="0"/>
        <pt x="-152" y="695" on="0"/>
        <pt x="-172" y="680" on="1"/>
        <pt x="-175" y="684" on="0"/>
        <pt x="-178" y="687" on="1"/>
        <pt x="-180" y="689" on="0"/>
        <pt x="-184" y="695" on="0"/>
        <pt x="-184" y="696" on="1"/>
        <pt x="-166" y="712" on="0"/>
        <pt x="-126" y="742" on="0"/>
        <pt x="-77" y="767" on="0"/>
        <pt x="-18" y="782" on="0"/>
      </contour>
      <contour>
        <pt x="22" y="636" on="1"/>
        <pt x="22" y="628" on="0"/>
        <pt x="10" y="614" on="0"/>
        <pt x="0" y="614" on="1"/>
        <pt x="-10" y="614" on="0"/>
        <pt x="-22" y="628" on="0"/>
        <pt x="-22" y="636" on="1"/>
        <pt x="-22" y="646" on="0"/>
        <pt x="-10" y="659" on="0"/>
        <pt x="0" y="659" on="1"/>
        <pt x="10" y="659" on="0"/>
        <pt x="22" y="646" on="0"/>
      </contour>
      <contour>
        <pt x="22" y="534" on="1"/>
        <pt x="22" y="524" on="0"/>
        <pt x="10" y="512" on="0"/>
        <pt x="0" y="512" on="1"/>
        <pt x="-10" y="512" on="0"/>
        <pt x="-22" y="524" on="0"/>
        <pt x="-22" y="534" on="1"/>
        <pt x="-22" y="543" on="0"/>
        <pt x="-10" y="555" on="0"/>
        <pt x="0" y="555" on="1"/>
        <pt x="10" y="555" on="0"/>
        <pt x="22" y="543" on="0"/>
      </contour>
      <contour>
        <pt x="22" y="432" on="1"/>
        <pt x="22" y="422" on="0"/>
        <pt x="10" y="410" on="0"/>
        <pt x="0" y="410" on="1"/>
        <pt x="-10" y="410" on="0"/>
        <pt x="-22" y="422" on="0"/>
        <pt x="-22" y="432" on="1"/>
        <pt x="-22" y="440" on="0"/>
        <pt x="-10" y="454" on="0"/>
        <pt x="0" y="454" on="1"/>
        <pt x="10" y="454" on="0"/>
        <pt x="22" y="440" on="0"/>
      </contour>
      <contour>
        <pt x="22" y="328" on="1"/>
        <pt x="22" y="320" on="0"/>
        <pt x="10" y="308" on="0"/>
        <pt x="0" y="308" on="1"/>
        <pt x="-10" y="308" on="0"/>
        <pt x="-22" y="320" on="0"/>
        <pt x="-22" y="328" on="1"/>
        <pt x="-22" y="338" on="0"/>
        <pt x="-10" y="351" on="0"/>
        <pt x="0" y="351" on="1"/>
        <pt x="10" y="351" on="0"/>
        <pt x="22" y="338" on="0"/>
      </contour>
      <contour>
        <pt x="22" y="226" on="1"/>
        <pt x="22" y="218" on="0"/>
        <pt x="10" y="204" on="0"/>
        <pt x="0" y="204" on="1"/>
        <pt x="-10" y="204" on="0"/>
        <pt x="-22" y="218" on="0"/>
        <pt x="-22" y="226" on="1"/>
        <pt x="-22" y="236" on="0"/>
        <pt x="-10" y="249" on="0"/>
        <pt x="0" y="249" on="1"/>
        <pt x="10" y="249" on="0"/>
        <pt x="22" y="236" on="0"/>
      </contour>
      <contour>
        <pt x="22" y="124" on="1"/>
        <pt x="22" y="114" on="0"/>
        <pt x="10" y="102" on="0"/>
        <pt x="0" y="102" on="1"/>
        <pt x="-10" y="102" on="0"/>
        <pt x="-22" y="114" on="0"/>
        <pt x="-22" y="124" on="1"/>
        <pt x="-22" y="133" on="0"/>
        <pt x="-10" y="146" on="0"/>
        <pt x="0" y="146" on="1"/>
        <pt x="10" y="146" on="0"/>
        <pt x="22" y="133" on="0"/>
      </contour>
      <contour>
        <pt x="22" y="22" on="1"/>
        <pt x="22" y="13" on="0"/>
        <pt x="10" y="0" on="0"/>
        <pt x="0" y="0" on="1"/>
        <pt x="-10" y="0" on="0"/>
        <pt x="-22" y="13" on="0"/>
        <pt x="-22" y="22" on="1"/>
        <pt x="-22" y="30" on="0"/>
        <pt x="-10" y="43" on="0"/>
        <pt x="0" y="43" on="1"/>
        <pt x="10" y="43" on="0"/>
        <pt x="22" y="30" on="0"/>
      </contour>
    </TTGlyph>
    <TTGlyph name="afii57505" xMin="24" yMin="14" xMax="618" yMax="732">
      <contour>
        <pt x="301" y="553" on="1"/>
        <pt x="244" y="496" on="1"/>
        <pt x="183" y="558" on="1"/>
        <pt x="240" y="615" on="1"/>
      </contour>
      <contour>
        <pt x="485" y="555" on="1"/>
        <pt x="428" y="498" on="1"/>
        <pt x="366" y="559" on="1"/>
        <pt x="423" y="617" on="1"/>
      </contour>
      <contour>
        <pt x="389" y="670" on="1"/>
        <pt x="333" y="613" on="1"/>
        <pt x="271" y="675" on="1"/>
        <pt x="328" y="732" on="1"/>
      </contour>
      <contour>
        <pt x="362" y="15" on="1"/>
        <pt x="138" y="15" on="1"/>
        <pt x="81" y="15" on="0"/>
        <pt x="24" y="66" on="0"/>
        <pt x="24" y="126" on="1"/>
        <pt x="24" y="159" on="0"/>
        <pt x="60" y="239" on="0"/>
        <pt x="70" y="257" on="1"/>
        <pt x="33" y="166" on="0"/>
        <pt x="78" y="122" on="1"/>
        <pt x="102" y="98" on="0"/>
        <pt x="167" y="98" on="1"/>
        <pt x="173" y="98" on="1"/>
        <pt x="362" y="98" on="1"/>
        <pt x="509" y="98" on="1"/>
        <pt x="421" y="135" on="1"/>
        <pt x="380" y="153" on="0"/>
        <pt x="374" y="171" on="1"/>
        <pt x="373" y="173" on="0"/>
        <pt x="373" y="173" on="1"/>
        <pt x="386" y="265" on="1"/>
        <pt x="388" y="277" on="1"/>
        <pt x="400" y="352" on="0"/>
        <pt x="421" y="399" on="1"/>
        <pt x="446" y="451" on="0"/>
        <pt x="475" y="451" on="1"/>
        <pt x="518" y="451" on="0"/>
        <pt x="564" y="364" on="1"/>
        <pt x="618" y="263" on="0"/>
        <pt x="618" y="134" on="1"/>
        <pt x="618" y="49" on="1"/>
        <pt x="618" y="30" on="0"/>
        <pt x="601" y="15" on="0"/>
        <pt x="570" y="15" on="1"/>
      </contour>
      <contour>
        <pt x="408" y="244" on="1"/>
        <pt x="412" y="240" on="1"/>
        <pt x="581" y="170" on="1"/>
        <pt x="562" y="262" on="0"/>
        <pt x="513" y="307" on="1"/>
        <pt x="486" y="332" on="0"/>
        <pt x="459" y="334" on="1"/>
        <pt x="419" y="336" on="0"/>
      </contour>
    </TTGlyph>
    <TTGlyph name="afii57511" xMin="34" yMin="15" xMax="603" yMax="501">
      <contour>
        <pt x="390" y="285" on="1"/>
        <pt x="394" y="285" on="0"/>
        <pt x="398" y="285" on="1"/>
        <pt x="402" y="285" on="0"/>
        <pt x="405" y="287" on="1"/>
        <pt x="407" y="288" on="0"/>
        <pt x="409" y="290" on="1"/>
        <pt x="412" y="293" on="0"/>
        <pt x="413" y="296" on="1"/>
        <pt x="414" y="302" on="0"/>
        <pt x="414" y="307" on="1"/>
        <pt x="412" y="313" on="0"/>
        <pt x="409" y="319" on="1"/>
        <pt x="406" y="323" on="0"/>
        <pt x="402" y="327" on="1"/>
        <pt x="398" y="330" on="0"/>
        <pt x="393" y="333" on="1"/>
        <pt x="387" y="336" on="0"/>
        <pt x="380" y="339" on="1"/>
        <pt x="373" y="341" on="0"/>
        <pt x="366" y="341" on="1"/>
        <pt x="359" y="341" on="0"/>
        <pt x="353" y="339" on="1"/>
        <pt x="345" y="337" on="0"/>
        <pt x="338" y="333" on="1"/>
        <pt x="328" y="326" on="0"/>
        <pt x="318" y="318" on="1"/>
        <pt x="309" y="309" on="0"/>
        <pt x="300" y="300" on="1"/>
        <pt x="286" y="285" on="1"/>
      </contour>
      <contour>
        <pt x="426" y="318" on="1"/>
        <pt x="426" y="314" on="0"/>
        <pt x="426" y="310" on="1"/>
        <pt x="426" y="297" on="0"/>
        <pt x="423" y="284" on="1"/>
        <pt x="422" y="276" on="0"/>
        <pt x="419" y="269" on="1"/>
        <pt x="416" y="260" on="0"/>
        <pt x="410" y="253" on="1"/>
        <pt x="407" y="251" on="0"/>
        <pt x="404" y="249" on="1"/>
        <pt x="400" y="248" on="0"/>
        <pt x="397" y="248" on="1"/>
        <pt x="243" y="248" on="1"/>
        <pt x="240" y="248" on="0"/>
        <pt x="237" y="249" on="1"/>
        <pt x="235" y="250" on="0"/>
        <pt x="232" y="252" on="1"/>
        <pt x="227" y="256" on="0"/>
        <pt x="222" y="262" on="1"/>
        <pt x="218" y="268" on="0"/>
        <pt x="215" y="275" on="1"/>
        <pt x="212" y="283" on="0"/>
        <pt x="211" y="290" on="1"/>
        <pt x="211" y="291" on="1"/>
        <pt x="217" y="288" on="0"/>
        <pt x="223" y="286" on="1"/>
        <pt x="228" y="285" on="0"/>
        <pt x="233" y="285" on="1"/>
        <pt x="253" y="285" on="1"/>
        <pt x="259" y="285" on="0"/>
        <pt x="264" y="285" on="1"/>
        <pt x="268" y="286" on="0"/>
        <pt x="271" y="287" on="1"/>
        <pt x="276" y="291" on="0"/>
        <pt x="280" y="295" on="1"/>
        <pt x="283" y="299" on="0"/>
        <pt x="286" y="303" on="1"/>
        <pt x="289" y="308" on="1"/>
        <pt x="288" y="315" on="1"/>
        <pt x="285" y="333" on="0"/>
        <pt x="283" y="351" on="1"/>
        <pt x="280" y="373" on="0"/>
        <pt x="276" y="396" on="1"/>
        <pt x="274" y="413" on="0"/>
        <pt x="269" y="434" on="1"/>
        <pt x="264" y="449" on="0"/>
        <pt x="261" y="459" on="1"/>
        <pt x="278" y="501" on="1"/>
        <pt x="281" y="492" on="0"/>
        <pt x="283" y="482" on="1"/>
        <pt x="285" y="471" on="0"/>
        <pt x="287" y="460" on="1"/>
        <pt x="290" y="443" on="0"/>
        <pt x="292" y="426" on="1"/>
        <pt x="293" y="408" on="0"/>
        <pt x="295" y="391" on="1"/>
        <pt x="296" y="379" on="0"/>
        <pt x="297" y="367" on="1"/>
        <pt x="298" y="353" on="0"/>
        <pt x="299" y="339" on="1"/>
        <pt x="301" y="321" on="1"/>
        <pt x="321" y="342" on="1"/>
        <pt x="329" y="351" on="0"/>
        <pt x="337" y="359" on="1"/>
        <pt x="342" y="363" on="0"/>
        <pt x="347" y="366" on="1"/>
        <pt x="354" y="372" on="0"/>
        <pt x="362" y="376" on="1"/>
        <pt x="368" y="378" on="0"/>
        <pt x="375" y="379" on="1"/>
        <pt x="375" y="379" on="0"/>
        <pt x="375" y="379" on="1"/>
        <pt x="383" y="378" on="0"/>
        <pt x="391" y="375" on="1"/>
        <pt x="399" y="370" on="0"/>
        <pt x="406" y="363" on="1"/>
        <pt x="414" y="354" on="0"/>
        <pt x="420" y="343" on="1"/>
        <pt x="424" y="331" on="0"/>
      </contour>
      <contour>
        <pt x="155" y="15" on="1"/>
        <pt x="99" y="15" on="0"/>
        <pt x="69" y="40" on="1"/>
        <pt x="34" y="70" on="0"/>
        <pt x="34" y="130" on="1"/>
        <pt x="34" y="168" on="0"/>
        <pt x="55" y="219" on="1"/>
        <pt x="67" y="248" on="0"/>
        <pt x="81" y="268" on="1"/>
        <pt x="57" y="219" on="0"/>
        <pt x="57" y="187" on="1"/>
        <pt x="57" y="147" on="0"/>
        <pt x="82" y="125" on="1"/>
        <pt x="112" y="98" on="0"/>
        <pt x="176" y="98" on="1"/>
        <pt x="571" y="98" on="1"/>
        <pt x="571" y="113" on="1"/>
        <pt x="571" y="144" on="0"/>
        <pt x="552" y="177" on="1"/>
        <pt x="552" y="178" on="1"/>
        <pt x="551" y="178" on="1"/>
        <pt x="527" y="212" on="1"/>
        <pt x="552" y="287" on="1"/>
        <pt x="567" y="261" on="0"/>
        <pt x="580" y="224" on="1"/>
        <pt x="603" y="158" on="0"/>
        <pt x="603" y="97" on="1"/>
        <pt x="603" y="15" on="1"/>
      </contour>
    </TTGlyph>
    <TTGlyph name="afii57512" xMin="183" yMin="15" xMax="454" yMax="691">
      <contour>
        <pt x="376" y="475" on="1"/>
        <pt x="380" y="475" on="0"/>
        <pt x="384" y="475" on="1"/>
        <pt x="388" y="475" on="0"/>
        <pt x="391" y="477" on="1"/>
        <pt x="393" y="478" on="0"/>
        <pt x="395" y="480" on="1"/>
        <pt x="398" y="483" on="0"/>
        <pt x="399" y="486" on="1"/>
        <pt x="400" y="492" on="0"/>
        <pt x="400" y="497" on="1"/>
        <pt x="398" y="503" on="0"/>
        <pt x="395" y="509" on="1"/>
        <pt x="392" y="513" on="0"/>
        <pt x="388" y="517" on="1"/>
        <pt x="384" y="520" on="0"/>
        <pt x="379" y="523" on="1"/>
        <pt x="373" y="526" on="0"/>
        <pt x="366" y="529" on="1"/>
        <pt x="359" y="531" on="0"/>
        <pt x="352" y="531" on="1"/>
        <pt x="345" y="531" on="0"/>
        <pt x="339" y="529" on="1"/>
        <pt x="331" y="527" on="0"/>
        <pt x="324" y="523" on="1"/>
        <pt x="314" y="516" on="0"/>
        <pt x="304" y="508" on="1"/>
        <pt x="295" y="499" on="0"/>
        <pt x="286" y="490" on="1"/>
        <pt x="272" y="475" on="1"/>
      </contour>
      <contour>
        <pt x="412" y="508" on="1"/>
        <pt x="412" y="504" on="0"/>
        <pt x="412" y="500" on="1"/>
        <pt x="412" y="487" on="0"/>
        <pt x="409" y="474" on="1"/>
        <pt x="408" y="466" on="0"/>
        <pt x="405" y="459" on="1"/>
        <pt x="402" y="450" on="0"/>
        <pt x="396" y="443" on="1"/>
        <pt x="393" y="441" on="0"/>
        <pt x="390" y="439" on="1"/>
        <pt x="386" y="438" on="0"/>
        <pt x="383" y="438" on="1"/>
        <pt x="229" y="438" on="1"/>
        <pt x="226" y="438" on="0"/>
        <pt x="223" y="439" on="1"/>
        <pt x="221" y="440" on="0"/>
        <pt x="218" y="442" on="1"/>
        <pt x="213" y="446" on="0"/>
        <pt x="208" y="452" on="1"/>
        <pt x="204" y="458" on="0"/>
        <pt x="201" y="465" on="1"/>
        <pt x="198" y="473" on="0"/>
        <pt x="197" y="480" on="1"/>
        <pt x="197" y="481" on="1"/>
        <pt x="203" y="478" on="0"/>
        <pt x="209" y="476" on="1"/>
        <pt x="214" y="475" on="0"/>
        <pt x="219" y="475" on="1"/>
        <pt x="239" y="475" on="1"/>
        <pt x="245" y="475" on="0"/>
        <pt x="250" y="475" on="1"/>
        <pt x="254" y="476" on="0"/>
        <pt x="257" y="477" on="1"/>
        <pt x="262" y="481" on="0"/>
        <pt x="266" y="485" on="1"/>
        <pt x="269" y="489" on="0"/>
        <pt x="272" y="493" on="1"/>
        <pt x="275" y="498" on="1"/>
        <pt x="274" y="505" on="1"/>
        <pt x="271" y="523" on="0"/>
        <pt x="269" y="541" on="1"/>
        <pt x="266" y="563" on="0"/>
        <pt x="262" y="586" on="1"/>
        <pt x="260" y="603" on="0"/>
        <pt x="255" y="624" on="1"/>
        <pt x="250" y="639" on="0"/>
        <pt x="247" y="649" on="1"/>
        <pt x="264" y="691" on="1"/>
        <pt x="267" y="682" on="0"/>
        <pt x="269" y="672" on="1"/>
        <pt x="271" y="661" on="0"/>
        <pt x="273" y="650" on="1"/>
        <pt x="276" y="633" on="0"/>
        <pt x="278" y="616" on="1"/>
        <pt x="279" y="598" on="0"/>
        <pt x="281" y="581" on="1"/>
        <pt x="282" y="569" on="0"/>
        <pt x="283" y="557" on="1"/>
        <pt x="284" y="543" on="0"/>
        <pt x="285" y="529" on="1"/>
        <pt x="287" y="511" on="1"/>
        <pt x="307" y="532" on="1"/>
        <pt x="315" y="541" on="0"/>
        <pt x="323" y="549" on="1"/>
        <pt x="328" y="553" on="0"/>
        <pt x="333" y="556" on="1"/>
        <pt x="340" y="562" on="0"/>
        <pt x="348" y="566" on="1"/>
        <pt x="354" y="568" on="0"/>
        <pt x="361" y="569" on="1"/>
        <pt x="361" y="569" on="0"/>
        <pt x="361" y="569" on="1"/>
        <pt x="369" y="568" on="0"/>
        <pt x="377" y="565" on="1"/>
        <pt x="385" y="560" on="0"/>
        <pt x="392" y="553" on="1"/>
        <pt x="400" y="544" on="0"/>
        <pt x="406" y="533" on="1"/>
        <pt x="410" y="521" on="0"/>
      </contour>
      <contour>
        <pt x="453" y="77" on="1"/>
        <pt x="453" y="63" on="0"/>
        <pt x="452" y="50" on="1"/>
        <pt x="450" y="40" on="0"/>
        <pt x="447" y="31" on="1"/>
        <pt x="443" y="24" on="0"/>
        <pt x="438" y="19" on="1"/>
        <pt x="434" y="17" on="0"/>
        <pt x="430" y="16" on="1"/>
        <pt x="426" y="15" on="0"/>
        <pt x="422" y="15" on="1"/>
        <pt x="213" y="15" on="1"/>
        <pt x="210" y="15" on="0"/>
        <pt x="206" y="16" on="1"/>
        <pt x="203" y="17" on="0"/>
        <pt x="201" y="20" on="1"/>
        <pt x="195" y="26" on="0"/>
        <pt x="191" y="34" on="1"/>
        <pt x="188" y="45" on="0"/>
        <pt x="186" y="58" on="1"/>
        <pt x="184" y="72" on="0"/>
        <pt x="184" y="86" on="1"/>
        <pt x="184" y="89" on="0"/>
        <pt x="184" y="92" on="1"/>
        <pt x="184" y="99" on="0"/>
        <pt x="184" y="106" on="1"/>
        <pt x="185" y="111" on="0"/>
        <pt x="186" y="115" on="1"/>
        <pt x="191" y="135" on="1"/>
        <pt x="192" y="133" on="1"/>
        <pt x="199" y="125" on="0"/>
        <pt x="206" y="118" on="1"/>
        <pt x="214" y="112" on="0"/>
        <pt x="223" y="107" on="1"/>
        <pt x="231" y="103" on="0"/>
        <pt x="239" y="100" on="1"/>
        <pt x="248" y="98" on="0"/>
        <pt x="257" y="98" on="1"/>
        <pt x="383" y="98" on="1"/>
        <pt x="385" y="98" on="0"/>
        <pt x="389" y="99" on="0"/>
        <pt x="391" y="99" on="1"/>
        <pt x="394" y="100" on="0"/>
        <pt x="397" y="101" on="1"/>
        <pt x="400" y="103" on="0"/>
        <pt x="403" y="105" on="1"/>
        <pt x="407" y="109" on="0"/>
        <pt x="411" y="112" on="1"/>
        <pt x="415" y="117" on="0"/>
        <pt x="418" y="123" on="1"/>
        <pt x="421" y="134" on="0"/>
        <pt x="420" y="146" on="1"/>
        <pt x="417" y="160" on="0"/>
        <pt x="411" y="174" on="1"/>
        <pt x="397" y="199" on="0"/>
        <pt x="380" y="220" on="1"/>
        <pt x="359" y="241" on="0"/>
        <pt x="338" y="261" on="1"/>
        <pt x="323" y="276" on="0"/>
        <pt x="310" y="291" on="1"/>
        <pt x="319" y="387" on="1"/>
        <pt x="330" y="377" on="0"/>
        <pt x="341" y="368" on="1"/>
        <pt x="351" y="358" on="0"/>
        <pt x="360" y="349" on="1"/>
        <pt x="373" y="335" on="0"/>
        <pt x="385" y="320" on="1"/>
        <pt x="396" y="306" on="0"/>
        <pt x="406" y="291" on="1"/>
        <pt x="418" y="270" on="0"/>
        <pt x="427" y="248" on="1"/>
        <pt x="436" y="221" on="0"/>
        <pt x="442" y="193" on="1"/>
        <pt x="447" y="165" on="0"/>
        <pt x="450" y="137" on="1"/>
        <pt x="453" y="111" on="0"/>
        <pt x="453" y="86" on="1"/>
        <pt x="453" y="81" on="0"/>
      </contour>
    </TTGlyph>
    <TTGlyph name="afii57513" xMin="187" yMin="-235" xMax="486" yMax="617">
      <contour>
        <pt x="449" y="401" on="1"/>
        <pt x="453" y="401" on="0"/>
        <pt x="457" y="401" on="1"/>
        <pt x="461" y="401" on="0"/>
        <pt x="464" y="403" on="1"/>
        <pt x="466" y="404" on="0"/>
        <pt x="468" y="406" on="1"/>
        <pt x="471" y="409" on="0"/>
        <pt x="472" y="412" on="1"/>
        <pt x="473" y="418" on="0"/>
        <pt x="473" y="423" on="1"/>
        <pt x="471" y="429" on="0"/>
        <pt x="468" y="435" on="1"/>
        <pt x="465" y="439" on="0"/>
        <pt x="461" y="443" on="1"/>
        <pt x="457" y="446" on="0"/>
        <pt x="452" y="449" on="1"/>
        <pt x="446" y="452" on="0"/>
        <pt x="439" y="455" on="1"/>
        <pt x="432" y="457" on="0"/>
        <pt x="425" y="457" on="1"/>
        <pt x="418" y="457" on="0"/>
        <pt x="412" y="455" on="1"/>
        <pt x="404" y="453" on="0"/>
        <pt x="397" y="449" on="1"/>
        <pt x="387" y="442" on="0"/>
        <pt x="377" y="434" on="1"/>
        <pt x="368" y="425" on="0"/>
        <pt x="359" y="416" on="1"/>
        <pt x="345" y="401" on="1"/>
      </contour>
      <contour>
        <pt x="485" y="434" on="1"/>
        <pt x="485" y="430" on="0"/>
        <pt x="485" y="426" on="1"/>
        <pt x="485" y="413" on="0"/>
        <pt x="482" y="400" on="1"/>
        <pt x="481" y="392" on="0"/>
        <pt x="478" y="385" on="1"/>
        <pt x="475" y="376" on="0"/>
        <pt x="469" y="369" on="1"/>
        <pt x="466" y="367" on="0"/>
        <pt x="463" y="365" on="1"/>
        <pt x="459" y="364" on="0"/>
        <pt x="456" y="364" on="1"/>
        <pt x="302" y="364" on="1"/>
        <pt x="299" y="364" on="0"/>
        <pt x="296" y="365" on="1"/>
        <pt x="294" y="366" on="0"/>
        <pt x="291" y="368" on="1"/>
        <pt x="286" y="372" on="0"/>
        <pt x="281" y="378" on="1"/>
        <pt x="277" y="384" on="0"/>
        <pt x="274" y="391" on="1"/>
        <pt x="271" y="399" on="0"/>
        <pt x="270" y="406" on="1"/>
        <pt x="270" y="407" on="1"/>
        <pt x="276" y="404" on="0"/>
        <pt x="282" y="402" on="1"/>
        <pt x="287" y="401" on="0"/>
        <pt x="292" y="401" on="1"/>
        <pt x="312" y="401" on="1"/>
        <pt x="318" y="401" on="0"/>
        <pt x="323" y="401" on="1"/>
        <pt x="327" y="402" on="0"/>
        <pt x="330" y="403" on="1"/>
        <pt x="335" y="407" on="0"/>
        <pt x="339" y="411" on="1"/>
        <pt x="342" y="415" on="0"/>
        <pt x="345" y="419" on="1"/>
        <pt x="348" y="424" on="1"/>
        <pt x="347" y="431" on="1"/>
        <pt x="344" y="449" on="0"/>
        <pt x="342" y="467" on="1"/>
        <pt x="339" y="489" on="0"/>
        <pt x="335" y="512" on="1"/>
        <pt x="333" y="529" on="0"/>
        <pt x="328" y="550" on="1"/>
        <pt x="323" y="565" on="0"/>
        <pt x="320" y="575" on="1"/>
        <pt x="337" y="617" on="1"/>
        <pt x="340" y="608" on="0"/>
        <pt x="342" y="598" on="1"/>
        <pt x="344" y="587" on="0"/>
        <pt x="346" y="576" on="1"/>
        <pt x="349" y="559" on="0"/>
        <pt x="351" y="542" on="1"/>
        <pt x="352" y="524" on="0"/>
        <pt x="354" y="507" on="1"/>
        <pt x="355" y="495" on="0"/>
        <pt x="356" y="483" on="1"/>
        <pt x="357" y="469" on="0"/>
        <pt x="358" y="455" on="1"/>
        <pt x="360" y="437" on="1"/>
        <pt x="380" y="458" on="1"/>
        <pt x="388" y="467" on="0"/>
        <pt x="396" y="475" on="1"/>
        <pt x="401" y="479" on="0"/>
        <pt x="406" y="482" on="1"/>
        <pt x="413" y="488" on="0"/>
        <pt x="421" y="492" on="1"/>
        <pt x="427" y="494" on="0"/>
        <pt x="434" y="495" on="1"/>
        <pt x="434" y="495" on="0"/>
        <pt x="434" y="495" on="1"/>
        <pt x="442" y="494" on="0"/>
        <pt x="450" y="491" on="1"/>
        <pt x="458" y="486" on="0"/>
        <pt x="465" y="479" on="1"/>
        <pt x="473" y="470" on="0"/>
        <pt x="479" y="459" on="1"/>
        <pt x="483" y="447" on="0"/>
      </contour>
      <contour>
        <pt x="260" y="-234" on="1"/>
        <pt x="251" y="-233" on="0"/>
        <pt x="241" y="-231" on="1"/>
        <pt x="231" y="-227" on="0"/>
        <pt x="221" y="-222" on="1"/>
        <pt x="211" y="-216" on="0"/>
        <pt x="202" y="-210" on="1"/>
        <pt x="195" y="-204" on="0"/>
        <pt x="187" y="-199" on="1"/>
        <pt x="233" y="-181" on="0"/>
        <pt x="276" y="-156" on="1"/>
        <pt x="310" y="-132" on="0"/>
        <pt x="342" y="-105" on="1"/>
        <pt x="387" y="-63" on="0"/>
        <pt x="422" y="-12" on="1"/>
        <pt x="433" y="15" on="0"/>
        <pt x="436" y="43" on="1"/>
        <pt x="436" y="47" on="0"/>
        <pt x="436" y="50" on="1"/>
        <pt x="434" y="64" on="0"/>
        <pt x="430" y="78" on="1"/>
        <pt x="423" y="99" on="0"/>
        <pt x="411" y="118" on="1"/>
        <pt x="399" y="136" on="0"/>
        <pt x="386" y="153" on="1"/>
        <pt x="379" y="162" on="0"/>
        <pt x="372" y="171" on="1"/>
        <pt x="406" y="272" on="1"/>
        <pt x="408" y="269" on="1"/>
        <pt x="419" y="249" on="0"/>
        <pt x="428" y="228" on="1"/>
        <pt x="436" y="208" on="0"/>
        <pt x="444" y="186" on="1"/>
        <pt x="453" y="156" on="0"/>
        <pt x="458" y="125" on="1"/>
        <pt x="462" y="94" on="0"/>
        <pt x="463" y="63" on="1"/>
        <pt x="462" y="31" on="0"/>
        <pt x="457" y="0" on="1"/>
        <pt x="450" y="-33" on="0"/>
        <pt x="439" y="-65" on="1"/>
        <pt x="426" y="-98" on="0"/>
        <pt x="408" y="-130" on="1"/>
        <pt x="390" y="-158" on="0"/>
        <pt x="368" y="-183" on="1"/>
        <pt x="345" y="-205" on="0"/>
        <pt x="317" y="-221" on="1"/>
        <pt x="291" y="-232" on="0"/>
        <pt x="264" y="-234" on="1"/>
        <pt x="262" y="-234" on="0"/>
      </contour>
    </TTGlyph>
    <TTGlyph name="afii57514" xMin="101" yMin="-98" xMax="536" yMax="260">
      <contour>
        <pt x="519" y="78" on="1"/>
        <pt x="509" y="106" on="0"/>
        <pt x="491" y="141" on="1"/>
        <pt x="467" y="184" on="0"/>
        <pt x="468" y="190" on="1"/>
        <pt x="489" y="260" on="1"/>
        <pt x="509" y="219" on="0"/>
        <pt x="520" y="186" on="1"/>
        <pt x="536" y="135" on="0"/>
        <pt x="536" y="94" on="1"/>
        <pt x="536" y="50" on="1"/>
        <pt x="536" y="8" on="0"/>
        <pt x="486" y="-28" on="1"/>
        <pt x="442" y="-60" on="0"/>
        <pt x="369" y="-81" on="1"/>
        <pt x="308" y="-98" on="0"/>
        <pt x="259" y="-98" on="1"/>
        <pt x="176" y="-98" on="0"/>
        <pt x="136" y="-58" on="1"/>
        <pt x="101" y="-24" on="0"/>
        <pt x="101" y="33" on="1"/>
        <pt x="101" y="98" on="0"/>
        <pt x="122" y="163" on="1"/>
        <pt x="118" y="135" on="0"/>
        <pt x="118" y="116" on="1"/>
        <pt x="118" y="41" on="0"/>
        <pt x="170" y="9" on="1"/>
        <pt x="209" y="-15" on="0"/>
        <pt x="280" y="-15" on="1"/>
        <pt x="357" y="-15" on="0"/>
        <pt x="430" y="9" on="1"/>
        <pt x="499" y="31" on="0"/>
        <pt x="518" y="57" on="1"/>
        <pt x="523" y="64" on="1"/>
      </contour>
    </TTGlyph>
    <TTGlyph name="afii61573" xMin="-62" yMin="-62" xMax="62" yMax="555">
      <contour>
        <pt x="14" y="486" on="1"/>
        <pt x="14" y="-34" on="1"/>
        <pt x="56" y="-34" on="1"/>
        <pt x="56" y="-62" on="1"/>
        <pt x="-56" y="-62" on="1"/>
        <pt x="-56" y="-34" on="1"/>
        <pt x="-14" y="-34" on="1"/>
        <pt x="-14" y="486" on="1"/>
        <pt x="-62" y="486" on="1"/>
        <pt x="0" y="555" on="1"/>
        <pt x="62" y="486" on="1"/>
      </contour>
    </TTGlyph>
    <TTGlyph name="afii61574" xMin="-99" yMin="0" xMax="114" yMax="815">
      <contour>
        <pt x="45" y="694" on="1"/>
        <pt x="45" y="740" on="1"/>
        <pt x="-99" y="740" on="1"/>
        <pt x="-99" y="768" on="1"/>
        <pt x="45" y="768" on="1"/>
        <pt x="45" y="815" on="1"/>
        <pt x="114" y="755" on="1"/>
      </contour>
      <contour>
        <pt x="22" y="636" on="1"/>
        <pt x="22" y="628" on="0"/>
        <pt x="10" y="614" on="0"/>
        <pt x="0" y="614" on="1"/>
        <pt x="-10" y="614" on="0"/>
        <pt x="-22" y="628" on="0"/>
        <pt x="-22" y="636" on="1"/>
        <pt x="-22" y="646" on="0"/>
        <pt x="-10" y="659" on="0"/>
        <pt x="0" y="659" on="1"/>
        <pt x="10" y="659" on="0"/>
        <pt x="22" y="646" on="0"/>
      </contour>
      <contour>
        <pt x="22" y="534" on="1"/>
        <pt x="22" y="524" on="0"/>
        <pt x="10" y="512" on="0"/>
        <pt x="0" y="512" on="1"/>
        <pt x="-10" y="512" on="0"/>
        <pt x="-22" y="524" on="0"/>
        <pt x="-22" y="534" on="1"/>
        <pt x="-22" y="543" on="0"/>
        <pt x="-10" y="555" on="0"/>
        <pt x="0" y="555" on="1"/>
        <pt x="10" y="555" on="0"/>
        <pt x="22" y="543" on="0"/>
      </contour>
      <contour>
        <pt x="22" y="432" on="1"/>
        <pt x="22" y="422" on="0"/>
        <pt x="10" y="410" on="0"/>
        <pt x="0" y="410" on="1"/>
        <pt x="-10" y="410" on="0"/>
        <pt x="-22" y="422" on="0"/>
        <pt x="-22" y="432" on="1"/>
        <pt x="-22" y="440" on="0"/>
        <pt x="-10" y="454" on="0"/>
        <pt x="0" y="454" on="1"/>
        <pt x="10" y="454" on="0"/>
        <pt x="22" y="440" on="0"/>
      </contour>
      <contour>
        <pt x="22" y="328" on="1"/>
        <pt x="22" y="320" on="0"/>
        <pt x="10" y="308" on="0"/>
        <pt x="0" y="308" on="1"/>
        <pt x="-10" y="308" on="0"/>
        <pt x="-22" y="320" on="0"/>
        <pt x="-22" y="328" on="1"/>
        <pt x="-22" y="338" on="0"/>
        <pt x="-10" y="351" on="0"/>
        <pt x="0" y="351" on="1"/>
        <pt x="10" y="351" on="0"/>
        <pt x="22" y="338" on="0"/>
      </contour>
      <contour>
        <pt x="22" y="226" on="1"/>
        <pt x="22" y="218" on="0"/>
        <pt x="10" y="204" on="0"/>
        <pt x="0" y="204" on="1"/>
        <pt x="-10" y="204" on="0"/>
        <pt x="-22" y="218" on="0"/>
        <pt x="-22" y="226" on="1"/>
        <pt x="-22" y="236" on="0"/>
        <pt x="-10" y="249" on="0"/>
        <pt x="0" y="249" on="1"/>
        <pt x="10" y="249" on="0"/>
        <pt x="22" y="236" on="0"/>
      </contour>
      <contour>
        <pt x="22" y="124" on="1"/>
        <pt x="22" y="114" on="0"/>
        <pt x="10" y="102" on="0"/>
        <pt x="0" y="102" on="1"/>
        <pt x="-10" y="102" on="0"/>
        <pt x="-22" y="114" on="0"/>
        <pt x="-22" y="124" on="1"/>
        <pt x="-22" y="133" on="0"/>
        <pt x="-10" y="146" on="0"/>
        <pt x="0" y="146" on="1"/>
        <pt x="10" y="146" on="0"/>
        <pt x="22" y="133" on="0"/>
      </contour>
      <contour>
        <pt x="22" y="22" on="1"/>
        <pt x="22" y="13" on="0"/>
        <pt x="10" y="0" on="0"/>
        <pt x="0" y="0" on="1"/>
        <pt x="-10" y="0" on="0"/>
        <pt x="-22" y="13" on="0"/>
        <pt x="-22" y="22" on="1"/>
        <pt x="-22" y="30" on="0"/>
        <pt x="-10" y="43" on="0"/>
        <pt x="0" y="43" on="1"/>
        <pt x="10" y="43" on="0"/>
        <pt x="22" y="30" on="0"/>
      </contour>
    </TTGlyph>
    <TTGlyph name="afii61575" xMin="-114" yMin="0" xMax="99" yMax="815">
      <contour>
        <pt x="-45" y="740" on="1"/>
        <pt x="-45" y="694" on="1"/>
        <pt x="-114" y="755" on="1"/>
        <pt x="-45" y="815" on="1"/>
        <pt x="-45" y="768" on="1"/>
        <pt x="99" y="768" on="1"/>
        <pt x="99" y="740" on="1"/>
      </contour>
      <contour>
        <pt x="22" y="636" on="1"/>
        <pt x="22" y="628" on="0"/>
        <pt x="10" y="614" on="0"/>
        <pt x="0" y="614" on="1"/>
        <pt x="-10" y="614" on="0"/>
        <pt x="-22" y="628" on="0"/>
        <pt x="-22" y="636" on="1"/>
        <pt x="-22" y="646" on="0"/>
        <pt x="-10" y="659" on="0"/>
        <pt x="0" y="659" on="1"/>
        <pt x="10" y="659" on="0"/>
        <pt x="22" y="646" on="0"/>
      </contour>
      <contour>
        <pt x="22" y="534" on="1"/>
        <pt x="22" y="524" on="0"/>
        <pt x="10" y="512" on="0"/>
        <pt x="0" y="512" on="1"/>
        <pt x="-10" y="512" on="0"/>
        <pt x="-22" y="524" on="0"/>
        <pt x="-22" y="534" on="1"/>
        <pt x="-22" y="543" on="0"/>
        <pt x="-10" y="555" on="0"/>
        <pt x="0" y="555" on="1"/>
        <pt x="10" y="555" on="0"/>
        <pt x="22" y="543" on="0"/>
      </contour>
      <contour>
        <pt x="22" y="432" on="1"/>
        <pt x="22" y="422" on="0"/>
        <pt x="10" y="410" on="0"/>
        <pt x="0" y="410" on="1"/>
        <pt x="-10" y="410" on="0"/>
        <pt x="-22" y="422" on="0"/>
        <pt x="-22" y="432" on="1"/>
        <pt x="-22" y="440" on="0"/>
        <pt x="-10" y="454" on="0"/>
        <pt x="0" y="454" on="1"/>
        <pt x="10" y="454" on="0"/>
        <pt x="22" y="440" on="0"/>
      </contour>
      <contour>
        <pt x="22" y="328" on="1"/>
        <pt x="22" y="320" on="0"/>
        <pt x="10" y="308" on="0"/>
        <pt x="0" y="308" on="1"/>
        <pt x="-10" y="308" on="0"/>
        <pt x="-22" y="320" on="0"/>
        <pt x="-22" y="328" on="1"/>
        <pt x="-22" y="338" on="0"/>
        <pt x="-10" y="351" on="0"/>
        <pt x="0" y="351" on="1"/>
        <pt x="10" y="351" on="0"/>
        <pt x="22" y="338" on="0"/>
      </contour>
      <contour>
        <pt x="22" y="226" on="1"/>
        <pt x="22" y="218" on="0"/>
        <pt x="10" y="204" on="0"/>
        <pt x="0" y="204" on="1"/>
        <pt x="-10" y="204" on="0"/>
        <pt x="-22" y="218" on="0"/>
        <pt x="-22" y="226" on="1"/>
        <pt x="-22" y="236" on="0"/>
        <pt x="-10" y="249" on="0"/>
        <pt x="0" y="249" on="1"/>
        <pt x="10" y="249" on="0"/>
        <pt x="22" y="236" on="0"/>
      </contour>
      <contour>
        <pt x="22" y="124" on="1"/>
        <pt x="22" y="114" on="0"/>
        <pt x="10" y="102" on="0"/>
        <pt x="0" y="102" on="1"/>
        <pt x="-10" y="102" on="0"/>
        <pt x="-22" y="114" on="0"/>
        <pt x="-22" y="124" on="1"/>
        <pt x="-22" y="133" on="0"/>
        <pt x="-10" y="146" on="0"/>
        <pt x="0" y="146" on="1"/>
        <pt x="10" y="146" on="0"/>
        <pt x="22" y="133" on="0"/>
      </contour>
      <contour>
        <pt x="22" y="22" on="1"/>
        <pt x="22" y="13" on="0"/>
        <pt x="10" y="0" on="0"/>
        <pt x="0" y="0" on="1"/>
        <pt x="-10" y="0" on="0"/>
        <pt x="-22" y="13" on="0"/>
        <pt x="-22" y="22" on="1"/>
        <pt x="-22" y="30" on="0"/>
        <pt x="-10" y="43" on="0"/>
        <pt x="0" y="43" on="1"/>
        <pt x="10" y="43" on="0"/>
        <pt x="22" y="30" on="0"/>
      </contour>
    </TTGlyph>
    <TTGlyph name="afii61664" xMin="-174" yMin="0" xMax="173" yMax="914">
      <contour>
        <pt x="161" y="680" on="1"/>
        <pt x="128" y="702" on="0"/>
        <pt x="94" y="714" on="1"/>
        <pt x="53" y="728" on="1"/>
        <pt x="125" y="628" on="1"/>
        <pt x="104" y="606" on="1"/>
        <pt x="7" y="730" on="1"/>
        <pt x="-8" y="730" on="1"/>
        <pt x="-104" y="607" on="1"/>
        <pt x="-126" y="630" on="1"/>
        <pt x="-54" y="728" on="1"/>
        <pt x="-54" y="728" on="0"/>
        <pt x="-96" y="714" on="1"/>
        <pt x="-128" y="704" on="0"/>
        <pt x="-162" y="680" on="1"/>
        <pt x="-174" y="696" on="1"/>
        <pt x="-128" y="737" on="0"/>
        <pt x="-98" y="751" on="1"/>
        <pt x="-40" y="779" on="1"/>
        <pt x="-124" y="891" on="1"/>
        <pt x="-102" y="912" on="1"/>
        <pt x="0" y="782" on="1"/>
        <pt x="103" y="914" on="1"/>
        <pt x="123" y="892" on="1"/>
        <pt x="39" y="779" on="1"/>
        <pt x="66" y="767" on="0"/>
        <pt x="96" y="751" on="1"/>
        <pt x="134" y="730" on="0"/>
        <pt x="173" y="696" on="1"/>
      </contour>
      <contour>
        <pt x="22" y="636" on="1"/>
        <pt x="22" y="628" on="0"/>
        <pt x="10" y="614" on="0"/>
        <pt x="0" y="614" on="1"/>
        <pt x="-10" y="614" on="0"/>
        <pt x="-22" y="628" on="0"/>
        <pt x="-22" y="636" on="1"/>
        <pt x="-22" y="646" on="0"/>
        <pt x="-10" y="659" on="0"/>
        <pt x="0" y="659" on="1"/>
        <pt x="10" y="659" on="0"/>
        <pt x="22" y="646" on="0"/>
      </contour>
      <contour>
        <pt x="22" y="534" on="1"/>
        <pt x="22" y="524" on="0"/>
        <pt x="10" y="512" on="0"/>
        <pt x="0" y="512" on="1"/>
        <pt x="-10" y="512" on="0"/>
        <pt x="-22" y="524" on="0"/>
        <pt x="-22" y="534" on="1"/>
        <pt x="-22" y="543" on="0"/>
        <pt x="-10" y="555" on="0"/>
        <pt x="0" y="555" on="1"/>
        <pt x="10" y="555" on="0"/>
        <pt x="22" y="543" on="0"/>
      </contour>
      <contour>
        <pt x="22" y="432" on="1"/>
        <pt x="22" y="422" on="0"/>
        <pt x="10" y="410" on="0"/>
        <pt x="0" y="410" on="1"/>
        <pt x="-10" y="410" on="0"/>
        <pt x="-22" y="422" on="0"/>
        <pt x="-22" y="432" on="1"/>
        <pt x="-22" y="440" on="0"/>
        <pt x="-10" y="454" on="0"/>
        <pt x="0" y="454" on="1"/>
        <pt x="10" y="454" on="0"/>
        <pt x="22" y="440" on="0"/>
      </contour>
      <contour>
        <pt x="22" y="328" on="1"/>
        <pt x="22" y="320" on="0"/>
        <pt x="10" y="308" on="0"/>
        <pt x="0" y="308" on="1"/>
        <pt x="-10" y="308" on="0"/>
        <pt x="-22" y="320" on="0"/>
        <pt x="-22" y="328" on="1"/>
        <pt x="-22" y="338" on="0"/>
        <pt x="-10" y="351" on="0"/>
        <pt x="0" y="351" on="1"/>
        <pt x="10" y="351" on="0"/>
        <pt x="22" y="338" on="0"/>
      </contour>
      <contour>
        <pt x="22" y="226" on="1"/>
        <pt x="22" y="218" on="0"/>
        <pt x="10" y="204" on="0"/>
        <pt x="0" y="204" on="1"/>
        <pt x="-10" y="204" on="0"/>
        <pt x="-22" y="218" on="0"/>
        <pt x="-22" y="226" on="1"/>
        <pt x="-22" y="236" on="0"/>
        <pt x="-10" y="249" on="0"/>
        <pt x="0" y="249" on="1"/>
        <pt x="10" y="249" on="0"/>
        <pt x="22" y="236" on="0"/>
      </contour>
      <contour>
        <pt x="22" y="124" on="1"/>
        <pt x="22" y="114" on="0"/>
        <pt x="10" y="102" on="0"/>
        <pt x="0" y="102" on="1"/>
        <pt x="-10" y="102" on="0"/>
        <pt x="-22" y="114" on="0"/>
        <pt x="-22" y="124" on="1"/>
        <pt x="-22" y="133" on="0"/>
        <pt x="-10" y="146" on="0"/>
        <pt x="0" y="146" on="1"/>
        <pt x="10" y="146" on="0"/>
        <pt x="22" y="133" on="0"/>
      </contour>
      <contour>
        <pt x="22" y="22" on="1"/>
        <pt x="22" y="13" on="0"/>
        <pt x="10" y="0" on="0"/>
        <pt x="0" y="0" on="1"/>
        <pt x="-10" y="0" on="0"/>
        <pt x="-22" y="13" on="0"/>
        <pt x="-22" y="22" on="1"/>
        <pt x="-22" y="30" on="0"/>
        <pt x="-10" y="43" on="0"/>
        <pt x="0" y="43" on="1"/>
        <pt x="10" y="43" on="0"/>
        <pt x="22" y="30" on="0"/>
      </contour>
    </TTGlyph>
    <TTGlyph name="agrave" xMin="59" yMin="-14" xMax="550" yMax="618">
      <component glyphName="a" x="0" y="0" flags="0x1004"/>
      <component glyphName="grave" x="0" y="0" flags="0x1004"/>
    </TTGlyph>
</ttFont>
